<?xml version="1.0" encoding="UTF-8"?>
<!DOCTYPE svg PUBLIC "-//W3C//DTD SVG 1.1//EN" "http://www.w3.org/Graphics/SVG/1.1/DTD/svg11.dtd">
<svg xmlns="http://www.w3.org/2000/svg" version="1.1" width="32px" height="32px" style="shape-rendering:geometricPrecision; text-rendering:geometricPrecision; image-rendering:optimizeQuality; fill-rule:evenodd; clip-rule:evenodd" xmlns:xlink="http://www.w3.org/1999/xlink">
<g><path style="opacity:0.6" fill="#21384d" d="M 17.5,-0.5 C 17.8333,-0.5 18.1667,-0.5 18.5,-0.5C 19.5511,0.222348 20.2178,1.22235 20.5,2.5C 19.8333,2.16667 19.1667,1.83333 18.5,1.5C 17.6618,1.15829 17.3284,0.491622 17.5,-0.5 Z"/></g>
<g><path style="opacity:1" fill="#234767" d="M 11.5,-0.5 C 13.5,-0.5 15.5,-0.5 17.5,-0.5C 17.3284,0.491622 17.6618,1.15829 18.5,1.5C 18.1583,2.33825 17.4916,2.67158 16.5,2.5C 15.8333,1.16667 15.1667,1.16667 14.5,2.5C 13.1667,2.16667 11.8333,1.83333 10.5,1.5C 10.8333,0.833333 11.1667,0.166667 11.5,-0.5 Z"/></g>
<g><path style="opacity:1" fill="#1e5684" d="M 10.5,1.5 C 11.8333,1.83333 13.1667,2.16667 14.5,2.5C 13.5,3.16667 12.5,3.83333 11.5,4.5C 10.596,3.79105 10.2627,2.79105 10.5,1.5 Z"/></g>
<g><path style="opacity:1" fill="#214c70" d="M 18.5,1.5 C 19.1667,1.83333 19.8333,2.16667 20.5,2.5C 21.3382,2.84171 21.6716,3.50838 21.5,4.5C 19.8489,6.40209 19.5155,8.40209 20.5,10.5C 20.5,11.1667 20.5,11.8333 20.5,12.5C 19.1667,12.5 18.5,11.8333 18.5,10.5C 18.5,9.5 18.5,8.5 18.5,7.5C 18.5,6.83333 18.5,6.16667 18.5,5.5C 19.0431,5.44001 19.3764,5.10667 19.5,4.5C 18.3984,3.82434 17.3984,3.15767 16.5,2.5C 17.4916,2.67158 18.1583,2.33825 18.5,1.5 Z"/></g>
<g><path style="opacity:1" fill="#247aad" d="M 16.5,2.5 C 17.3984,3.15767 18.3984,3.82434 19.5,4.5C 19.3764,5.10667 19.0431,5.44001 18.5,5.5C 16.7659,6.56205 15.0992,6.56205 13.5,5.5C 12.8333,5.5 12.1667,5.5 11.5,5.5C 11.5,5.16667 11.5,4.83333 11.5,4.5C 12.5,3.83333 13.5,3.16667 14.5,2.5C 15.1667,1.16667 15.8333,1.16667 16.5,2.5 Z"/></g>
<g><path style="opacity:1" fill="#1e4163" d="M 10.5,1.5 C 10.2627,2.79105 10.596,3.79105 11.5,4.5C 11.5,4.83333 11.5,5.16667 11.5,5.5C 10.5,5.83333 9.83333,6.5 9.5,7.5C 9.16667,7.5 8.83333,7.5 8.5,7.5C 8.5,7.16667 8.5,6.83333 8.5,6.5C 8.5,5.5 8.5,4.5 8.5,3.5C 8.83333,2.5 9.5,1.83333 10.5,1.5 Z"/></g>
<g><path style="opacity:1" fill="#1d4b72" d="M 13.5,5.5 C 15.0992,6.56205 16.7659,6.56205 18.5,5.5C 18.5,6.16667 18.5,6.83333 18.5,7.5C 17.5,7.5 16.5,7.5 15.5,7.5C 15.1667,7.5 14.8333,7.5 14.5,7.5C 13.6618,7.15829 13.3284,6.49162 13.5,5.5 Z"/></g>
<g><path style="opacity:0.682" fill="#1e3a50" d="M 8.5,3.5 C 8.5,4.5 8.5,5.5 8.5,6.5C 7.83333,7.16667 7.16667,7.83333 6.5,8.5C 6.40206,6.44708 7.06873,4.78041 8.5,3.5 Z"/></g>
<g><path style="opacity:0.957" fill="#1c3c59" d="M 11.5,5.5 C 12.1667,5.5 12.8333,5.5 13.5,5.5C 13.3284,6.49162 13.6618,7.15829 14.5,7.5C 13.6993,9.04181 13.366,10.7085 13.5,12.5C 13.1667,12.5 12.8333,12.5 12.5,12.5C 12.3259,10.139 11.9926,7.80562 11.5,5.5 Z"/></g>
<g><path style="opacity:1" fill="#1e374d" d="M 15.5,7.5 C 16.5,7.5 17.5,7.5 18.5,7.5C 18.5,8.5 18.5,9.5 18.5,10.5C 17.5,9.5 16.5,8.5 15.5,7.5 Z"/></g>
<g><path style="opacity:0.851" fill="#223c53" d="M 21.5,4.5 C 22.7944,6.67997 22.4611,8.67997 20.5,10.5C 19.5155,8.40209 19.8489,6.40209 21.5,4.5 Z"/></g>
<g><path style="opacity:0.945" fill="#1e364f" d="M 8.5,6.5 C 8.5,6.83333 8.5,7.16667 8.5,7.5C 7.37113,10.5085 6.37113,13.5085 5.5,16.5C 5.1936,13.6146 5.52693,10.9479 6.5,8.5C 7.16667,7.83333 7.83333,7.16667 8.5,6.5 Z"/></g>
<g><path style="opacity:1" fill="#1c4e77" d="M 11.5,5.5 C 11.9926,7.80562 12.3259,10.139 12.5,12.5C 11.0652,11.0867 10.0652,9.42001 9.5,7.5C 9.83333,6.5 10.5,5.83333 11.5,5.5 Z"/></g>
<g><path style="opacity:1" fill="#1e567e" d="M 8.5,7.5 C 8.83333,7.5 9.16667,7.5 9.5,7.5C 9.5751,10.2062 9.90843,12.8728 10.5,15.5C 8.82124,15.2852 7.82124,15.9519 7.5,17.5C 6.83333,17.5 6.16667,17.5 5.5,17.5C 5.5,17.1667 5.5,16.8333 5.5,16.5C 6.37113,13.5085 7.37113,10.5085 8.5,7.5 Z"/></g>
<g><path style="opacity:1" fill="#1f5982" d="M 25.5,8.5 C 26.4345,9.56764 26.7678,10.901 26.5,12.5C 25.8333,12.5 25.1667,12.5 24.5,12.5C 25.2341,11.2921 25.5674,9.95875 25.5,8.5 Z"/></g>
<g><path style="opacity:0.745" fill="#243a4a" d="M 25.5,8.5 C 25.5674,9.95875 25.2341,11.2921 24.5,12.5C 23.8333,12.5 23.1667,12.5 22.5,12.5C 23.5116,11.1283 24.5116,9.79502 25.5,8.5 Z"/></g>
<g><path style="opacity:0.745" fill="#1e4259" d="M 25.5,8.5 C 25.56,7.95691 25.8933,7.62358 26.5,7.5C 27.48,10.0865 27.8134,12.7531 27.5,15.5C 27.1667,15.5 26.8333,15.5 26.5,15.5C 26.5,15.1667 26.5,14.8333 26.5,14.5C 26.5,13.8333 26.5,13.1667 26.5,12.5C 26.7678,10.901 26.4345,9.56764 25.5,8.5 Z"/></g>
<g><path style="opacity:1" fill="#1f6796" d="M 9.5,7.5 C 10.0652,9.42001 11.0652,11.0867 12.5,12.5C 12.8333,12.5 13.1667,12.5 13.5,12.5C 13.5,12.8333 13.5,13.1667 13.5,13.5C 13.5,14.1667 13.5,14.8333 13.5,15.5C 12.5,15.5 11.5,15.5 10.5,15.5C 9.90843,12.8728 9.5751,10.2062 9.5,7.5 Z"/></g>
<g><path style="opacity:1" fill="#1e517b" d="M 22.5,12.5 C 23.1667,12.5 23.8333,12.5 24.5,12.5C 25.1667,12.5 25.8333,12.5 26.5,12.5C 26.5,13.1667 26.5,13.8333 26.5,14.5C 24.8333,13.1667 23.1667,13.1667 21.5,14.5C 21.8333,13.8333 22.1667,13.1667 22.5,12.5 Z"/></g>
<g><path style="opacity:0.824" fill="#224155" d="M 20.5,12.5 C 21.1667,12.5 21.8333,12.5 22.5,12.5C 22.1667,13.1667 21.8333,13.8333 21.5,14.5C 21.1667,14.5 20.8333,14.5 20.5,14.5C 20.1667,14.5 19.8333,14.5 19.5,14.5C 19.1667,14.5 18.8333,14.5 18.5,14.5C 18.1667,14.5 17.8333,14.5 17.5,14.5C 18.5,13.8333 19.5,13.1667 20.5,12.5 Z"/></g>
<g><path style="opacity:0.831" fill="#23475e" d="M 13.5,13.5 C 14.7079,14.2341 16.0413,14.5674 17.5,14.5C 17.8333,14.5 18.1667,14.5 18.5,14.5C 17.4324,15.4345 16.099,15.7678 14.5,15.5C 14.1667,15.5 13.8333,15.5 13.5,15.5C 13.5,14.8333 13.5,14.1667 13.5,13.5 Z"/></g>
<g><path style="opacity:1" fill="#227dad" d="M 26.5,14.5 C 26.5,14.8333 26.5,15.1667 26.5,15.5C 25.5084,15.3284 24.8417,15.6618 24.5,16.5C 24.0623,17.5063 23.3957,17.5063 22.5,16.5C 21.8333,15.8333 21.1667,15.1667 20.5,14.5C 20.8333,14.5 21.1667,14.5 21.5,14.5C 23.1667,13.1667 24.8333,13.1667 26.5,14.5 Z"/></g>
<g><path style="opacity:1" fill="#2274a7" d="M 10.5,15.5 C 11.5,15.5 12.5,15.5 13.5,15.5C 13.8333,15.5 14.1667,15.5 14.5,15.5C 14.5,15.8333 14.5,16.1667 14.5,16.5C 14.1583,17.3382 13.4916,17.6716 12.5,17.5C 11.1667,16.1667 9.83333,16.1667 8.5,17.5C 8.16667,17.5 7.83333,17.5 7.5,17.5C 7.82124,15.9519 8.82124,15.2852 10.5,15.5 Z"/></g>
<g><path style="opacity:1" fill="#1f6898" d="M 18.5,14.5 C 18.8333,14.5 19.1667,14.5 19.5,14.5C 19.1788,16.0481 18.1788,16.7148 16.5,16.5C 16.1667,16.5 15.8333,16.5 15.5,16.5C 15.1667,16.5 14.8333,16.5 14.5,16.5C 14.5,16.1667 14.5,15.8333 14.5,15.5C 16.099,15.7678 17.4324,15.4345 18.5,14.5 Z"/></g>
<g><path style="opacity:1" fill="#205176" d="M 19.5,14.5 C 19.8333,14.5 20.1667,14.5 20.5,14.5C 21.1667,15.1667 21.8333,15.8333 22.5,16.5C 21.8333,16.8333 21.1667,17.1667 20.5,17.5C 19.1667,17.5 17.8333,17.5 16.5,17.5C 16.5,17.1667 16.5,16.8333 16.5,16.5C 18.1788,16.7148 19.1788,16.0481 19.5,14.5 Z"/></g>
<g><path style="opacity:0.467" fill="#1d3141" d="M 5.5,16.5 C 5.5,16.8333 5.5,17.1667 5.5,17.5C 4.50838,17.3284 3.84171,17.6618 3.5,18.5C 2.83333,18.5 2.16667,18.5 1.5,18.5C 2.28696,16.8958 3.6203,16.2291 5.5,16.5 Z"/></g>
<g><path style="opacity:1" fill="#20547d" d="M 5.5,17.5 C 6.16667,17.5 6.83333,17.5 7.5,17.5C 7.83333,17.5 8.16667,17.5 8.5,17.5C 8.5,18.5 8.5,19.5 8.5,20.5C 7.77842,20.0825 7.27842,19.4158 7,18.5C 6.53566,19.0944 6.36899,19.7611 6.5,20.5C 5.76109,20.631 5.09442,20.4643 4.5,20C 5.25244,19.3292 5.58577,18.4959 5.5,17.5 Z"/></g>
<g><path style="opacity:1" fill="#2b85b8" d="M 8.5,17.5 C 9.83333,16.1667 11.1667,16.1667 12.5,17.5C 11.8333,17.5 11.5,17.8333 11.5,18.5C 10.391,18.4431 9.39105,18.1098 8.5,17.5 Z"/></g>
<g><path style="opacity:1" fill="#225278" d="M 14.5,16.5 C 14.8333,16.5 15.1667,16.5 15.5,16.5C 15.5,17.1667 15.8333,17.5 16.5,17.5C 16.5,18.1667 16.5,18.8333 16.5,19.5C 15.8333,19.8333 15.1667,20.1667 14.5,20.5C 14.5,19.8333 14.1667,19.5 13.5,19.5C 13.1583,18.6618 12.4916,18.3284 11.5,18.5C 11.5,17.8333 11.8333,17.5 12.5,17.5C 13.4916,17.6716 14.1583,17.3382 14.5,16.5 Z"/></g>
<g><path style="opacity:0.769" fill="#233547" d="M 22.5,16.5 C 22.8333,17.8333 23.1667,19.1667 23.5,20.5C 22.1667,19.8333 21.1667,18.8333 20.5,17.5C 21.1667,17.1667 21.8333,16.8333 22.5,16.5 Z"/></g>
<g><path style="opacity:1" fill="#204a6e" d="M 22.5,16.5 C 23.3957,17.5063 24.0623,17.5063 24.5,16.5C 25.494,17.9989 25.494,19.6656 24.5,21.5C 23.8333,21.5 23.5,21.1667 23.5,20.5C 23.1667,19.1667 22.8333,17.8333 22.5,16.5 Z"/></g>
<g><path style="opacity:1" fill="#1f577f" d="M 24.5,16.5 C 24.8417,15.6618 25.5084,15.3284 26.5,15.5C 26.8333,15.5 27.1667,15.5 27.5,15.5C 28.1667,15.5 28.5,15.8333 28.5,16.5C 27.7659,17.7079 27.4326,19.0413 27.5,20.5C 26.5,20.8333 25.8333,21.5 25.5,22.5C 25.5,22.8333 25.5,23.1667 25.5,23.5C 25.1667,23.5 24.8333,23.5 24.5,23.5C 24.5,22.8333 24.5,22.1667 24.5,21.5C 25.494,19.6656 25.494,17.9989 24.5,16.5 Z"/></g>
<g><path style="opacity:1" fill="#1d4464" d="M 28.5,16.5 C 29.5,17.1667 30.5,17.8333 31.5,18.5C 31.5,19.5 31.5,20.5 31.5,21.5C 30.0413,21.5674 28.7079,21.2341 27.5,20.5C 27.4326,19.0413 27.7659,17.7079 28.5,16.5 Z"/></g>
<g><path style="opacity:1" fill="#1b466b" d="M 5.5,17.5 C 5.58577,18.4959 5.25244,19.3292 4.5,20C 5.09442,20.4643 5.76109,20.631 6.5,20.5C 6.5,21.1667 6.5,21.8333 6.5,22.5C 5.16667,22.1667 3.83333,21.8333 2.5,21.5C 2.55688,20.391 2.89022,19.391 3.5,18.5C 3.84171,17.6618 4.50838,17.3284 5.5,17.5 Z"/></g>
<g><path style="opacity:1" fill="#193d60" d="M 0.5,19.5 C 0.5,18.8333 0.833333,18.5 1.5,18.5C 2.16667,18.5 2.83333,18.5 3.5,18.5C 2.89022,19.391 2.55688,20.391 2.5,21.5C 2.5,22.1667 2.16667,22.5 1.5,22.5C 1.73731,21.209 1.40397,20.209 0.5,19.5 Z"/></g>
<g><path style="opacity:1" fill="#236391" d="M 8.5,17.5 C 9.39105,18.1098 10.391,18.4431 11.5,18.5C 12.4916,18.3284 13.1583,18.6618 13.5,19.5C 12.5084,19.3284 11.8417,19.6618 11.5,20.5C 10.5,19.1667 9.5,19.1667 8.5,20.5C 8.5,19.5 8.5,18.5 8.5,17.5 Z"/></g>
<g><path style="opacity:1" fill="#1d496a" d="M -0.5,19.5 C -0.166667,19.5 0.166667,19.5 0.5,19.5C 1.40397,20.209 1.73731,21.209 1.5,22.5C 1.5,22.8333 1.5,23.1667 1.5,23.5C 0.833333,23.5 0.166667,23.5 -0.5,23.5C -0.5,22.1667 -0.5,20.8333 -0.5,19.5 Z"/></g>
<g><path style="opacity:0.847" fill="#234159" d="M 8.5,20.5 C 8.5,20.8333 8.5,21.1667 8.5,21.5C 7.59603,22.209 7.26269,23.209 7.5,24.5C 7.16667,24.5 6.83333,24.5 6.5,24.5C 6.5,23.8333 6.5,23.1667 6.5,22.5C 6.5,21.8333 6.5,21.1667 6.5,20.5C 6.36899,19.7611 6.53566,19.0944 7,18.5C 7.27842,19.4158 7.77842,20.0825 8.5,20.5 Z"/></g>
<g><path style="opacity:1" fill="#204361" d="M 11.5,20.5 C 11.0825,21.2216 10.4158,21.7216 9.5,22C 10.2524,22.6708 10.5858,23.5041 10.5,24.5C 9.09368,24.0269 8.42702,23.0269 8.5,21.5C 8.5,21.1667 8.5,20.8333 8.5,20.5C 9.5,19.1667 10.5,19.1667 11.5,20.5 Z"/></g>
<g><path style="opacity:1" fill="#275d83" d="M 16.5,19.5 C 17.9063,19.9731 18.573,20.9731 18.5,22.5C 18.1667,23.1667 17.8333,23.8333 17.5,24.5C 16.8999,23.0998 15.8999,22.0998 14.5,21.5C 14.5,21.1667 14.5,20.8333 14.5,20.5C 15.1667,20.1667 15.8333,19.8333 16.5,19.5 Z"/></g>
<g><path style="opacity:1" fill="#225882" d="M 13.5,19.5 C 12.1667,21.5 12.1667,23.5 13.5,25.5C 13.5,26.1667 13.1667,26.5 12.5,26.5C 12.1667,25.5 11.5,24.8333 10.5,24.5C 10.5858,23.5041 10.2524,22.6708 9.5,22C 10.4158,21.7216 11.0825,21.2216 11.5,20.5C 11.8417,19.6618 12.5084,19.3284 13.5,19.5 Z"/></g>
<g><path style="opacity:1" fill="#2173a4" d="M 13.5,19.5 C 14.1667,19.5 14.5,19.8333 14.5,20.5C 14.5,20.8333 14.5,21.1667 14.5,21.5C 13.9569,21.56 13.6236,21.8933 13.5,22.5C 14.1925,23.5178 14.8592,24.5178 15.5,25.5C 14.8333,25.5 14.1667,25.5 13.5,25.5C 12.1667,23.5 12.1667,21.5 13.5,19.5 Z"/></g>
<g><path style="opacity:1" fill="#216c9a" d="M 27.5,20.5 C 28.7079,21.2341 30.0413,21.5674 31.5,21.5C 31.5,22.1667 31.5,22.8333 31.5,23.5C 31.1667,23.5 30.8333,23.5 30.5,23.5C 29.0813,22.5489 27.4147,22.2155 25.5,22.5C 25.8333,21.5 26.5,20.8333 27.5,20.5 Z"/></g>
<g><path style="opacity:1" fill="#246c97" d="M 2.5,21.5 C 3.83333,21.8333 5.16667,22.1667 6.5,22.5C 6.5,23.1667 6.5,23.8333 6.5,24.5C 5.50838,24.3284 4.84171,24.6618 4.5,25.5C 2.97306,25.573 1.97306,24.9063 1.5,23.5C 1.5,23.1667 1.5,22.8333 1.5,22.5C 2.16667,22.5 2.5,22.1667 2.5,21.5 Z"/></g>
<g><path style="opacity:1" fill="#2282b7" d="M 14.5,21.5 C 15.8999,22.0998 16.8999,23.0998 17.5,24.5C 17.1583,25.3382 16.4916,25.6716 15.5,25.5C 14.8592,24.5178 14.1925,23.5178 13.5,22.5C 13.6236,21.8933 13.9569,21.56 14.5,21.5 Z"/></g>
<g><path style="opacity:1" fill="#2387b6" d="M 25.5,23.5 C 25.5,23.1667 25.5,22.8333 25.5,22.5C 27.4147,22.2155 29.0813,22.5489 30.5,23.5C 30.1667,23.5 29.8333,23.5 29.5,23.5C 28.5,24.8333 27.5,24.8333 26.5,23.5C 26.1667,23.5 25.8333,23.5 25.5,23.5 Z"/></g>
<g><path style="opacity:1" fill="#1d4466" d="M -0.5,23.5 C 0.166667,23.5 0.833333,23.5 1.5,23.5C 1.97306,24.9063 2.97306,25.573 4.5,25.5C 4.73731,26.791 4.40397,27.791 3.5,28.5C 2.20498,27.5116 0.871651,26.5116 -0.5,25.5C -0.5,24.8333 -0.5,24.1667 -0.5,23.5 Z"/></g>
<g><path style="opacity:0.969" fill="#22435c" d="M 24.5,23.5 C 24.5,24.1667 24.5,24.8333 24.5,25.5C 23.7978,26.1157 22.7978,26.1157 21.5,25.5C 20.8333,25.5 20.5,25.1667 20.5,24.5C 21.9587,24.5674 23.2921,24.2341 24.5,23.5 Z"/></g>
<g><path style="opacity:1" fill="#1b4166" d="M 24.5,23.5 C 24.8333,23.5 25.1667,23.5 25.5,23.5C 25.8333,23.5 26.1667,23.5 26.5,23.5C 26.8102,25.1436 27.8102,26.1436 29.5,26.5C 29.5,26.8333 29.5,27.1667 29.5,27.5C 28.8333,27.5 28.1667,27.5 27.5,27.5C 26.8333,27.5 26.1667,27.5 25.5,27.5C 25.6716,26.5084 25.3382,25.8417 24.5,25.5C 24.5,24.8333 24.5,24.1667 24.5,23.5 Z"/></g>
<g><path style="opacity:1" fill="#245a80" d="M 26.5,23.5 C 27.5,24.8333 28.5,24.8333 29.5,23.5C 29.5,24.5 29.5,25.5 29.5,26.5C 27.8102,26.1436 26.8102,25.1436 26.5,23.5 Z"/></g>
<g><path style="opacity:1" fill="#1c354e" d="M 29.5,23.5 C 29.8333,23.5 30.1667,23.5 30.5,23.5C 30.8333,23.5 31.1667,23.5 31.5,23.5C 31.5,24.8333 31.5,26.1667 31.5,27.5C 30.8333,27.8333 30.1667,28.1667 29.5,28.5C 29.5,28.1667 29.5,27.8333 29.5,27.5C 29.5,27.1667 29.5,26.8333 29.5,26.5C 29.5,25.5 29.5,24.5 29.5,23.5 Z"/></g>
<g><path style="opacity:1" fill="#216d9f" d="M 17.5,24.5 C 18.5,24.8333 19.1667,25.5 19.5,26.5C 19.5,27.1667 19.5,27.8333 19.5,28.5C 18.8333,28.1667 18.1667,27.8333 17.5,27.5C 16.5,27.1667 15.8333,26.5 15.5,25.5C 16.4916,25.6716 17.1583,25.3382 17.5,24.5 Z"/></g>
<g><path style="opacity:1" fill="#225075" d="M 18.5,22.5 C 19.5,22.8333 20.1667,23.5 20.5,24.5C 20.5,25.1667 20.8333,25.5 21.5,25.5C 21.1583,26.3382 20.4916,26.6716 19.5,26.5C 19.1667,25.5 18.5,24.8333 17.5,24.5C 17.8333,23.8333 18.1667,23.1667 18.5,22.5 Z"/></g>
<g><path style="opacity:1" fill="#1c4062" d="M 6.5,24.5 C 6.83333,24.5 7.16667,24.5 7.5,24.5C 8.16667,24.5 8.5,24.8333 8.5,25.5C 7.19376,26.4674 6.52709,27.8007 6.5,29.5C 5.20895,29.7373 4.20895,29.404 3.5,28.5C 4.40397,27.791 4.73731,26.791 4.5,25.5C 4.84171,24.6618 5.50838,24.3284 6.5,24.5 Z"/></g>
<g><path style="opacity:1" fill="#204a6c" d="M 8.5,25.5 C 8.83333,25.5 9.16667,25.5 9.5,25.5C 9.5,26.8333 9.5,28.1667 9.5,29.5C 9.16667,29.5 8.83333,29.5 8.5,29.5C 7.83333,29.5 7.16667,29.5 6.5,29.5C 6.52709,27.8007 7.19376,26.4674 8.5,25.5 Z"/></g>
<g><path style="opacity:1" fill="#1b3d60" d="M 13.5,25.5 C 14.1667,25.5 14.8333,25.5 15.5,25.5C 15.8333,26.5 16.5,27.1667 17.5,27.5C 17.5,28.1667 17.5,28.8333 17.5,29.5C 16.8333,29.5 16.1667,29.5 15.5,29.5C 14.1667,28.8333 13.1667,27.8333 12.5,26.5C 13.1667,26.5 13.5,26.1667 13.5,25.5 Z"/></g>
<g><path style="opacity:0.851" fill="#253e52" d="M 10.5,24.5 C 11.5,24.8333 12.1667,25.5 12.5,26.5C 11.7281,27.6935 10.7281,28.6935 9.5,29.5C 9.5,28.1667 9.5,26.8333 9.5,25.5C 10.1667,25.5 10.5,25.1667 10.5,24.5 Z"/></g>
<g><path style="opacity:1" fill="#235b82" d="M 21.5,25.5 C 22.7978,26.1157 23.7978,26.1157 24.5,25.5C 25.3382,25.8417 25.6716,26.5084 25.5,27.5C 24.5084,27.3284 23.8417,27.6618 23.5,28.5C 22.0755,26.9689 21.4088,27.3023 21.5,29.5C 20.8333,29.1667 20.1667,28.8333 19.5,28.5C 19.5,27.8333 19.5,27.1667 19.5,26.5C 20.4916,26.6716 21.1583,26.3382 21.5,25.5 Z"/></g>
<g><path style="opacity:0.839" fill="#20394d" d="M -0.5,25.5 C 0.871651,26.5116 2.20498,27.5116 3.5,28.5C 4.20895,29.404 5.20895,29.7373 6.5,29.5C 7.16667,29.5 7.83333,29.5 8.5,29.5C 5.09907,31.096 2.09907,30.4293 -0.5,27.5C -0.5,26.8333 -0.5,26.1667 -0.5,25.5 Z"/></g>
<g><path style="opacity:0.918" fill="#244d69" d="M 27.5,27.5 C 28.1667,27.5 28.8333,27.5 29.5,27.5C 29.5,27.8333 29.5,28.1667 29.5,28.5C 29.0269,29.9063 28.0269,30.573 26.5,30.5C 26.3893,29.8826 26.056,29.3826 25.5,29C 26.4158,28.7216 27.0825,28.2216 27.5,27.5 Z"/></g>
<g><path style="opacity:0.886" fill="#1f374b" d="M 15.5,29.5 C 16.1667,29.5 16.8333,29.5 17.5,29.5C 18.391,30.1098 19.391,30.4431 20.5,30.5C 20.5,30.8333 20.5,31.1667 20.5,31.5C 19.5,31.5 18.5,31.5 17.5,31.5C 16.8333,30.8333 16.1667,30.1667 15.5,29.5 Z"/></g>
<g><path style="opacity:1" fill="#1b456b" d="M 17.5,27.5 C 18.1667,27.8333 18.8333,28.1667 19.5,28.5C 20.1667,28.8333 20.8333,29.1667 21.5,29.5C 21.5,29.8333 21.5,30.1667 21.5,30.5C 21.1667,30.5 20.8333,30.5 20.5,30.5C 19.391,30.4431 18.391,30.1098 17.5,29.5C 17.5,28.8333 17.5,28.1667 17.5,27.5 Z"/></g>
<g><path style="opacity:1" fill="#1a4266" d="M 23.5,28.5 C 23.5,29.8333 22.8333,30.5 21.5,30.5C 21.5,30.1667 21.5,29.8333 21.5,29.5C 21.4088,27.3023 22.0755,26.9689 23.5,28.5 Z"/></g>
<g><path style="opacity:1" fill="#285272" d="M 25.5,27.5 C 26.1667,27.5 26.8333,27.5 27.5,27.5C 27.0825,28.2216 26.4158,28.7216 25.5,29C 26.056,29.3826 26.3893,29.8826 26.5,30.5C 26.5,30.8333 26.5,31.1667 26.5,31.5C 24.5,31.5 22.5,31.5 20.5,31.5C 20.5,31.1667 20.5,30.8333 20.5,30.5C 20.8333,30.5 21.1667,30.5 21.5,30.5C 22.8333,30.5 23.5,29.8333 23.5,28.5C 23.8417,27.6618 24.5084,27.3284 25.5,27.5 Z"/></g>
</svg>
