<?xml version="1.0" encoding="UTF-8"?>
<svg version="1.1" xmlns="http://www.w3.org/2000/svg" width="128" height="128">
<path d="M0 0 C6.32298533 3.64113184 11.17559742 8.72371514 14.1875 15.375 C15.59352544 25.74443762 14.88363779 33.77967005 9.6875 43.0625 C8.12066572 45.08244582 6.69361599 46.45760721 4.6875 48.0625 C1.10064721 46.2690736 0.52539479 41.66021304 -0.80078125 38.04296875 C-2.5210739 34.65128066 -4.12964181 33.10653737 -7.3125 31.0625 C-11.08663737 30.59900945 -13.33758273 30.52372993 -16.6875 32.375 C-20.07485105 35.89263378 -19.63393996 40.32599314 -19.609375 44.92578125 C-19.14841465 49.79619126 -17.9159522 57.4590478 -14.3125 61.0625 C-10.36853608 60.04438059 -6.43393499 58.99364949 -2.5 57.9375 C-1.39978516 57.65390625 -0.29957031 57.3703125 0.83398438 57.078125 C10.65963353 54.41157715 21.01194747 51.0057949 26.6875 42.0625 C28.17622464 38.77941851 29.48549694 35.46034106 30.6875 32.0625 C32.0075 32.0625 33.3275 32.0625 34.6875 32.0625 C37.03586378 38.481361 37.82464667 44.23514545 37.41845703 51.06225586 C36.9329112 57.36838583 36.9329112 57.36838583 39.03125 63.1171875 C40.79577617 64.53232431 40.79577617 64.53232431 42.7421875 65.72265625 C46.45139106 68.27738882 48.49223284 72.21080398 50.6875 76.0625 C51.03039062 76.65417969 51.37328125 77.24585937 51.7265625 77.85546875 C55.18949754 85.18588731 55.17413222 95.75746086 52.5625 103.3203125 C51.38326705 105.67207821 50.1555695 107.88136817 48.6875 110.0625 C48.0275 110.0625 47.3675 110.0625 46.6875 110.0625 C46.54634766 110.94421875 46.54634766 110.94421875 46.40234375 111.84375 C45.02553861 116.11711239 41.25725732 118.5584288 37.6875 121.0625 C26.87460578 126.46086573 15.2971851 128.12258089 3.5625 124.5 C-14.89128898 117.38176172 -29.1390217 103.50142194 -38.3125 86.0625 C-39.0390625 83.66796875 -39.0390625 83.66796875 -39.3125 82.0625 C-39.9725 82.0625 -40.6325 82.0625 -41.3125 82.0625 C-41.8737302 83.78541637 -42.41072933 85.51623739 -42.9375 87.25 C-43.23914063 88.21292969 -43.54078125 89.17585938 -43.8515625 90.16796875 C-44.3914284 93.55814363 -43.94986805 95.08033437 -42.3125 98.0625 C-38.24022297 101.43951022 -34.20499449 102.87379119 -29.16796875 104.15625 C-27.3125 105.0625 -27.3125 105.0625 -26.375 106.94140625 C-26.3125 109.0625 -26.3125 109.0625 -27.39453125 110.80859375 C-33.53984847 116.81519049 -40.01479722 121.22773305 -48.8125 121.6875 C-56.2444385 121.29855838 -62.57323205 118.28407538 -67.6875 112.875 C-73.38526296 105.38049929 -75.43285479 97.37544918 -74.3125 88.0625 C-72.86295247 80.80181995 -68.39130351 74.99890004 -62.4296875 70.70703125 C-57.2954824 67.82813487 -52.12520979 67.30072581 -46.3125 67.0625 C-46.46332031 66.39089844 -46.61414063 65.71929687 -46.76953125 65.02734375 C-49.99402059 47.42024008 -48.15504093 29.54329329 -38.4375 14.1875 C-29.20640928 1.39517631 -15.91347787 -7.01561928 0 0 Z M-12.3125 67.0625 C-10.95139515 71.97140274 -8.73824487 75.74869087 -5.75 79.8125 C-5.30817383 80.42085693 -4.86634766 81.02921387 -4.41113281 81.65600586 C1.17356375 89.2308236 7.20469961 96.3064997 14.6875 102.0625 C21.35999987 99.37562056 21.35999987 99.37562056 25.6875 94.0625 C26.46787375 89.99972942 26.4853827 86.59794438 24.55078125 82.875 C18.55676477 74.56833149 11.13038118 69.36792037 1.1015625 67.3359375 C-5.6705758 66.06905071 -5.6705758 66.06905071 -12.3125 67.0625 Z " fill="#1F5077" transform="translate(74.3125,1.9375)"/>
<path d="M0 0 C2 1 2 1 3 2 C3 1.34 3 0.68 3 0 C5.38564077 0.57584432 7.66682784 1.22227595 10 2 C10 2.66 10 3.32 10 4 C11.32 4.33 12.64 4.66 14 5 C13.175 5.7425 12.35 6.485 11.5 7.25 C8.55155147 9.87387385 8.55155147 9.87387385 9 14 C8.34 14 7.68 14 7 14 C6.4387698 15.72291637 5.90177067 17.45373739 5.375 19.1875 C5.07335937 20.15042969 4.77171875 21.11335938 4.4609375 22.10546875 C3.9210716 25.49564363 4.36263195 27.01783437 6 30 C10.07227703 33.37701022 14.10750551 34.81129119 19.14453125 36.09375 C21 37 21 37 21.9375 38.87890625 C22 41 22 41 20.91796875 42.74609375 C14.77265153 48.75269049 8.29770278 53.16523305 -0.5 53.625 C-7.9319385 53.23605838 -14.26073205 50.22157538 -19.375 44.8125 C-25.07276296 37.31799929 -27.12035479 29.31294918 -26 20 C-24.71869252 13.58202235 -21.05541344 8.13718528 -16 4 C-13.56640625 3.34765625 -13.56640625 3.34765625 -11 3 C-8.66116077 2.44112843 -6.32368662 1.87774495 -3.98828125 1.3046875 C-2 1 -2 1 0 2 C0 1.34 0 0.68 0 0 Z " fill="#1B4971" transform="translate(26,70)"/>
<path d="M0 0 C0.33 0 0.66 0 1 0 C1.14695312 0.87398437 1.14695312 0.87398437 1.296875 1.765625 C2.9380733 13.18752189 2.9380733 13.18752189 8 23 C9.11242065 22.6740686 9.11242065 22.6740686 10.24731445 22.34155273 C13.59986339 21.36465628 16.95606037 20.40093948 20.3125 19.4375 C21.47974609 19.09525391 22.64699219 18.75300781 23.84960938 18.40039062 C25.52700195 17.92182617 25.52700195 17.92182617 27.23828125 17.43359375 C28.26993408 17.13509521 29.30158691 16.83659668 30.36450195 16.52905273 C33 16 33 16 36 17 C36.495 17.99 36.495 17.99 37 19 C35.72125 19.144375 34.4425 19.28875 33.125 19.4375 C30.74307106 19.70642746 29.15547309 19.92226346 27 21 C28.32 21 29.64 21 31 21 C31 21.66 31 22.32 31 23 C30.34 23 29.68 23 29 23 C28.67 24.98 28.34 26.96 28 29 C22.06 29 16.12 29 10 29 C14.7992516 37.57738584 19.95467989 45.2685702 26 53 C24.515 53.495 24.515 53.495 23 54 C23.66 54.33 24.32 54.66 25 55 C25 56.32 25 57.64 25 59 C26.485 59.495 26.485 59.495 28 60 C26.68 60 25.36 60 24 60 C22.95374591 58.70264493 21.95298777 57.36733028 21 56 C20.01 55.67 19.02 55.34 18 55 C17.58219121 57.37305578 17.58219121 57.37305578 18 60 C20.30480288 61.69972025 20.30480288 61.69972025 23 63 C24.8125 64.5625 24.8125 64.5625 26 66 C26 66.66 26 67.32 26 68 C27.485 68.495 27.485 68.495 29 69 C29 69.66 29 70.32 29 71 C30.485 71.495 30.485 71.495 32 72 C30.1875 74.5 30.1875 74.5 28 77 C27.01 77 26.02 77 25 77 C25 76.34 25 75.68 25 75 C24.34 75 23.68 75 23 75 C23 74.01 23 73.02 23 72 C21.68 71.67 20.36 71.34 19 71 C19 70.34 19 69.68 19 69 C18.360625 68.731875 17.72125 68.46375 17.0625 68.1875 C15 67 15 67 14 64 C12.35 63.67 10.7 63.34 9 63 C8.855625 62.401875 8.71125 61.80375 8.5625 61.1875 C8.1127561 59.43849596 7.57107659 57.71322977 7 56 C6.01 56 5.02 56 4 56 C4.474375 56.4125 4.94875 56.825 5.4375 57.25 C7.16266518 59.182185 7.56584875 60.48192275 8 63 C4.22730267 61.74243422 3.11611635 60.32532569 1 57 C1.07215316 53.96956707 1.55955931 52.55533826 3.4375 50.1875 C5 49 5 49 7 49 C7 48.34 7 47.68 7 47 C5.35 47.99 3.7 48.98 2 50 C1.67 49.01 1.34 48.02 1 47 C0.34 47 -0.32 47 -1 47 C-2.98 43.37 -4.96 39.74 -7 36 C-11.23578792 38.10390941 -11.23578792 38.10390941 -13 42 C-13.99 42 -14.98 42 -16 42 C-16.33 42.66 -16.66 43.32 -17 44 C-17.93423645 40.98968256 -18.04449911 40.13349732 -17 37 C-14.9375 35.8125 -14.9375 35.8125 -13 35 C-14.485 34.505 -14.485 34.505 -16 34 C-16 33.34 -16 32.68 -16 32 C-17.485 32.495 -17.485 32.495 -19 33 C-19.33 32.34 -19.66 31.68 -20 31 C-20.99 30.67 -21.98 30.34 -23 30 C-22.67 30.99 -22.34 31.98 -22 33 C-22.99 33.495 -22.99 33.495 -24 34 C-24.66 32.68 -25.32 31.36 -26 30 C-26 30.66 -26 31.32 -26 32 C-27.19625 32.12375 -28.3925 32.2475 -29.625 32.375 C-33.27596813 32.82325054 -36.54524899 33.70446837 -40 35 C-40 34.34 -40 33.68 -40 33 C-29.62642369 28.40774487 -29.62642369 28.40774487 -24 29 C-24.185625 28.46375 -24.37125 27.9275 -24.5625 27.375 C-25.11419324 24.38009386 -24.60597444 21.96254171 -24 19 C-23.67 19 -23.34 19 -23 19 C-22.67 15.7 -22.34 12.4 -22 9 C-21.67 9 -21.34 9 -21 9 C-21 14.94 -21 20.88 -21 27 C-19.35 27 -17.7 27 -16 27 C-16 23.37 -16 19.74 -16 16 C-16.66 16 -17.32 16 -18 16 C-18 17.32 -18 18.64 -18 20 C-18.66 20 -19.32 20 -20 20 C-20 17.36 -20 14.72 -20 12 C-19.34 12 -18.68 12 -18 12 C-18 11.01 -18 10.02 -18 9 C-18.66 9 -19.32 9 -20 9 C-20 8.34 -20 7.68 -20 7 C-19.01 6.67 -18.02 6.34 -17 6 C-17 8.64 -17 11.28 -17 14 C-16.34 14 -15.68 14 -15 14 C-15 17.96 -15 21.92 -15 26 C-13.35 26 -11.7 26 -10 26 C-10 24.02 -10 22.04 -10 20 C-9.01 20 -8.02 20 -7 20 C-7 18.35 -7 16.7 -7 15 C-8.65 15.66 -10.3 16.32 -12 17 C-12 16.34 -12 15.68 -12 15 C-11.34 15 -10.68 15 -10 15 C-10 14.34 -10 13.68 -10 13 C-9.67 12.67 -9.34 12.34 -9 12 C-10.98 11.01 -12.96 10.02 -15 9 C-15 8.34 -15 7.68 -15 7 C-13.68 7 -12.36 7 -11 7 C-10.67 7.66 -10.34 8.32 -10 9 C-9.67 8.01 -9.34 7.02 -9 6 C-8.34 6 -7.68 6 -7 6 C-5.16801331 9.12813537 -4.75198077 11.39085291 -4.8125 15 C-4.81894531 15.845625 -4.82539062 16.69125 -4.83203125 17.5625 C-4.98845924 19.83252477 -5.36910186 21.81961604 -6 24 C-5.34 24 -4.68 24 -4 24 C-4.01160156 23.27554688 -4.02320313 22.55109375 -4.03515625 21.8046875 C-4.08231311 16.75216677 -4.07377564 11.96621233 -3 7 C-2.34 7.66 -1.68 8.32 -1 9 C-0.67 6.03 -0.34 3.06 0 0 Z " fill="#1B5181" transform="translate(52,40)"/>
<path d="M0 0 C0.99 0.33 1.98 0.66 3 1 C6.21994814 8.51321233 6.13758542 16.41491164 6.0625 24.4375 C6.05798828 25.35982422 6.05347656 26.28214844 6.04882812 27.23242188 C6.03713938 29.48835048 6.02075455 31.74413967 6 34 C6.99 34.495 6.99 34.495 8 35 C8 36.65 8 38.3 8 40 C7.67 39.34 7.34 38.68 7 38 C6.01 37.67 5.02 37.34 4 37 C2.89155081 40.32534757 3.15545644 42.62182575 4 46 C3.01 45.67 2.02 45.34 1 45 C0.01 46.98 -0.98 48.96 -2 51 C-0.515 51.495 -0.515 51.495 1 52 C1 52.99 1 53.98 1 55 C1.99 55 2.98 55 4 55 C3.34 53.35 2.68 51.7 2 50 C2.66 49.34 3.32 48.68 4 48 C4.66 48.99 5.32 49.98 6 51 C7.98 50.505 7.98 50.505 10 50 C10.66 47.69 11.32 45.38 12 43 C12.33 43 12.66 43 13 43 C13.125 49.75 13.125 49.75 12 52 C12.27942455 53.67654729 12.60828247 55.34608154 13 57 C10.03 56.67 7.06 56.34 4 56 C4.33 56.99 4.66 57.98 5 59 C5.33 58.67 5.66 58.34 6 58 C8.35313555 57.92728259 10.70833668 57.91629132 13.0625 57.9375 C14.35285156 57.94652344 15.64320312 57.95554688 16.97265625 57.96484375 C17.97167969 57.97644531 18.97070312 57.98804688 20 58 C20 59.65 20 61.3 20 63 C19.21625 62.814375 18.4325 62.62875 17.625 62.4375 C15.02910225 61.74037734 15.02910225 61.74037734 13 63 C10.44842345 63.0716735 7.92527029 63.09308442 5.375 63.0625 C4.66859375 63.05798828 3.9621875 63.05347656 3.234375 63.04882812 C1.48954725 63.03703875 -0.255237 63.01910324 -2 63 C-2 61.68 -2 60.36 -2 59 C-2.66 59 -3.32 59 -4 59 C-3.67 60.98 -3.34 62.96 -3 65 C-3.99 65 -4.98 65 -6 65 C-6.00386719 63.948125 -6.00386719 63.948125 -6.0078125 62.875 C-6.36684958 54.06662369 -9.1273806 49.76795401 -15.3125 43.75 C-20.38403254 40.44760672 -25.94769686 37.78094234 -32 37 C-32 36.67 -32 36.34 -32 36 C-30.02 36 -28.04 36 -26 36 C-25.505 33.03 -25.505 33.03 -25 30 C-24.34 30 -23.68 30 -23 30 C-23 29.34 -23 28.68 -23 28 C-25.31 28.33 -27.62 28.66 -30 29 C-27.6870518 26.6870518 -26.52095125 26.50419025 -23.375 25.875 C-22.55773437 25.70742188 -21.74046875 25.53984375 -20.8984375 25.3671875 C-20.27195312 25.24601562 -19.64546875 25.12484375 -19 25 C-19 24.01 -19 23.02 -19 22 C-16.953125 20.5703125 -16.953125 20.5703125 -14.25 19.125 C-7.081747 14.9855863 -4.6636411 10.73554335 -1.83203125 3.109375 C-1 1 -1 1 0 0 Z " fill="#286C95" transform="translate(106,33)"/>
<path d="M0 0 C8.82226618 -0.62226015 15.70921708 -0.35319836 23 5 C30.18220128 11.45794569 32.92441163 17.05145009 33.4375 26.6875 C33.29952676 34.53226407 30.80118118 42.55612337 25.1875 48.25 C24.465625 48.8275 23.74375 49.405 23 50 C20.20918661 48.6045933 19.96096994 46.98580959 18.8125 44.125 C18.44769531 43.24070313 18.08289063 42.35640625 17.70703125 41.4453125 C17 39 17 39 18 36 C18.33 35.67 18.66 35.34 19 35 C19.33 34.01 19.66 33.02 20 32 C21.9375 32.3125 21.9375 32.3125 24 33 C25.231394 36.69418201 24.64432764 39.2056261 24 43 C24.99 42.67 25.98 42.34 27 42 C27.10540926 39.78918149 27.10540926 39.78918149 26 37 C25.96079185 35.00038436 25.95556653 32.99950636 26 31 C24.68 31 23.36 31 22 31 C22 29.35 22 27.7 22 26 C23.65 26.33 25.3 26.66 27 27 C27 29.97 27 32.94 27 36 C27.66 36 28.32 36 29 36 C28.98674919 32.89931029 28.80746497 30.00211335 28 27 C25.03367128 24.42058373 22.70371669 23.23457223 19 22 C19 21.34 19 20.68 19 20 C18.34 20 17.68 20 17 20 C17 20.66 17 21.32 17 22 C10.4 22 3.8 22 -3 22 C-3 20.68 -3 19.36 -3 18 C-3.66 17.67 -4.32 17.34 -5 17 C-5 18.65 -5 20.3 -5 22 C-5.66 22 -6.32 22 -7 22 C-7 20.35 -7 18.7 -7 17 C-7.66 17 -8.32 17 -9 17 C-9 16.34 -9 15.68 -9 15 C-5.37 15 -1.74 15 2 15 C2.33 15.66 2.66 16.32 3 17 C3.33 16.34 3.66 15.68 4 15 C5.65 15 7.3 15 9 15 C6.69 14.67 4.38 14.34 2 14 C2.33 12.68 2.66 11.36 3 10 C4.32 10 5.64 10 7 10 C6.67 7.69 6.34 5.38 6 3 C6.33 3.66 6.66 4.32 7 5 C7.66 5 8.32 5 9 5 C9.33 3.68 9.66 2.36 10 1 C4.555 1.495 4.555 1.495 -1 2 C-0.67 1.34 -0.34 0.68 0 0 Z " fill="#2A5D7B" transform="translate(56,0)"/>
<path d="M0 0 C-0.375 1.9375 -0.375 1.9375 -1 4 C-1.66 4.33 -2.32 4.66 -3 5 C-3 6.32 -3 7.64 -3 9 C-4.32 9 -5.64 9 -7 9 C-7.33 10.32 -7.66 11.64 -8 13 C-5.36 13 -2.72 13 0 13 C-0.33 13.66 -0.66 14.32 -1 15 C-3.475 14.505 -3.475 14.505 -6 14 C-6.33 15.32 -6.66 16.64 -7 18 C-7.495 16.02 -7.495 16.02 -8 14 C-8.7734375 14.2784375 -8.7734375 14.2784375 -9.5625 14.5625 C-12.85908739 15.15419517 -15.72245735 14.567267 -19 14 C-18.67 14.66 -18.34 15.32 -18 16 C-17.960008 17.99960012 -17.95653201 20.00047242 -18 22 C-18.66 22 -19.32 22 -20 22 C-20.33 22.99 -20.66 23.98 -21 25 C-21.99 25.66 -22.98 26.32 -24 27 C-24.73606499 30.56769552 -24.73606499 30.56769552 -25 34 C-25.66 34 -26.32 34 -27 34 C-27.66 33.01 -28.32 32.02 -29 31 C-29.04898438 31.66386719 -29.09796875 32.32773437 -29.1484375 33.01171875 C-29.89103691 41.78207381 -29.89103691 41.78207381 -32 46 C-32.66 46 -33.32 46 -34 46 C-34 46.66 -34 47.32 -34 48 C-33.34 48 -32.68 48 -32 48 C-32 48.99 -32 49.98 -32 51 C-32.66 51 -33.32 51 -34 51 C-34 53.64 -34 56.28 -34 59 C-33.34 59 -32.68 59 -32 59 C-32 57.68 -32 56.36 -32 55 C-31.34 55 -30.68 55 -30 55 C-30 58.63 -30 62.26 -30 66 C-31.65 66 -33.3 66 -35 66 C-35.66 65.01 -36.32 64.02 -37 63 C-37.66 63 -38.32 63 -39 63 C-40.80202201 44.24923043 -39.21555047 26.29937817 -27 11 C-19.09007621 1.61629324 -12.1938311 -0.73162987 0 0 Z " fill="#1A3F65" transform="translate(66,1)"/>
<path d="M0 0 C0.99 0.33 1.98 0.66 3 1 C3.99 1 4.98 1 6 1 C6 1.66 6 2.32 6 3 C10.29 3.66 14.58 4.32 19 5 C19 4.34 19 3.68 19 3 C20.32 3 21.64 3 23 3 C23 5.31 23 7.62 23 10 C22.01 9.34 21.02 8.68 20 8 C20.33 8.99 20.66 9.98 21 11 C22.32 10.67 23.64 10.34 25 10 C25.33 7.69 25.66 5.38 26 3 C26.33 3 26.66 3 27 3 C27.33 4.65 27.66 6.3 28 8 C32.83054627 8.12257111 32.83054627 8.12257111 37.5625 7.3125 C41.04081488 6.8665622 43.03869524 8.27831119 46 10 C45.20512767 15.73077307 40.32815598 18.66901721 36 22 C30.21367137 25.42893548 24.575513 25.9483913 18 25 C11.12701214 22.77812893 5.89332981 19.11225554 2 13 C-0.02647862 8.5785921 -0.19332345 4.83308613 0 0 Z " fill="#1B4062" transform="translate(2,98)"/>
<path d="M0 0 C0.99 0.33 1.98 0.66 3 1 C6.01518303 8.03542706 6.14632524 15.41257264 6.0625 22.9375 C6.05798828 23.71673828 6.05347656 24.49597656 6.04882812 25.29882812 C6.03716908 27.19925268 6.01923877 29.09963706 6 31 C4.68 30.67 3.36 30.34 2 30 C2 29.34 2 28.68 2 28 C1.154375 28.185625 0.30875 28.37125 -0.5625 28.5625 C-4.2773282 29.03529632 -7.32974273 28.66064631 -11 28 C-11 27.67 -11 27.34 -11 27 C-9.35 27 -7.7 27 -6 27 C-6 26.01 -6 25.02 -6 24 C-7.65 24 -9.3 24 -11 24 C-11.77772405 26.33317216 -12.42415568 28.61435923 -13 31 C-13.33 30.01 -13.66 29.02 -14 28 C-16.64 27.67 -19.28 27.34 -22 27 C-21.67 29.31 -21.34 31.62 -21 34 C-18.69 33.34 -16.38 32.68 -14 32 C-11.58314288 36.22949995 -10.65166856 39.12335991 -11 44 C-13.81526309 42.76128424 -16.03622433 41.19996559 -18.4375 39.3125 C-21.19856872 37.22277429 -21.19856872 37.22277429 -24.625 37.25 C-25.40875 37.4975 -26.1925 37.745 -27 38 C-29.8125 37.5625 -29.8125 37.5625 -32 37 C-32 36.67 -32 36.34 -32 36 C-30.02 36 -28.04 36 -26 36 C-25.505 33.03 -25.505 33.03 -25 30 C-24.34 30 -23.68 30 -23 30 C-23 29.34 -23 28.68 -23 28 C-25.31 28.33 -27.62 28.66 -30 29 C-27.6870518 26.6870518 -26.52095125 26.50419025 -23.375 25.875 C-22.55773437 25.70742188 -21.74046875 25.53984375 -20.8984375 25.3671875 C-20.27195312 25.24601562 -19.64546875 25.12484375 -19 25 C-19 24.01 -19 23.02 -19 22 C-16.953125 20.5703125 -16.953125 20.5703125 -14.25 19.125 C-7.081747 14.9855863 -4.6636411 10.73554335 -1.83203125 3.109375 C-1 1 -1 1 0 0 Z " fill="#22597F" transform="translate(106,33)"/>
<path d="M0 0 C0 2.64 0 5.28 0 8 C0.66 8 1.32 8 2 8 C2 11.96 2 15.92 2 20 C3.65 20 5.3 20 7 20 C7 18.02 7 16.04 7 14 C7.99 14 8.98 14 10 14 C10 12.35 10 10.7 10 9 C8.35 9.66 6.7 10.32 5 11 C5 10.34 5 9.68 5 9 C5.66 9 6.32 9 7 9 C7 8.34 7 7.68 7 7 C7.33 6.67 7.66 6.34 8 6 C6.02 5.01 4.04 4.02 2 3 C2 2.34 2 1.68 2 1 C3.32 1 4.64 1 6 1 C6.33 1.66 6.66 2.32 7 3 C7.33 2.01 7.66 1.02 8 0 C8.66 0 9.32 0 10 0 C13.50454574 6.01175041 12.38670401 13.41315598 11 20 C13.31 20 15.62 20 18 20 C18 18.02 18 16.04 18 14 C18.33 14 18.66 14 19 14 C19 15.98 19 17.96 19 20 C19.556875 19.814375 20.11375 19.62875 20.6875 19.4375 C23.399133 18.92448835 25.34371039 19.3359276 28 20 C27.01 20.33 26.02 20.66 25 21 C25 21.66 25 22.32 25 23 C23.1746875 23.185625 23.1746875 23.185625 21.3125 23.375 C17.93520941 23.78891306 15.10243305 24.54573451 12 26 C12.34786708 27.97536745 12.34786708 27.97536745 13 30 C13.66 30.33 14.32 30.66 15 31 C15.33 30.34 15.66 29.68 16 29 C16.66 29.33 17.32 29.66 18 30 C18 30.66 18 31.32 18 32 C17.01 32 16.02 32 15 32 C15 32.66 15 33.32 15 34 C15.99 34.33 16.98 34.66 18 35 C14.75791433 34.64950425 13.38472296 34.43778819 11.1875 31.9375 C10.795625 31.298125 10.40375 30.65875 10 30 C7.37812506 31.04874998 6.20628639 31.64931313 4.75 34.125 C4.5025 34.74375 4.255 35.3625 4 36 C3.01 36 2.02 36 1 36 C0.67 36.66 0.34 37.32 0 38 C-0.93423645 34.98968256 -1.04449911 34.13349732 0 31 C2.0625 29.8125 2.0625 29.8125 4 29 C3.01 28.67 2.02 28.34 1 28 C1 27.34 1 26.68 1 26 C0.01 26.33 -0.98 26.66 -2 27 C-2.33 26.34 -2.66 25.68 -3 25 C-3.99 24.67 -4.98 24.34 -6 24 C-5.67 24.99 -5.34 25.98 -5 27 C-5.66 27.33 -6.32 27.66 -7 28 C-7.66 26.68 -8.32 25.36 -9 24 C-9 24.66 -9 25.32 -9 26 C-10.19625 26.12375 -11.3925 26.2475 -12.625 26.375 C-16.27596813 26.82325054 -19.54524899 27.70446837 -23 29 C-23 28.34 -23 27.68 -23 27 C-12.62642369 22.40774487 -12.62642369 22.40774487 -7 23 C-7.185625 22.46375 -7.37125 21.9275 -7.5625 21.375 C-8.11419324 18.38009386 -7.60597444 15.96254171 -7 13 C-6.67 13 -6.34 13 -6 13 C-5.67 9.7 -5.34 6.4 -5 3 C-4.67 3 -4.34 3 -4 3 C-4 8.94 -4 14.88 -4 21 C-2.35 21 -0.7 21 1 21 C1 17.37 1 13.74 1 10 C0.34 10 -0.32 10 -1 10 C-1 11.32 -1 12.64 -1 14 C-1.66 14 -2.32 14 -3 14 C-3 11.36 -3 8.72 -3 6 C-2.34 6 -1.68 6 -1 6 C-1 5.01 -1 4.02 -1 3 C-1.66 3 -2.32 3 -3 3 C-3 2.34 -3 1.68 -3 1 C-1 0 -1 0 0 0 Z " fill="#2B8DB9" transform="translate(35,46)"/>
<path d="M0 0 C3.13807951 1.08209638 3.96907788 1.94731786 5.6875 4.875 C6.70084525 7.28772678 7.50840885 9.44372603 8 12 C8.66 12 9.32 12 10 12 C10.66 12.66 11.32 13.32 12 14 C13.32 13.34 14.64 12.68 16 12 C16 12.66 16 13.32 16 14 C15.154375 14.78375 14.30875 15.5675 13.4375 16.375 C10.81825236 18.64133143 10.81825236 18.64133143 10.875 20.9375 C12.21790051 23.39948427 14.00441178 25.31514241 15.85546875 27.40625 C17.56403249 29.78541042 17.79507005 32.13098071 18 35 C17.01 34.34 16.02 33.68 15 33 C14.01 33 13.02 33 12 33 C14.51070754 36.66887552 14.51070754 36.66887552 18.25 38.8125 C19.11625 38.9053125 19.11625 38.9053125 20 39 C20 39.99 20 40.98 20 42 C20.66 42.33 21.32 42.66 22 43 C16.37159503 42.77443415 13.45853947 39.10491975 9.75 35.3125 C9.0904834 34.64565186 8.4309668 33.97880371 7.75146484 33.29174805 C1.73706648 27.03798164 -6.94644027 17.96558669 -8 9 C-6.8125 7.5625 -6.8125 7.5625 -5 6 C-3.65705519 4.34106818 -2.32255312 2.67523395 -1 1 C-0.67 0.67 -0.34 0.34 0 0 Z " fill="#285B7A" transform="translate(43,75)"/>
<path d="M0 0 C1 1 2 2 3 3 C3.763125 3.7425 4.52625 4.485 5.3125 5.25 C6.199375 6.1575 7.08625 7.065 8 8 C8.5465625 8.55042969 9.093125 9.10085937 9.65625 9.66796875 C13.40090089 13.66873963 14.12663759 15.42794619 14 21 C16.28643812 22.77195874 16.28643812 22.77195874 19 24 C20.8125 25.5625 20.8125 25.5625 22 27 C22 27.66 22 28.32 22 29 C22.99 29.33 23.98 29.66 25 30 C25 30.66 25 31.32 25 32 C26.485 32.495 26.485 32.495 28 33 C26.1875 35.5 26.1875 35.5 24 38 C23.01 38 22.02 38 21 38 C21 37.34 21 36.68 21 36 C20.34 36 19.68 36 19 36 C19 35.01 19 34.02 19 33 C17.68 32.67 16.36 32.34 15 32 C15 31.34 15 30.68 15 30 C14.360625 29.731875 13.72125 29.46375 13.0625 29.1875 C11 28 11 28 10 25 C8.35 24.67 6.7 24.34 5 24 C4.855625 23.401875 4.71125 22.80375 4.5625 22.1875 C4.1127561 20.43849596 3.57107659 18.71322977 3 17 C2.01 17 1.02 17 0 17 C0.474375 17.4125 0.94875 17.825 1.4375 18.25 C3.16266518 20.182185 3.56584875 21.48192275 4 24 C0.22730267 22.74243422 -0.88388365 21.32532569 -3 18 C-2.92784684 14.96956707 -2.44044069 13.55533826 -0.5625 11.1875 C1 10 1 10 3 10 C3 9.34 3 8.68 3 8 C0.525 9.485 0.525 9.485 -2 11 C-2.33 10.01 -2.66 9.02 -3 8 C-3.66 8 -4.32 8 -5 8 C-5 6.68 -5 5.36 -5 4 C-4.01 4.33 -3.02 4.66 -2 5 C-2 5.66 -2 6.32 -2 7 C-1.34 7 -0.68 7 0 7 C0 4.69 0 2.38 0 0 Z " fill="#2683B6" transform="translate(56,79)"/>
<path d="M0 0 C0.33 0 0.66 0 1 0 C1.36412551 7.64663579 0.61805945 13.97221624 -3.625 20.5 C-7.28885513 22.81401376 -10.70059204 22.74709365 -15 23 C-14.67 19.7 -14.34 16.4 -14 13 C-13.34 13 -12.68 13 -12 13 C-12 14.65 -12 16.3 -12 18 C-11.67 16.02 -11.34 14.04 -11 12 C-10.67 12 -10.34 12 -10 12 C-10 13.65 -10 15.3 -10 17 C-8.68 17.33 -7.36 17.66 -6 18 C-6 15.69 -6 13.38 -6 11 C-5 11 -4 11 -3 11 C-3.33 9.68 -3.66 8.36 -4 7 C-4 7.99 -4 8.98 -4 10 C-5.32 9.67 -6.64 9.34 -8 9 C-8 8.34 -8 7.68 -8 7 C-10.64 7 -13.28 7 -16 7 C-16.82622671 12.60563042 -17.06795656 17.42289352 -16 23 C-18.64 22.67 -21.28 22.34 -24 22 C-24.66 20.35 -25.32 18.7 -26 17 C-24.68 17 -23.36 17 -22 17 C-22 16.01 -22 15.02 -22 14 C-22.969375 14 -23.93875 14 -24.9375 14 C-26.29166667 14 -27.64583333 14 -29 14 C-29 14.33 -29 14.66 -29 15 C-28.34 15 -27.68 15 -27 15 C-27 15.66 -27 16.32 -27 17 C-28.75 17.75 -28.75 17.75 -31 18 C-33.25 16.1875 -33.25 16.1875 -35 14 C-35 13.34 -35 12.68 -35 12 C-34.071875 11.566875 -33.14375 11.13375 -32.1875 10.6875 C-29.50448951 9.26708268 -27.98460951 8.19351577 -26 6 C-25.67 6 -25.34 6 -25 6 C-24.67 4.68 -24.34 3.36 -24 2 C-23.34 2 -22.68 2 -22 2 C-21.01 3.485 -21.01 3.485 -20 5 C-16.71423612 5.40414686 -16.71423612 5.40414686 -13 5.25 C-11.741875 5.23453125 -10.48375 5.2190625 -9.1875 5.203125 C-6.10420469 5.21436312 -6.10420469 5.21436312 -4 4 C-4 4.66 -4 5.32 -4 6 C-2.68 6 -1.36 6 0 6 C0 4.02 0 2.04 0 0 Z " fill="#18426D" transform="translate(126,90)"/>
<path d="M0 0 C0.33 0 0.66 0 1 0 C1.09796875 0.58265625 1.1959375 1.1653125 1.296875 1.765625 C2.9380733 13.18752189 2.9380733 13.18752189 8 23 C8.74161377 22.7827124 9.48322754 22.5654248 10.24731445 22.34155273 C13.59986339 21.36465628 16.95606037 20.40093948 20.3125 19.4375 C22.06336914 18.92413086 22.06336914 18.92413086 23.84960938 18.40039062 C24.96787109 18.08134766 26.08613281 17.76230469 27.23828125 17.43359375 C28.26993408 17.13509521 29.30158691 16.83659668 30.36450195 16.52905273 C33 16 33 16 36 17 C36.495 17.99 36.495 17.99 37 19 C35.081875 19.2165625 35.081875 19.2165625 33.125 19.4375 C30.74307106 19.70642746 29.15547309 19.92226346 27 21 C28.32 21 29.64 21 31 21 C31 21.66 31 22.32 31 23 C30.34 23 29.68 23 29 23 C28.67 24.98 28.34 26.96 28 29 C25.91673869 29.02709444 23.83337559 29.04643873 21.75 29.0625 C20.00976562 29.07990234 20.00976562 29.07990234 18.234375 29.09765625 C15.59022872 29.01782092 13.50173909 28.78643778 11 28 C11 27.34 11 26.68 11 26 C5.39 26 -0.22 26 -6 26 C-6 25.34 -6 24.68 -6 24 C-5.34 24 -4.68 24 -4 24 C-4.01160156 23.27554688 -4.02320313 22.55109375 -4.03515625 21.8046875 C-4.08231311 16.75216677 -4.07377564 11.96621233 -3 7 C-2.34 7.66 -1.68 8.32 -1 9 C-0.67 6.03 -0.34 3.06 0 0 Z " fill="#24668E" transform="translate(52,40)"/>
<path d="M0 0 C-0.375 1.9375 -0.375 1.9375 -1 4 C-1.66 4.33 -2.32 4.66 -3 5 C-3 6.32 -3 7.64 -3 9 C-4.32 9 -5.64 9 -7 9 C-7.33 10.32 -7.66 11.64 -8 13 C-5.36 13 -2.72 13 0 13 C-0.33 13.66 -0.66 14.32 -1 15 C-3.475 14.505 -3.475 14.505 -6 14 C-6.33 15.32 -6.66 16.64 -7 18 C-7.33 16.68 -7.66 15.36 -8 14 C-8.56203125 14.18433594 -9.1240625 14.36867188 -9.703125 14.55859375 C-12.38260374 15.07352759 -14.11546311 14.72113422 -16.75 14.0625 C-17.54921875 13.86785156 -18.3484375 13.67320313 -19.171875 13.47265625 C-19.77515625 13.31667969 -20.3784375 13.16070312 -21 13 C-20.34 12.67 -19.68 12.34 -19 12 C-19 11.34 -19 10.68 -19 10 C-21.33538907 9.96127313 -21.33538907 9.96127313 -24 11 C-25.93157957 13.1717219 -27.48201687 15.52601047 -29 18 C-28.01 17.67 -27.02 17.34 -26 17 C-26 17.66 -26 18.32 -26 19 C-25.34 19.33 -24.68 19.66 -24 20 C-25.28965176 21.37562854 -26.62689293 22.70766393 -28 24 C-28.66 24 -29.32 24 -30 24 C-30.33 26.64 -30.66 29.28 -31 32 C-31.33 32 -31.66 32 -32 32 C-32.33 30.02 -32.66 28.04 -33 26 C-33.66 26.66 -34.32 27.32 -35 28 C-34.53140451 19.09668567 -28.33934582 11.55308836 -22.0546875 5.6953125 C-15.00635288 -0.12023356 -9.01613482 -0.54096809 0 0 Z " fill="#12447B" transform="translate(66,1)"/>
<path d="M0 0 C2.31 0.66 4.62 1.32 7 2 C7 2.99 7 3.98 7 5 C5.68 5 4.36 5 3 5 C3 5.66 3 6.32 3 7 C3.66 7.33 4.32 7.66 5 8 C5.99 9.485 5.99 9.485 7 11 C3.94736336 11.98120464 2.05263664 11.98120464 -1 11 C-1.33 11.99 -1.66 12.98 -2 14 C-4.16874252 13.49396008 -5.99967627 13.00016187 -8 12 C-7.11870348 14.61447009 -7.11870348 14.61447009 -5 17 C-2.1228139 17.7912071 0.71619382 17.79056255 3.6875 17.8125 C4.48478516 17.83763672 5.28207031 17.86277344 6.10351562 17.88867188 C8.0684802 17.94750315 10.03429391 17.97662404 12 18 C12.33 19.32 12.66 20.64 13 22 C11.75108386 22.48198463 10.50081192 22.96045677 9.25 23.4375 C8.55390625 23.70433594 7.8578125 23.97117187 7.140625 24.24609375 C2.6380392 25.83185846 -1.19438116 26.1351814 -6 26.125 C-7.8253125 26.12886719 -7.8253125 26.12886719 -9.6875 26.1328125 C-12.34750011 26.02616155 -14.48228971 25.79307874 -17 25 C-17 24.34 -17 23.68 -17 23 C-9.74 23 -2.48 23 5 23 C5 22.34 5 21.68 5 21 C6.32 21.33 7.64 21.66 9 22 C9 21.01 9 20.02 9 19 C7.7934375 19.2475 7.7934375 19.2475 6.5625 19.5 C-4.00509944 20.98317185 -4.00509944 20.98317185 -7.91015625 19.05859375 C-9.5625 17.8125 -9.5625 17.8125 -12 15 C-12.375 12.1875 -12.375 12.1875 -12 10 C-11.01 9.67 -10.02 9.34 -9 9 C-10.98 8.34 -12.96 7.68 -15 7 C-14.67 6.01 -14.34 5.02 -14 4 C-13.01 4.66 -12.02 5.32 -11 6 C-10.67 5.34 -10.34 4.68 -10 4 C-9.01 3.67 -8.02 3.34 -7 3 C-7 2.34 -7 1.68 -7 1 C-6.01 1.33 -5.02 1.66 -4 2 C-4 2.66 -4 3.32 -4 4 C-1.03 4.495 -1.03 4.495 2 5 C2 4.34 2 3.68 2 3 C0.68 3.33 -0.64 3.66 -2 4 C-2.33 3.34 -2.66 2.68 -3 2 C-2.01 2 -1.02 2 0 2 C0 1.34 0 0.68 0 0 Z " fill="#204C6F" transform="translate(97,102)"/>
<path d="M0 0 C2.48662146 3.72993219 1.79466113 4.76180733 1 9 C1.33 9.99 1.66 10.98 2 12 C2.99 11.67 3.98 11.34 5 11 C5.66 12.32 6.32 13.64 7 15 C7.33 13.02 7.66 11.04 8 9 C8.33 9 8.66 9 9 9 C9 11.64 9 14.28 9 17 C9.66 17 10.32 17 11 17 C11 14.03 11 11.06 11 8 C11.66 8 12.32 8 13 8 C13.12375 8.94875 13.2475 9.8975 13.375 10.875 C13.71687177 14.08667191 13.71687177 14.08667191 16 16 C16 16.99 16 17.98 16 19 C16.99 18.34 17.98 17.68 19 17 C19 16.01 19 15.02 19 14 C19.99 13.67 20.98 13.34 22 13 C22.33 12.01 22.66 11.02 23 10 C23.66 10 24.32 10 25 10 C25.33 10.99 25.66 11.98 26 13 C26.66 12.34 27.32 11.68 28 11 C31.01826653 10.72759327 33.96370622 10.91324875 37 11 C33.37 10.34 29.74 9.68 26 9 C26 8.67 26 8.34 26 8 C28.64 8 31.28 8 34 8 C34 7.34 34 6.68 34 6 C37.465 5.505 37.465 5.505 41 5 C41.67578125 6.78515625 41.67578125 6.78515625 42 9 C38.32275387 14.93403979 31.46678604 18.85385902 25 21 C17.03862286 22.3989277 10.58451096 20.59304173 4 16 C0.15750534 12.57143261 -2.67656568 9.33666628 -3 4 C-2.01 4.495 -2.01 4.495 -1 5 C-0.67 3.35 -0.34 1.7 0 0 Z " fill="#265875" transform="translate(6,102)"/>
<path d="M0 0 C1.1549921 0.73581742 2.29874185 1.48930039 3.4375 2.25 C4.07558594 2.66765625 4.71367188 3.0853125 5.37109375 3.515625 C7.34837537 5.31746436 7.46094964 6.42615594 8 9 C8.79007482 10.31857082 9.62635682 11.61024911 10.5 12.875 C12.68525703 16.23790275 13.69525068 18.93667569 14 23 C12.02253397 23.73080266 10.01927511 24.39421747 8 25 C7.34 24.67 6.68 24.34 6 24 C5.47426747 22.3176559 5 20.77322566 5 19 C4.34 19.33 3.68 19.66 3 20 C2.34 19.67 1.68 19.34 1 19 C0.67 19.66 0.34 20.32 0 21 C-0.66 20.01 -1.32 19.02 -2 18 C-3.24546405 20.49092811 -2.7767578 21.41080733 -2 24 C-2.99 24 -3.98 24 -5 24 C-5.33 23.01 -5.66 22.02 -6 21 C-6.66 20.67 -7.32 20.34 -8 20 C-6.25 14.25 -6.25 14.25 -4 12 C-4 12.99 -4 13.98 -4 15 C-3.67 14.67 -3.34 14.34 -3 14 C-3.185625 13.236875 -3.37125 12.47375 -3.5625 11.6875 C-4.06011758 8.63070629 -3.61585352 7.56635559 -2 5 C-1.67 5.66 -1.34 6.32 -1 7 C-0.34 7 0.32 7 1 7 C1.33 6.01 1.66 5.02 2 4 C1.01 3.67 0.02 3.34 -1 3 C-0.67 2.01 -0.34 1.02 0 0 Z " fill="#1B496E" transform="translate(112,64)"/>
<path d="M0 0 C3.63 0 7.26 0 11 0 C11 0.99 11 1.98 11 3 C12.32 3 13.64 3 15 3 C15 3.66 15 4.32 15 5 C15.66 5 16.32 5 17 5 C17 4.34 17 3.68 17 3 C18.65 3 20.3 3 22 3 C22 5.31 22 7.62 22 10 C20.35 10 18.7 10 17 10 C17 9.34 17 8.68 17 8 C16.34 8 15.68 8 15 8 C15 8.66 15 9.32 15 10 C8.4 10 1.8 10 -5 10 C-5 8.68 -5 7.36 -5 6 C-5.66 5.67 -6.32 5.34 -7 5 C-7 6.65 -7 8.3 -7 10 C-7.66 10 -8.32 10 -9 10 C-9 8.35 -9 6.7 -9 5 C-9.66 5 -10.32 5 -11 5 C-11 4.34 -11 3.68 -11 3 C-7.37 3 -3.74 3 0 3 C0.33 3.66 0.66 4.32 1 5 C1.33 4.34 1.66 3.68 2 3 C3.65 3 5.3 3 7 3 C4.69 2.67 2.38 2.34 0 2 C0 1.34 0 0.68 0 0 Z " fill="#2989B8" transform="translate(58,12)"/>
<path d="M0 0 C0.66 0 1.32 0 2 0 C3.31223496 3.93670488 2.24296256 6.12488144 1 10 C0.34 10 -0.32 10 -1 10 C-1.33 11.98 -1.66 13.96 -2 16 C-2.66 16 -3.32 16 -4 16 C-4 16.66 -4 17.32 -4 18 C-5.45792884 18.05399736 -6.91642712 18.09279177 -8.375 18.125 C-9.59316406 18.15980469 -9.59316406 18.15980469 -10.8359375 18.1953125 C-13 18 -13 18 -15 16 C-15.265625 13.6875 -15.265625 13.6875 -15.25 11 C-15.25515625 10.113125 -15.2603125 9.22625 -15.265625 8.3125 C-15 6 -15 6 -13 4 C-10.8359375 3.8046875 -10.8359375 3.8046875 -8.375 3.875 C-7.14910156 3.90207031 -7.14910156 3.90207031 -5.8984375 3.9296875 C-4.95871094 3.96449219 -4.95871094 3.96449219 -4 4 C-4 4.66 -4 5.32 -4 6 C-2.68 6 -1.36 6 0 6 C0 4.02 0 2.04 0 0 Z " fill="#2A79A1" transform="translate(25,85)"/>
<path d="M0 0 C5.75 2.75 5.75 2.75 8 5 C8.4140625 7.3828125 8.4140625 7.3828125 8.625 10.125 C8.69976562 11.03507812 8.77453125 11.94515625 8.8515625 12.8828125 C8.90054688 13.58148438 8.94953125 14.28015625 9 15 C8.01 14.67 7.02 14.34 6 14 C6 11.03 6 8.06 6 5 C3.525 4.505 3.525 4.505 1 4 C1 5.65 1 7.3 1 9 C2.32 9 3.64 9 5 9 C5.33 11.64 5.66 14.28 6 17 C6.66 16.67 7.32 16.34 8 16 C7.34 17.98 6.68 19.96 6 22 C5.01 21.67 4.02 21.34 3 21 C3 18.03 3 15.06 3 12 C1.68 11.67 0.36 11.34 -1 11 C-1 12.65 -1 14.3 -1 16 C-3.62924382 15.05055084 -5.75003352 14.20158587 -7.9375 12.4375 C-10.56341194 10.60731895 -12.85539725 10.35734122 -16 10 C-14.8125 8.4375 -14.8125 8.4375 -13 7 C-10.3125 7.3125 -10.3125 7.3125 -8 8 C-7.67 5.69 -7.34 3.38 -7 1 C-3.125 1.875 -3.125 1.875 -2 3 C-1.34 2.01 -0.68 1.02 0 0 Z " fill="#1B4367" transform="translate(77,22)"/>
<path d="M0 0 C4.51932161 0.77823496 7.01621623 1.46712128 9.73046875 5.265625 C10.56997278 6.58089191 11.38868229 7.90963276 12.1875 9.25 C12.59935547 9.90613281 13.01121094 10.56226562 13.43554688 11.23828125 C14.24641459 12.53104341 15.04987146 13.8284887 15.84521484 15.13085938 C17.49518002 17.80150069 19.24298342 20.39880764 21 23 C20.01 23 19.02 23 18 23 C18.66 23.33 19.32 23.66 20 24 C20 25.32 20 26.64 20 28 C20.99 28.33 21.98 28.66 23 29 C21.68 29 20.36 29 19 29 C17.96434215 27.69417053 16.96873032 26.35622245 16 25 C15.21625 24.566875 14.4325 24.13375 13.625 23.6875 C10.10504265 21.42467027 7.88149217 18.73906706 6 15 C5.960008 13.00039988 5.95653201 10.99952758 6 9 C4.12230858 6.15079947 4.12230858 6.15079947 2 4 C1.01 5.485 1.01 5.485 0 7 C-0.66 5.68 -1.32 4.36 -2 3 C-1.34 2.34 -0.68 1.68 0 1 C0 0.67 0 0.34 0 0 Z " fill="#27678F" transform="translate(57,71)"/>
<path d="M0 0 C4.41090407 0.48496851 6.22737411 1.81609501 9.1875 5.0625 C10.4238203 6.40755975 11.68805148 7.72859735 13 9 C13.66 9 14.32 9 15 9 C14.67 10.32 14.34 11.64 14 13 C12.34385343 13.38218767 10.67542976 13.71395102 9 14 C8.67 13.67 8.34 13.34 8 13 C7.67 13.66 7.34 14.32 7 15 C9.97 15.495 9.97 15.495 13 16 C11.1875 17.0625 11.1875 17.0625 9 18 C8.01 17.67 7.02 17.34 6 17 C6 16.34 6 15.68 6 15 C5.38125 14.9175 4.7625 14.835 4.125 14.75 C2 14 2 14 0.875 12.0625 C0.58625 11.381875 0.2975 10.70125 0 10 C-1.95216435 8.04783565 -3.53199953 7.15173355 -6 6 C-5.67 4.35 -5.34 2.7 -5 1 C-3.125 1.25 -3.125 1.25 -1 2 C0.25 4.0625 0.25 4.0625 1 6 C1.2981424 2.2236068 1.2981424 2.2236068 0 0 Z " fill="#1E5984" transform="translate(75,94)"/>
<path d="M0 0 C1.1656984 3.49709519 0.77554464 4.0942713 -0.5625 7.375 C-1.54785446 10.22055633 -2.03122904 11.72518445 -1.6875 14.75 C0.87350576 18.16467434 4.29390853 19.97457792 8 22 C4.33134759 24.44576827 2.32799657 24.23607254 -2 24 C-2.66 23.67 -3.32 23.34 -4 23 C-4.103125 23.556875 -4.20625 24.11375 -4.3125 24.6875 C-5.13589682 27.45710747 -6.40168278 29.60252417 -8 32 C-8.33 32 -8.66 32 -9 32 C-9.66 28.7 -10.32 25.4 -11 22 C-9.515 22.99 -9.515 22.99 -8 24 C-7.67 22.02 -7.34 20.04 -7 18 C-7.66 18 -8.32 18 -9 18 C-8.67 16.02 -8.34 14.04 -8 12 C-7.34 12 -6.68 12 -6 12 C-5.89042969 11.36191406 -5.78085937 10.72382812 -5.66796875 10.06640625 C-5.50941406 9.24011719 -5.35085937 8.41382812 -5.1875 7.5625 C-5.03667969 6.73878906 -4.88585937 5.91507812 -4.73046875 5.06640625 C-4.36888672 4.04353516 -4.36888672 4.04353516 -4 3 C-3.01 2.67 -2.02 2.34 -1 2 C-0.67 1.34 -0.34 0.68 0 0 Z " fill="#1D4A6F" transform="translate(32,83)"/>
<path d="M0 0 C1.98 0.66 3.96 1.32 6 2 C6.33 4.31 6.66 6.62 7 9 C6.34 8.67 5.68 8.34 5 8 C5 7.34 5 6.68 5 6 C2.36 5.67 -0.28 5.34 -3 5 C-2.67 7.31 -2.34 9.62 -2 12 C0.31 11.34 2.62 10.68 5 10 C7.41685712 14.22949995 8.34833144 17.12335991 8 22 C5.18473691 20.76128424 2.96377567 19.19996559 0.5625 17.3125 C-2.19856872 15.22277429 -2.19856872 15.22277429 -5.625 15.25 C-6.40875 15.4975 -7.1925 15.745 -8 16 C-10.8125 15.5625 -10.8125 15.5625 -13 15 C-13 14.67 -13 14.34 -13 14 C-11.02 14 -9.04 14 -7 14 C-6.67 12.02 -6.34 10.04 -6 8 C-5.34 8 -4.68 8 -4 8 C-4 7.34 -4 6.68 -4 6 C-6.31 6.33 -8.62 6.66 -11 7 C-8.6870518 4.6870518 -7.52095125 4.50419025 -4.375 3.875 C-3.55773437 3.70742188 -2.74046875 3.53984375 -1.8984375 3.3671875 C-1.27195312 3.24601562 -0.64546875 3.12484375 0 3 C0 2.01 0 1.02 0 0 Z " fill="#194873" transform="translate(87,55)"/>
<path d="M0 0 C0.33 0 0.66 0 1 0 C1 5 1 10 1 15 C1.33 15.99 1.66 16.98 2 18 C2.66 18.33 3.32 18.66 4 19 C4 19.99 4 20.98 4 22 C3.34 22 2.68 22 2 22 C2 24.64 2 27.28 2 30 C2.66 30 3.32 30 4 30 C4 28.68 4 27.36 4 26 C4.66 26 5.32 26 6 26 C6 29.63 6 33.26 6 37 C4.35 37 2.7 37 1 37 C0.34 36.01 -0.32 35.02 -1 34 C-1.66 34 -2.32 34 -3 34 C-5.37032933 9.33576238 -5.37032933 9.33576238 0 0 Z " fill="#265D72" transform="translate(30,30)"/>
<path d="M0 0 C1.37086915 1.29470975 2.71340837 2.62150897 4 4 C2 6 2 6 -1.5 6.9375 C-5.23685745 7.6673234 -5.23685745 7.6673234 -7 11 C-9.05859375 11.3984375 -9.05859375 11.3984375 -11.4375 11.375 C-12.21996094 11.38273437 -13.00242187 11.39046875 -13.80859375 11.3984375 C-16 11 -16 11 -17.8046875 9.76953125 C-19.41279997 7.38889416 -19.13388099 6.1125262 -18.6875 3.3125 C-18.56761719 2.50425781 -18.44773437 1.69601563 -18.32421875 0.86328125 C-18.21722656 0.24839844 -18.11023437 -0.36648437 -18 -1 C-16.68 -0.34 -15.36 0.32 -14 1 C-14 1.66 -14 2.32 -14 3 C-13.34 3 -12.68 3 -12 3 C-12 3.66 -12 4.32 -12 5 C-12.66 5 -13.32 5 -14 5 C-13.67 5.66 -13.34 6.32 -13 7 C-11.02 5.02 -9.04 3.04 -7 1 C-7.99 1.33 -8.98 1.66 -10 2 C-9.67 1.01 -9.34 0.02 -9 -1 C-5.20965187 -2.05287448 -3.29656082 -2.23315411 0 0 Z " fill="#225578" transform="translate(28,78)"/>
<path d="M0 0 C4.43090471 1.20842856 6.98112756 2.51668565 10 6 C9.21625 6.268125 8.4325 6.53625 7.625 6.8125 C4.71885077 7.84814432 4.71885077 7.84814432 3 11 C5.64 9.68 8.28 8.36 11 7 C13 9 13 9 14 12 C14.66 12.33 15.32 12.66 16 13 C15.67 14.32 15.34 15.64 15 17 C15.66 17 16.32 17 17 17 C17 20.96 17 24.92 17 29 C16.67 29 16.34 29 16 29 C15.7525 27.88625 15.505 26.7725 15.25 25.625 C14.38994661 21.95384802 14.38994661 21.95384802 11.875 20.5625 C11.25625 20.376875 10.6375 20.19125 10 20 C10 17.36 10 14.72 10 12 C8.35 12 6.7 12 5 12 C5 12.66 5 13.32 5 14 C4.34 14 3.68 14 3 14 C3 13.34 3 12.68 3 12 C1.68 12 0.36 12 -1 12 C-1.125 9.125 -1.125 9.125 -1 6 C-0.34 5.34 0.32 4.68 1 4 C0.6814823 1.89179203 0.6814823 1.89179203 0 0 Z " fill="#173E69" transform="translate(70,3)"/>
<path d="M0 0 C0.33 0.66 0.66 1.32 1 2 C1.66 2 2.32 2 3 2 C3.33 4.64 3.66 7.28 4 10 C4.66 10 5.32 10 6 10 C6 13.3 6 16.6 6 20 C5.34 20 4.68 20 4 20 C4 19.34 4 18.68 4 18 C1.48916886 19.25541557 1.12874554 20.50063488 0 23 C0 21.35 0 19.7 0 18 C-0.66 17.67 -1.32 17.34 -2 17 C-1.67 19.31 -1.34 21.62 -1 24 C-3 23 -3 23 -4 20 C-4.59217009 12.95089836 -3.97242092 7.42042919 -1 1 C-0.67 0.67 -0.34 0.34 0 0 Z " fill="#245472" transform="translate(4,81)"/>
<path d="M0 0 C1.11375 0.185625 1.11375 0.185625 2.25 0.375 C1.755 0.808125 1.26 1.24125 0.75 1.6875 C-1.08218192 3.37240483 -1.08218192 3.37240483 -0.75 6.375 C2.1357074 9.49044333 3.75921294 10.32414124 8.01953125 10.765625 C9.36774585 10.73931837 10.71569518 10.69201804 12.0625 10.625 C12.75537109 10.60695313 13.44824219 10.58890625 14.16210938 10.5703125 C15.85867664 10.52351064 17.55452476 10.45177624 19.25 10.375 C19.25 11.365 19.25 12.355 19.25 13.375 C17.93 13.045 16.61 12.715 15.25 12.375 C15.25 13.035 15.25 13.695 15.25 14.375 C12.1817362 15.27249822 9.45730024 15.49211768 6.265625 15.47265625 C5.33105469 15.46943359 4.39648438 15.46621094 3.43359375 15.46289062 C2.46550781 15.45451172 1.49742188 15.44613281 0.5 15.4375 C-0.97533203 15.43073242 -0.97533203 15.43073242 -2.48046875 15.42382812 C-4.90370791 15.41206483 -7.32682273 15.39562684 -9.75 15.375 C-9.75 14.385 -9.75 13.395 -9.75 12.375 C-7.77 12.045 -5.79 11.715 -3.75 11.375 C-5.07 10.715 -6.39 10.055 -7.75 9.375 C-7.42 8.715 -7.09 8.055 -6.75 7.375 C-5.43 8.035 -4.11 8.695 -2.75 9.375 C-2.75 8.715 -2.75 8.055 -2.75 7.375 C-4.07 7.045 -5.39 6.715 -6.75 6.375 C-3.42692308 0.46730769 -3.42692308 0.46730769 0 0 Z " fill="#18395C" transform="translate(86.75,110.625)"/>
<path d="M0 0 C0 2.31 0 4.62 0 7 C-0.33 6.34 -0.66 5.68 -1 5 C-1.66 5 -2.32 5 -3 5 C-2.34 6.65 -1.68 8.3 -1 10 C-0.34 8.35 0.32 6.7 1 5 C1.66 5.33 2.32 5.66 3 6 C2.79822665 8.90011553 2.56479333 11.79170839 2.3125 14.6875 C2.25900391 15.50412109 2.20550781 16.32074219 2.15039062 17.16210938 C1.61454929 22.91657934 0.33539414 24.9938763 -4 29 C-4.80456863 31.87099682 -4.80456863 31.87099682 -4.8125 34.8125 C-4.86019531 35.78832031 -4.90789063 36.76414063 -4.95703125 37.76953125 C-4.97121094 38.50558594 -4.98539063 39.24164063 -5 40 C-5.66 40 -6.32 40 -7 40 C-6.67 33.4 -6.34 26.8 -6 20 C-6.66 19.67 -7.32 19.34 -8 19 C-7.67 18.34 -7.34 17.68 -7 17 C-6.01 17 -5.02 17 -4 17 C-3.67 17.66 -3.34 18.32 -3 19 C-3 18.01 -3 17.02 -3 16 C-3.66 15.67 -4.32 15.34 -5 15 C-5 13.35 -5 11.7 -5 10 C-5.66 9.67 -6.32 9.34 -7 9 C-6.63229616 5.6906654 -3.81323709 0 0 0 Z " fill="#1D4664" transform="translate(53,24)"/>
<path d="M0 0 C-2.475 1.485 -2.475 1.485 -5 3 C-2.525 3.495 -2.525 3.495 0 4 C0 4.33 0 4.66 0 5 C-1.65 5.33 -3.3 5.66 -5 6 C-4.01 6.33 -3.02 6.66 -2 7 C-3.98 9.31 -5.96 11.62 -8 14 C-8.66 13.67 -9.32 13.34 -10 13 C-10 12.34 -10 11.68 -10 11 C-9.34 11 -8.68 11 -8 11 C-8 10.34 -8 9.68 -8 9 C-8.66 9 -9.32 9 -10 9 C-10 8.34 -10 7.68 -10 7 C-10.66 7 -11.32 7 -12 7 C-12 8.65 -12 10.3 -12 12 C-12.66 12 -13.32 12 -14 12 C-13.34 13.98 -12.68 15.96 -12 18 C-13.32 18.33 -14.64 18.66 -16 19 C-16.33 16.36 -16.66 13.72 -17 11 C-17.66 11 -18.32 11 -19 11 C-19.33 10.01 -19.66 9.02 -20 8 C-14.05854801 1.5058548 -14.05854801 1.5058548 -9 1 C-7.96875 0.62875 -6.9375 0.2575 -5.875 -0.125 C-3 -1 -3 -1 0 0 Z " fill="#1C4266" transform="translate(24,72)"/>
<path d="M0 0 C1 1 2 2 3 3 C3.763125 3.7425 4.52625 4.485 5.3125 5.25 C8.36770821 8.37625956 11.19251261 11.65224012 14 15 C13.01 15 12.02 15 11 15 C10.360625 14.319375 9.72125 13.63875 9.0625 12.9375 C8.381875 12.298125 7.70125 11.65875 7 11 C4.78141747 11.13641377 4.78141747 11.13641377 3 12 C3.99 12.33 4.98 12.66 6 13 C5.67 14.65 5.34 16.3 5 18 C2.525 17.01 2.525 17.01 0 16 C1.32 18.31 2.64 20.62 4 23 C1 23 1 23 -1.25 20.8125 C-3 18 -3 18 -2.9375 15.375 C-1.95260937 12.87994374 -1.12610732 11.61584156 1 10 C1.66 10 2.32 10 3 10 C3 9.34 3 8.68 3 8 C0.525 9.485 0.525 9.485 -2 11 C-2.33 10.01 -2.66 9.02 -3 8 C-3.66 8 -4.32 8 -5 8 C-5 6.68 -5 5.36 -5 4 C-4.01 4.33 -3.02 4.66 -2 5 C-2 5.66 -2 6.32 -2 7 C-1.34 7 -0.68 7 0 7 C0 4.69 0 2.38 0 0 Z " fill="#2B96C3" transform="translate(56,79)"/>
<path d="M0 0 C0.33 0 0.66 0 1 0 C1.36412551 7.64663579 0.61805945 13.97221624 -3.625 20.5 C-7.28885513 22.81401376 -10.70059204 22.74709365 -15 23 C-14.67 19.7 -14.34 16.4 -14 13 C-13.34 13 -12.68 13 -12 13 C-12 14.65 -12 16.3 -12 18 C-11.67 16.02 -11.34 14.04 -11 12 C-10.67 12 -10.34 12 -10 12 C-10 13.65 -10 15.3 -10 17 C-8.68 17.33 -7.36 17.66 -6 18 C-6 15.69 -6 13.38 -6 11 C-5 11 -4 11 -3 11 C-3.33 9.68 -3.66 8.36 -4 7 C-4 7.99 -4 8.98 -4 10 C-5.32 9.67 -6.64 9.34 -8 9 C-7.01 7.35 -6.02 5.7 -5 4 C-4.67 4.66 -4.34 5.32 -4 6 C-2.68 6 -1.36 6 0 6 C0 4.02 0 2.04 0 0 Z " fill="#143558" transform="translate(126,90)"/>
<path d="M0 0 C2.625 0.375 2.625 0.375 5 1 C5 1.99 5 2.98 5 4 C7.31 4.33 9.62 4.66 12 5 C12 6.65 12 8.3 12 10 C11.01 10 10.02 10 9 10 C9 9.34 9 8.68 9 8 C8.34 8 7.68 8 7 8 C6.67 8.66 6.34 9.32 6 10 C5.26394531 9.98839844 4.52789062 9.97679688 3.76953125 9.96484375 C2.79371094 9.95582031 1.81789063 9.94679688 0.8125 9.9375 C-0.15042969 9.92589844 -1.11335938 9.91429688 -2.10546875 9.90234375 C-4.85576513 9.99513378 -7.32479591 10.37888315 -10 11 C-10.33 8.69 -10.66 6.38 -11 4 C-4.84765625 4.5859375 -4.84765625 4.5859375 -3 5 C-2.67 5.66 -2.34 6.32 -2 7 C-2.04125 6.21625 -2.0825 5.4325 -2.125 4.625 C-2 2 -2 2 0 0 Z " fill="#2583B0" transform="translate(95,56)"/>
<path d="M0 0 C2.64 0 5.28 0 8 0 C8.33 0.66 8.66 1.32 9 2 C9.99 2.33 10.98 2.66 12 3 C12 2.01 12 1.02 12 0 C12.66 0.33 13.32 0.66 14 1 C14 2.98 14 4.96 14 7 C12 6 12 6 11 5 C10.67 6.98 10.34 8.96 10 11 C8.68 10.67 7.36 10.34 6 10 C5.67 11.65 5.34 13.3 5 15 C3.38050989 12.42786866 2.95591249 11.32330841 3.375 8.25 C3.58125 7.5075 3.7875 6.765 4 6 C3.34 6 2.68 6 2 6 C1.67 9.3 1.34 12.6 1 16 C0.67 16 0.34 16 0 16 C-2.66514806 5.62642369 -2.66514806 5.62642369 0 0 Z " fill="#225478" transform="translate(110,97)"/>
<path d="M0 0 C5.26283043 3.50855362 7.64287387 7.89243159 9.5859375 13.7734375 C11.46989237 23.90413824 10.83278825 33.33414317 5 42 C4.34 42 3.68 42 3 42 C2.67 42.99 2.34 43.98 2 45 C2.38623849 42.21908285 2.71019336 40.37800866 4.4375 38.125 C8.24620185 32.94516549 8.21567135 27.14663344 8 21 C7.175 21.185625 6.35 21.37125 5.5 21.5625 C1.38073281 22.0774084 -1.90823355 21.63492928 -6 21 C-6.33 21.66 -6.66 22.32 -7 23 C-7.33 21.68 -7.66 20.36 -8 19 C-6.783125 19.04125 -5.56625 19.0825 -4.3125 19.125 C-0.74797463 19.1375955 1.73530848 18.49243041 5 17 C5.99 17 6.98 17 8 17 C5.93080814 11.33173506 4.02149842 6.5959982 0 2 C0 1.34 0 0.68 0 0 Z " fill="#2A5A70" transform="translate(118,70)"/>
<path d="M0 0 C3.41796875 0.78125 3.41796875 0.78125 6.8359375 1.5625 C8.95874951 2.06605239 8.95874951 2.06605239 11 2 C15.66666667 2 20.33333333 2 25 2 C25 3.65 25 5.3 25 7 C24.21625 6.814375 23.4325 6.62875 22.625 6.4375 C20.02910225 5.74037734 20.02910225 5.74037734 18 7 C15.44842345 7.0716735 12.92527029 7.09308442 10.375 7.0625 C9.66859375 7.05798828 8.9621875 7.05347656 8.234375 7.04882812 C6.48954725 7.03703875 4.744763 7.01910324 3 7 C3 5.68 3 4.36 3 3 C2.34 3 1.68 3 1 3 C1.33 4.98 1.66 6.96 2 9 C1.01 9 0.02 9 -1 9 C-0.67 6.03 -0.34 3.06 0 0 Z " fill="#2699C4" transform="translate(101,89)"/>
<path d="M0 0 C0.66 1.32 1.32 2.64 2 4 C2.66 3.34 3.32 2.68 4 2 C4.33 4.64 4.66 7.28 5 10 C5.33 8.02 5.66 6.04 6 4 C6.66 4.33 7.32 4.66 8 5 C7.67 6.65 7.34 8.3 7 10 C7.99 10.33 8.98 10.66 10 11 C9.67 12.98 9.34 14.96 9 17 C8.67 17 8.34 17 8 17 C8 15.35 8 13.7 8 12 C7.01 12 6.02 12 5 12 C5.33 14.97 5.66 17.94 6 21 C5.34 21.33 4.68 21.66 4 22 C4 20.35 4 18.7 4 17 C3.34 17 2.68 17 2 17 C1.67 18.32 1.34 19.64 1 21 C-0.65 19.68 -2.3 18.36 -4 17 C-2.68 16.67 -1.36 16.34 0 16 C0.33 14.02 0.66 12.04 1 10 C0.01 10 -0.98 10 -2 10 C-2 10.66 -2 11.32 -2 12 C-2.66 11.67 -3.32 11.34 -4 11 C-3.67 10.34 -3.34 9.68 -3 9 C-2.34 9 -1.68 9 -1 9 C-0.67 6.03 -0.34 3.06 0 0 Z " fill="#24668C" transform="translate(41,29)"/>
<path d="M0 0 C3.13807951 1.08209638 3.96907788 1.94731786 5.6875 4.875 C6.70084525 7.28772678 7.50840885 9.44372603 8 12 C8.66 12 9.32 12 10 12 C10.66 12.66 11.32 13.32 12 14 C13.32 13.34 14.64 12.68 16 12 C16 12.66 16 13.32 16 14 C14.03852126 15.38938077 12.03833424 16.7260411 10 18 C9.13375 17.38125 8.2675 16.7625 7.375 16.125 C4.24371814 14.15345216 1.53615531 13.01033009 -2 12 C-1.67 10.68 -1.34 9.36 -1 8 C-0.34 8 0.32 8 1 8 C0.67 7.01 0.34 6.02 0 5 C-0.99 5.495 -0.99 5.495 -2 6 C-2.66 5.34 -3.32 4.68 -4 4 C-2.68 2.68 -1.36 1.36 0 0 Z " fill="#215984" transform="translate(43,75)"/>
<path d="M0 0 C0.33 0 0.66 0 1 0 C1 5.94 1 11.88 1 18 C0.34 18.33 -0.32 18.66 -1 19 C-0.06027344 18.94779297 -0.06027344 18.94779297 0.8984375 18.89453125 C1.71570313 18.86746094 2.53296875 18.84039062 3.375 18.8125 C4.18710937 18.77769531 4.99921875 18.74289063 5.8359375 18.70703125 C6.55007812 18.80371094 7.26421875 18.90039062 8 19 C10 22 10 22 10 25 C8.68 25 7.36 25 6 25 C6 24.34 6 23.68 6 23 C5.01 23.33 4.02 23.66 3 24 C2.67 23.34 2.34 22.68 2 22 C1.01 21.67 0.02 21.34 -1 21 C-0.67 21.99 -0.34 22.98 0 24 C-0.66 24.33 -1.32 24.66 -2 25 C-2.66 23.68 -3.32 22.36 -4 21 C-4 21.66 -4 22.32 -4 23 C-5.19625 23.12375 -6.3925 23.2475 -7.625 23.375 C-11.27596813 23.82325054 -14.54524899 24.70446837 -18 26 C-18 25.34 -18 24.68 -18 24 C-7.62642369 19.40774487 -7.62642369 19.40774487 -2 20 C-2.185625 19.46375 -2.37125 18.9275 -2.5625 18.375 C-3.11419324 15.38009386 -2.60597444 12.96254171 -2 10 C-1.67 10 -1.34 10 -1 10 C-0.67 6.7 -0.34 3.4 0 0 Z " fill="#297496" transform="translate(30,49)"/>
<path d="M0 0 C-0.33 1.65 -0.66 3.3 -1 5 C-2.32 4.34 -3.64 3.68 -5 3 C-5 3.66 -5 4.32 -5 5 C-4.01 5.33 -3.02 5.66 -2 6 C-2.47780303 7.29217171 -2.95729106 8.58372046 -3.4375 9.875 C-3.83775391 10.95394531 -3.83775391 10.95394531 -4.24609375 12.0546875 C-5 14 -5 14 -6 16 C-8.375 15.6875 -8.375 15.6875 -11 15 C-11.66 14.01 -12.32 13.02 -13 12 C-12.34 12 -11.68 12 -11 12 C-10.87625 10.9275 -10.7525 9.855 -10.625 8.75 C-9.72727273 3.36363636 -9.72727273 3.36363636 -8 1 C-5.17805079 -0.12877968 -3.12179761 0 0 0 Z " fill="#173E68" transform="translate(108,66)"/>
<path d="M0 0 C2.0622048 -0.054348 4.12482816 -0.09294961 6.1875 -0.125 C7.33605469 -0.14820312 8.48460938 -0.17140625 9.66796875 -0.1953125 C12.91740372 -0.00484152 15.08660521 0.60639873 18 2 C17.34 2.66 16.68 3.32 16 4 C15.34 3.67 14.68 3.34 14 3 C14 3.99 14 4.98 14 6 C15.65 6 17.3 6 19 6 C18.38125 6.2475 17.7625 6.495 17.125 6.75 C14.54131114 8.01039254 14.54131114 8.01039254 13 12 C9.7 12 6.4 12 3 12 C3 11.34 3 10.68 3 10 C4.32 10 5.64 10 7 10 C6.67 7.69 6.34 5.38 6 3 C6.33 3.66 6.66 4.32 7 5 C7.66 5 8.32 5 9 5 C9.33 3.68 9.66 2.36 10 1 C6.37 1.33 2.74 1.66 -1 2 C-0.67 1.34 -0.34 0.68 0 0 Z " fill="#44718D" transform="translate(56,0)"/>
<path d="M0 0 C0.05413245 2.89608593 0.09373641 5.79115195 0.125 8.6875 C0.14175781 9.50412109 0.15851562 10.32074219 0.17578125 11.16210938 C0.24074137 19.18468362 0.24074137 19.18468362 -2 23 C-4.625 23.8125 -4.625 23.8125 -7 24 C-7 21.03 -7 18.06 -7 15 C-6.67 15 -6.34 15 -6 15 C-6.05800781 14.25234375 -6.11601562 13.5046875 -6.17578125 12.734375 C-6.5482253 4.60445353 -6.5482253 4.60445353 -3.5625 1.3125 C-1 0 -1 0 0 0 Z " fill="#183E5F" transform="translate(36,24)"/>
<path d="M0 0 C0.33 0 0.66 0 1 0 C1.06058594 1.02480469 1.12117188 2.04960938 1.18359375 3.10546875 C1.26805026 4.46615695 1.35269567 5.82683343 1.4375 7.1875 C1.47681641 7.86103516 1.51613281 8.53457031 1.55664062 9.22851562 C1.78927565 12.89699102 2.17207011 16.41694206 3 20 C1.68 19.67 0.36 19.34 -1 19 C-1 18.34 -1 17.68 -1 17 C-2.98 17.33 -4.96 17.66 -7 18 C-7.33 15.69 -7.66 13.38 -8 11 C-7.01 11 -6.02 11 -5 11 C-3.13448574 7.41247258 -1.57464072 3.72187807 0 0 Z " fill="#194670" transform="translate(109,44)"/>
<path d="M0 0 C1.5 1.3125 1.5 1.3125 3 3 C3 3.99 3 4.98 3 6 C2.01 6 1.02 6 0 6 C0.598125 6.268125 1.19625 6.53625 1.8125 6.8125 C4.01054464 8.00572423 5.24678871 9.24678871 7 11 C8.64605826 12.03357147 10.30963442 13.04060332 12 14 C11.67 14.66 11.34 15.32 11 16 C10.34 16 9.68 16 9 16 C9 15.34 9 14.68 9 14 C8.0925 14.20625 7.185 14.4125 6.25 14.625 C2.88972103 15.0127245 1.75924185 14.80411967 -1 13 C0.32 13 1.64 13 3 13 C3 12.34 3 11.68 3 11 C1.02 11 -0.96 11 -3 11 C-6 5.25 -6 5.25 -6 3 C-4.02 2.01 -2.04 1.02 0 0 Z " fill="#194470" transform="translate(42,79)"/>
<path d="M0 0 C2.375 0.625 2.375 0.625 5 2 C6.20631202 4.66658446 6.82821315 7.2606294 7.48828125 10.1015625 C8.41724224 14.47226183 8.41724224 14.47226183 11 18 C11.125 21.125 11.125 21.125 11 24 C8 23 8 23 6 20 C5.071875 19.566875 5.071875 19.566875 4.125 19.125 C1.30104136 17.62996307 -0.12475853 15.54497056 -2 13 C-1.34 12.67 -0.68 12.34 0 12 C0.33 12.66 0.66 13.32 1 14 C1.99 14 2.98 14 4 14 C4 10.05746698 3.98687263 6.18424716 1.4375 3.125 C0.963125 2.75375 0.48875 2.3825 0 2 C0 1.34 0 0.68 0 0 Z " fill="#142F56" transform="translate(55,94)"/>
<path d="M0 0 C3.63 0 7.26 0 11 0 C11.33 1.65 11.66 3.3 12 5 C12.556875 4.814375 13.11375 4.62875 13.6875 4.4375 C16 4 16 4 18.3125 4.5625 C21.9281008 5.15108618 24.56767957 4.14410681 28 3 C28.66 4.32 29.32 5.64 30 7 C29.34 7 28.68 7 28 7 C28 6.34 28 5.68 28 5 C27.34 5 26.68 5 26 5 C26 5.66 26 6.32 26 7 C19.4 7 12.8 7 6 7 C6 5.68 6 4.36 6 3 C5.34 2.67 4.68 2.34 4 2 C4 3.65 4 5.3 4 7 C3.34 7 2.68 7 2 7 C2 5.35 2 3.7 2 2 C1.34 2 0.68 2 0 2 C0 1.34 0 0.68 0 0 Z " fill="#2891C0" transform="translate(47,15)"/>
<path d="M0 0 C-0.33 0.99 -0.66 1.98 -1 3 C-0.34 3 0.32 3 1 3 C1 3.66 1 4.32 1 5 C3.31 5.33 5.62 5.66 8 6 C8 6.66 8 7.32 8 8 C6.68 7.67 5.36 7.34 4 7 C5.44197868 8.44197868 7.17691571 9.11786244 9 10 C7.02 10.66 5.04 11.32 3 12 C3 12.33 3 12.66 3 13 C-1.05606165 12.53199289 -4.46588679 12.12046792 -8 10 C-8 9.34 -8 8.68 -8 8 C-5.36 8.66 -2.72 9.32 0 10 C0 9.34 0 8.68 0 8 C-0.825 7.34 -1.65 6.68 -2.5 6 C-3.325 5.34 -4.15 4.68 -5 4 C-5 3.34 -5 2.68 -5 2 C-5.66 2 -6.32 2 -7 2 C-7 1.34 -7 0.68 -7 0 C-3.86650268 -1.04449911 -3.01031744 -0.93423645 0 0 Z " fill="#174875" transform="translate(76,112)"/>
<path d="M0 0 C1.37478516 0.01740234 1.37478516 0.01740234 2.77734375 0.03515625 C3.69644531 0.04417969 4.61554688 0.05320312 5.5625 0.0625 C6.27277344 0.07410156 6.98304687 0.08570312 7.71484375 0.09765625 C8.04484375 2.73765625 8.37484375 5.37765625 8.71484375 8.09765625 C7.39484375 7.76765625 6.07484375 7.43765625 4.71484375 7.09765625 C4.71484375 7.42765625 4.71484375 7.75765625 4.71484375 8.09765625 C2.07484375 8.42765625 -0.56515625 8.75765625 -3.28515625 9.09765625 C-3.3828125 2.9453125 -3.3828125 2.9453125 -3.28515625 1.09765625 C-2.28515625 0.09765625 -2.28515625 0.09765625 0 0 Z " fill="#2976A0" transform="translate(61.28515625,22.90234375)"/>
<path d="M0 0 C-0.375 1.9375 -0.375 1.9375 -1 4 C-1.99 4.495 -1.99 4.495 -3 5 C-3 6.32 -3 7.64 -3 9 C-4.32 9 -5.64 9 -7 9 C-7.33 9.66 -7.66 10.32 -8 11 C-8.33 8.03 -8.66 5.06 -9 2 C-12.11332248 2.66868314 -12.11332248 2.66868314 -13.1875 5.0625 C-13.455625 5.701875 -13.72375 6.34125 -14 7 C-14 6.01 -14 5.02 -14 4 C-15.98 4.66 -17.96 5.32 -20 6 C-20 5.34 -20 4.68 -20 4 C-13.20780865 -0.17981006 -7.88602342 -0.4731614 0 0 Z " fill="#1B466C" transform="translate(66,1)"/>
<path d="M0 0 C2.31 0.66 4.62 1.32 7 2 C7 2.99 7 3.98 7 5 C5.68 5 4.36 5 3 5 C3 5.66 3 6.32 3 7 C3.66 7.33 4.32 7.66 5 8 C5.99 9.485 5.99 9.485 7 11 C5.35546875 11.70703125 5.35546875 11.70703125 3 12 C0.23828125 10.63671875 0.23828125 10.63671875 -2.6875 8.6875 C-3.66074219 8.05199219 -4.63398437 7.41648437 -5.63671875 6.76171875 C-8 5 -8 5 -9 3 C-8.34 3 -7.68 3 -7 3 C-7 2.34 -7 1.68 -7 1 C-6.01 1.33 -5.02 1.66 -4 2 C-4 2.66 -4 3.32 -4 4 C-1.03 4.495 -1.03 4.495 2 5 C2 4.34 2 3.68 2 3 C0.68 3.33 -0.64 3.66 -2 4 C-2.33 3.34 -2.66 2.68 -3 2 C-2.01 2 -1.02 2 0 2 C0 1.34 0 0.68 0 0 Z " fill="#307091" transform="translate(97,102)"/>
<path d="M0 0 C1.98 0.99 1.98 0.99 4 2 C4.33 1.34 4.66 0.68 5 0 C8.34148439 1.17403506 10.81103718 2.15434834 13 5 C13.6875 7.1875 13.6875 7.1875 14 9 C12.1875 9.625 12.1875 9.625 10 10 C9.01 9.34 8.02 8.68 7 8 C6.67 9.32 6.34 10.64 6 12 C5.01 11.67 4.02 11.34 3 11 C3 9.35 3 7.7 3 6 C3.99 5.67 4.98 5.34 6 5 C4.02 4.34 2.04 3.68 0 3 C0 2.01 0 1.02 0 0 Z " fill="#286387" transform="translate(82,106)"/>
<path d="M0 0 C0.66 0 1.32 0 2 0 C5.50454574 6.01175041 4.38670401 13.41315598 3 20 C1.68 20 0.36 20 -1 20 C-1 18.02 -1 16.04 -1 14 C-0.01 14 0.98 14 2 14 C2 12.35 2 10.7 2 9 C0.35 9.66 -1.3 10.32 -3 11 C-3 10.34 -3 9.68 -3 9 C-2.34 9 -1.68 9 -1 9 C-1 8.34 -1 7.68 -1 7 C-0.67 6.67 -0.34 6.34 0 6 C-1.98 5.01 -3.96 4.02 -6 3 C-6 2.34 -6 1.68 -6 1 C-4.68 1 -3.36 1 -2 1 C-1.67 1.66 -1.34 2.32 -1 3 C-0.67 2.01 -0.34 1.02 0 0 Z " fill="#277DA7" transform="translate(43,46)"/>
<path d="M0 0 C0.99 0.33 1.98 0.66 3 1 C3.33 1.99 3.66 2.98 4 4 C4.66 4.33 5.32 4.66 6 5 C6 5.99 6 6.98 6 8 C5.34 8 4.68 8 4 8 C4 10.64 4 13.28 4 16 C4.66 16 5.32 16 6 16 C6 14.68 6 13.36 6 12 C6.66 12 7.32 12 8 12 C8 15.63 8 19.26 8 23 C6.35 23 4.7 23 3 23 C3 17.06 3 11.12 3 5 C2.34 5 1.68 5 1 5 C1 7.31 1 9.62 1 12 C0.67 12 0.34 12 0 12 C0 8.04 0 4.08 0 0 Z " fill="#133B67" transform="translate(28,44)"/>
<path d="M0 0 C4.41090407 0.48496851 6.22737411 1.81609501 9.1875 5.0625 C10.4238203 6.40755975 11.68805148 7.72859735 13 9 C13.66 9 14.32 9 15 9 C14.67 10.32 14.34 11.64 14 13 C12.35 13.33 10.7 13.66 9 14 C7.49440461 12.03617993 6.10868317 10.21736634 5 8 C2.98330173 6.86649466 2.98330173 6.86649466 1 6 C1 4.68 1 3.36 1 2 C0.67 1.34 0.34 0.68 0 0 Z " fill="#204B6D" transform="translate(75,94)"/>
<path d="M0 0 C4 1.33333333 8 2.66666667 12 4 C11.67 4.99 11.34 5.98 11 7 C8.36 7 5.72 7 3 7 C3 7.66 3 8.32 3 9 C-1.49029126 9.36407767 -1.49029126 9.36407767 -3.75 7.75 C-5.12041836 5.83141429 -5.6018827 4.30908032 -6 2 C-5.401875 2.33 -4.80375 2.66 -4.1875 3 C-1.94613529 4.20787988 -1.94613529 4.20787988 1 4 C0.67 2.68 0.34 1.36 0 0 Z " fill="#245478" transform="translate(94,111)"/>
<path d="M0 0 C0.66 0.33 1.32 0.66 2 1 C1.24203125 1.83144531 1.24203125 1.83144531 0.46875 2.6796875 C-0.1809375 3.40414063 -0.830625 4.12859375 -1.5 4.875 C-2.1496875 5.59429688 -2.799375 6.31359375 -3.46875 7.0546875 C-5.20617272 8.84931098 -5.20617272 8.84931098 -5 11 C-4.34 10.67 -3.68 10.34 -3 10 C-3 10.66 -3 11.32 -3 12 C-2.34 12.33 -1.68 12.66 -1 13 C-2.28965176 14.37562854 -3.62689293 15.70766393 -5 17 C-5.66 17 -6.32 17 -7 17 C-7.33 19.64 -7.66 22.28 -8 25 C-8.33 25 -8.66 25 -9 25 C-9.33 23.02 -9.66 21.04 -10 19 C-10.66 19.66 -11.32 20.32 -12 21 C-11.61569952 13.69829081 -7.19977693 6.96427629 -2.125 1.875 C-1.42375 1.25625 -0.7225 0.6375 0 0 Z " fill="#295872" transform="translate(43,8)"/>
<path d="M0 0 C0.66 0.33 1.32 0.66 2 1 C2.4140625 3.50390625 2.4140625 3.50390625 2.625 6.5625 C2.69976562 7.57441406 2.77453125 8.58632812 2.8515625 9.62890625 C2.90054688 10.41136719 2.94953125 11.19382812 3 12 C0.36 11.67 -2.28 11.34 -5 11 C-5.66 9.35 -6.32 7.7 -7 6 C-5.68 6 -4.36 6 -3 6 C-2.814375 5.071875 -2.814375 5.071875 -2.625 4.125 C-2 2 -2 2 0 0 Z " fill="#183559" transform="translate(107,101)"/>
<path d="M0 0 C3.52387645 4.11118919 6 7.46508112 6 13 C4.02253397 13.73080266 2.01927511 14.39421747 0 15 C-0.66 14.67 -1.32 14.34 -2 14 C-2.625 11.9375 -2.625 11.9375 -3 10 C-2.01 9.67 -1.02 9.34 0 9 C0 6.03 0 3.06 0 0 Z " fill="#183D61" transform="translate(120,74)"/>
<path d="M0 0 C0.99 0 1.98 0 3 0 C3.33 2.97 3.66 5.94 4 9 C0.62537285 8.45276317 -1.08235 7.9451 -4 6 C-4 6.33 -4 6.66 -4 7 C-5.98 7 -7.96 7 -10 7 C-9.67 5.68 -9.34 4.36 -9 3 C-7.88625 2.87625 -6.7725 2.7525 -5.625 2.625 C-1.96896323 2.3534187 -1.96896323 2.3534187 0 0 Z " fill="#142E50" transform="translate(54,3)"/>
<path d="M0 0 C1.1656984 3.49709519 0.77554464 4.0942713 -0.5625 7.375 C-1.54785446 10.22055633 -2.03122904 11.72518445 -1.6875 14.75 C0.87350576 18.16467434 4.29390853 19.97457792 8 22 C6.02 22.99 6.02 22.99 4 24 C-1.80205656 18.35475578 -1.80205656 18.35475578 -4 15 C-4 14.34 -4 13.68 -4 13 C-4.66 13 -5.32 13 -6 13 C-5.125 5.25 -5.125 5.25 -4 3 C-3.01 2.67 -2.02 2.34 -1 2 C-0.67 1.34 -0.34 0.68 0 0 Z " fill="#316A85" transform="translate(32,83)"/>
<path d="M0 0 C0 0.66 0 1.32 0 2 C0.66 2 1.32 2 2 2 C3.2890625 3.53125 3.2890625 3.53125 4.625 5.5 C5.07101563 6.1496875 5.51703125 6.799375 5.9765625 7.46875 C6.48316406 8.22671875 6.48316406 8.22671875 7 9 C3.93405247 9.96017795 3.13022555 10.04518029 -0.0625 8.9375 C-3.4888137 6.67759096 -4.49523736 4.7619066 -6 1 C-4 0 -4 0 0 0 Z " fill="#256A92" transform="translate(51,93)"/>
<path d="M0 0 C0 0.66 0 1.32 0 2 C-0.66 2 -1.32 2 -2 2 C-2.33 3.98 -2.66 5.96 -3 8 C-7.29 8 -11.58 8 -16 8 C-16 7.67 -16 7.34 -16 7 C-14.35 6.67 -12.7 6.34 -11 6 C-11.33 5.01 -11.66 4.02 -12 3 C-11.236875 2.87625 -10.47375 2.7525 -9.6875 2.625 C-5.68734608 1.69473165 -4.35155326 0 0 0 Z " fill="#216590" transform="translate(83,61)"/>
<path d="M0 0 C1.9375 0.3125 1.9375 0.3125 4 1 C5.03864166 4.11592499 5.09036928 5.0262656 4 8 C3.01 8.495 3.01 8.495 2 9 C2.33 10.65 2.66 12.3 3 14 C2.01 14 1.02 14 0 14 C-3.125 7.375 -3.125 7.375 -2 4 C-1.67 3.67 -1.34 3.34 -1 3 C-0.67 2.01 -0.34 1.02 0 0 Z " fill="#214E6E" transform="translate(76,32)"/>
<path d="M0 0 C0.99 0.66 1.98 1.32 3 2 C3.99 2 4.98 2 6 2 C6 2.99 6 3.98 6 5 C5.01 4.67 4.02 4.34 3 4 C3 4.66 3 5.32 3 6 C1.35 6 -0.3 6 -2 6 C-2 6.66 -2 7.32 -2 8 C-2 8.33 -2 8.66 -2 9 C-1.34 9 -0.68 9 0 9 C0 9.66 0 10.32 0 11 C-1.75 11.75 -1.75 11.75 -4 12 C-6.25 10.1875 -6.25 10.1875 -8 8 C-8 7.34 -8 6.68 -8 6 C-7.05125 5.566875 -6.1025 5.13375 -5.125 4.6875 C-1.79958063 3.20697799 -1.79958063 3.20697799 0 0 Z " fill="#21496D" transform="translate(99,96)"/>
<path d="M0 0 C0.33 0 0.66 0 1 0 C1 1.98 1 3.96 1 6 C1.66 6.33 2.32 6.66 3 7 C2.01 7 1.02 7 0 7 C-0.62529897 12.0247239 -1.13012092 16.92528427 -1 22 C-1.66 22.33 -2.32 22.66 -3 23 C-4.72328659 19.39967633 -6.2191716 15.92568207 -7 12 C-5.85790708 8.96398415 -4.60738951 8.09724808 -2 6 C-1.34 6 -0.68 6 0 6 C0 4.02 0 2.04 0 0 Z " fill="#1B486F" transform="translate(48,17)"/>
<path d="M0 0 C0.66 0 1.32 0 2 0 C2.33 2.64 2.66 5.28 3 8 C3.66 8 4.32 8 5 8 C5 11.3 5 14.6 5 18 C4.34 18 3.68 18 3 18 C3 17.34 3 16.68 3 16 C2.34 16 1.68 16 1 16 C0 13 -1 10 -2 7 C-1.01 7 -0.02 7 1 7 C0.67 4.69 0.34 2.38 0 0 Z " fill="#225A7E" transform="translate(5,83)"/>
<path d="M0 0 C0.99 0 1.98 0 3 0 C3.33 0.66 3.66 1.32 4 2 C4.66 2 5.32 2 6 2 C6.37683742 7.52694878 6.37683742 7.52694878 4.53125 9.84375 C2.60430756 12.55719956 2.50868586 14.45407747 2.3125 17.75 C2.24675781 18.73484375 2.18101563 19.7196875 2.11328125 20.734375 C2.07589844 21.48203125 2.03851563 22.2296875 2 23 C1.34 23 0.68 23 0 23 C0.33 16.4 0.66 9.8 1 3 C0.34 2.67 -0.32 2.34 -1 2 C-0.67 1.34 -0.34 0.68 0 0 Z " fill="#103668" transform="translate(46,41)"/>
<path d="M0 0 C0.66 0.33 1.32 0.66 2 1 C1.90460937 1.67546875 1.80921875 2.3509375 1.7109375 3.046875 C1.60007812 3.93890625 1.48921875 4.8309375 1.375 5.75 C1.25898438 6.63171875 1.14296875 7.5134375 1.0234375 8.421875 C0.99792183 11.22859878 1.55156156 12.63384866 3 15 C1.68 15.33 0.36 15.66 -1 16 C-1.33 13.36 -1.66 10.72 -2 8 C-2.66 8 -3.32 8 -4 8 C-4.33 7.01 -4.66 6.02 -5 5 C-3.35 3.35 -1.7 1.7 0 0 Z " fill="#1D486B" transform="translate(9,75)"/>
<path d="M0 0 C-0.33 1.32 -0.66 2.64 -1 4 C-1.99 3.67 -2.98 3.34 -4 3 C-4.99 6.3 -5.98 9.6 -7 13 C-7.66 13 -8.32 13 -9 13 C-9.66 9.37 -10.32 5.74 -11 2 C-10.071875 1.855625 -9.14375 1.71125 -8.1875 1.5625 C-5.38271427 1.06753781 -2.83105141 0 0 0 Z " fill="#236E9A" transform="translate(104,64)"/>
<path d="M0 0 C1.32 0 2.64 0 4 0 C4 2.64 4 5.28 4 8 C4.66 8.33 5.32 8.66 6 9 C4.02 10.32 2.04 11.64 0 13 C0.185625 11.865625 0.37125 10.73125 0.5625 9.5625 C0.706875 8.386875 0.85125 7.21125 1 6 C0.67 5.67 0.34 5.34 0 5 C-0.12375 5.804375 -0.2475 6.60875 -0.375 7.4375 C-0.58125 8.283125 -0.7875 9.12875 -1 10 C-1.99 10.495 -1.99 10.495 -3 11 C-3.33 9.02 -3.66 7.04 -4 5 C-3.01 4.67 -2.02 4.34 -1 4 C-0.26676204 1.98491642 -0.26676204 1.98491642 0 0 Z " fill="#1E4B6E" transform="translate(54,24)"/>
<path d="M0 0 C4.43090471 1.20842856 6.98112756 2.51668565 10 6 C9.236875 6.268125 8.47375 6.53625 7.6875 6.8125 C5.09503074 7.95800967 3.91184456 8.99711522 2 11 C1.34 11 0.68 11 0 11 C-0.625 8.625 -0.625 8.625 -1 6 C-0.34 5.34 0.32 4.68 1 4 C0.6814823 1.89179203 0.6814823 1.89179203 0 0 Z " fill="#162F55" transform="translate(70,3)"/>
<path d="M0 0 C0.66 0.99 1.32 1.98 2 3 C3.99571323 3.67939174 5.99594773 4.34561559 8 5 C9.875 6.625 9.875 6.625 11 8 C10.01 8 9.02 8 8 8 C8.66 8.33 9.32 8.66 10 9 C10 10.32 10 11.64 10 13 C10.99 13.33 11.98 13.66 13 14 C11.68 14 10.36 14 9 14 C7.96434215 12.69417053 6.96873032 11.35622245 6 10 C5.175 9.525625 4.35 9.05125 3.5 8.5625 C0.60372272 6.7523267 -0.45778219 5.00326627 -2 2 C-1.34 1.34 -0.68 0.68 0 0 Z " fill="#29658A" transform="translate(67,86)"/>
<path d="M0 0 C1.37086915 1.29470975 2.71340837 2.62150897 4 4 C3 5 3 5 -0.5625 5.0625 C-1.696875 5.041875 -2.83125 5.02125 -4 5 C-3.01 4.34 -2.02 3.68 -1 3 C-4.40312738 4.05875074 -7.01353231 5.00902154 -10 7 C-9.7525 6.0409375 -9.7525 6.0409375 -9.5 5.0625 C-8.96073333 3.19173179 -8.96073333 3.19173179 -9 2 C-9 1.01 -9 0.02 -9 -1 C-5.20965187 -2.05287448 -3.29656082 -2.23315411 0 0 Z " fill="#224F72" transform="translate(28,78)"/>
<path d="M0 0 C3.80097811 0.54299687 5.57457897 2.07276772 8 5 C8.75 7.25 8.75 7.25 9 9 C6.6568787 8.74438677 4.32156597 8.40729228 2 8 C1.67 7.34 1.34 6.68 1 6 C-1.02463255 5.34786708 -1.02463255 5.34786708 -3 5 C-2.01 3.35 -1.02 1.7 0 0 Z " fill="#2070A5" transform="translate(70,101)"/>
<path d="M0 0 C0.99 0.33 1.98 0.66 3 1 C3.99 1 4.98 1 6 1 C6.33 2.65 6.66 4.3 7 6 C7.66 6 8.32 6 9 6 C7.66666667 8.66666667 6.33333333 11.33333333 5 14 C4 11 4 11 4 9 C3.01 9 2.02 9 1 9 C-0.4783226 6.04335481 -0.06032783 3.25770263 0 0 Z " fill="#163658" transform="translate(2,98)"/>
<path d="M0 0 C0.33 0 0.66 0 1 0 C1.08159574 4.16138263 0.98248524 7.9472484 0 12 C-2.64 12 -5.28 12 -8 12 C-8.66 10.35 -9.32 8.7 -10 7 C-9.34 6.34 -8.68 5.68 -8 5 C-7.01 6.485 -7.01 6.485 -6 8 C-4.68 7.67 -3.36 7.34 -2 7 C-1.34 4.69 -0.68 2.38 0 0 Z " fill="#2D7A9F" transform="translate(118,76)"/>
<path d="M0 0 C0.33 1.32 0.66 2.64 1 4 C1.66 4 2.32 4 3 4 C3.33 2.68 3.66 1.36 4 0 C6.67484705 2.67484705 6.09113004 8.51167421 6.1875 12.1875 C6 16 6 16 4 20 C3.67 16.7 3.34 13.4 3 10 C2.01 9.67 1.02 9.34 0 9 C0 6.03 0 3.06 0 0 Z " fill="#28637F" transform="translate(106,39)"/>
<path d="M0 0 C0.33 0 0.66 0 1 0 C1.33 4.29 1.66 8.58 2 13 C1.67 13 1.34 13 1 13 C0.67 15.31 0.34 17.62 0 20 C-0.66 20 -1.32 20 -2 20 C-2.33 20.66 -2.66 21.32 -3 22 C-3 17.05 -3 12.1 -3 7 C-2.34 7.66 -1.68 8.32 -1 9 C-0.67 6.03 -0.34 3.06 0 0 Z " fill="#256793" transform="translate(52,40)"/>
<path d="M0 0 C0 3.3 0 6.6 0 10 C-0.66 10 -1.32 10 -2 10 C-2 14.29 -2 18.58 -2 23 C-2.99 23 -3.98 23 -5 23 C-5 20.03 -5 17.06 -5 14 C-4.67 14 -4.34 14 -4 14 C-4.03480469 13.24074219 -4.06960937 12.48148438 -4.10546875 11.69921875 C-4.13253906 10.70535156 -4.15960937 9.71148437 -4.1875 8.6875 C-4.22230469 7.70136719 -4.25710937 6.71523438 -4.29296875 5.69921875 C-4 3 -4 3 -2.55078125 1.14453125 C-1 0 -1 0 0 0 Z " fill="#0E254A" transform="translate(34,25)"/>
<path d="M0 0 C0 0.99 0 1.98 0 3 C-1.32 2.67 -2.64 2.34 -4 2 C-4 2.66 -4 3.32 -4 4 C-8.33273814 4.92844389 -11.66726186 4.92844389 -16 4 C-15.34 3.01 -14.68 2.02 -14 1 C-9.28508449 0.13559882 -4.79755596 -0.1199389 0 0 Z " fill="#1A456B" transform="translate(106,121)"/>
<path d="M0 0 C1.70884005 1.62339805 3.37446717 3.29319053 5 5 C5.66 5.66 6.32 6.32 7 7 C5.4375 8.25 5.4375 8.25 3 9 C0.42998985 7.93237266 -1.6530403 6.53455057 -4 5 C-4 3.68 -4 2.36 -4 1 C-2 0 -2 0 0 0 Z " fill="#13335A" transform="translate(71,114)"/>
<path d="M0 0 C5.94 0.99 5.94 0.99 12 2 C12.33 4.31 12.66 6.62 13 9 C12.01 8.34 11.02 7.68 10 7 C9.01 7 8.02 7 7 7 C6.34 6.34 5.68 5.68 5 5 C4.34 4.67 3.68 4.34 3 4 C2.01 3.34 1.02 2.68 0 2 C0 1.34 0 0.68 0 0 Z " fill="#1E4D76" transform="translate(48,101)"/>
<path d="M0 0 C0.66 1.32 1.32 2.64 2 4 C-0.63904371 5.41377341 -3.07120629 6.37240135 -6 7 C-6 6.34 -6 5.68 -6 5 C-6.66 5 -7.32 5 -8 5 C-8 6.98 -8 8.96 -8 11 C-9.32 11 -10.64 11 -12 11 C-11.25 6.25 -11.25 6.25 -9 4 C-6.66666667 3.33333333 -4.33333333 2.66666667 -2 2 C-1.34 1.34 -0.68 0.68 0 0 Z " fill="#122C51" transform="translate(33,80)"/>
<path d="M0 0 C1.8671875 1.14453125 1.8671875 1.14453125 3.875 2.8125 C6.81630908 5.15143767 9.36859274 6.86518523 13 8 C13 8.99 13 9.98 13 11 C14.43990623 13.17032476 14.43990623 13.17032476 16 15 C15.34 15.66 14.68 16.32 14 17 C13.46375 16.113125 12.9275 15.22625 12.375 14.3125 C8.45044746 8.47386745 3.42583464 5.44181717 -3 3 C-3 2.34 -3 1.68 -3 1 C-2.01 0.67 -1.02 0.34 0 0 Z " fill="#2A5C75" transform="translate(84,69)"/>
<path d="M0 0 C0.99 0 1.98 0 3 0 C3 0.99 3 1.98 3 3 C3.66 3.33 4.32 3.66 5 4 C5 4.66 5 5.32 5 6 C5.66 6.33 6.32 6.66 7 7 C7 8.65 7 10.3 7 12 C6.67 11.34 6.34 10.68 6 10 C5.01 9.67 4.02 9.34 3 9 C2.34 9.99 1.68 10.98 1 12 C0.36605303 7.95858806 -0.12404452 4.0934693 0 0 Z " fill="#257096" transform="translate(107,61)"/>
<path d="M0 0 C0.66 0.33 1.32 0.66 2 1 C1.01 2.485 1.01 2.485 0 4 C0.99 4.99 1.98 5.98 3 7 C2.01 7.33 1.02 7.66 0 8 C-0.9590625 8.3403125 -0.9590625 8.3403125 -1.9375 8.6875 C-4.56628048 9.08580007 -5.76885014 8.3546267 -8 7 C-8 6.34 -8 5.68 -8 5 C-6.3203125 3.67578125 -6.3203125 3.67578125 -4.125 2.3125 C-3.40570313 1.85488281 -2.68640625 1.39726563 -1.9453125 0.92578125 C-1.30335937 0.62027344 -0.66140625 0.31476562 0 0 Z " fill="#266183" transform="translate(97,49)"/>
<path d="M0 0 C1.98 0.99 1.98 0.99 4 2 C4 2.66 4 3.32 4 4 C4.66 4 5.32 4 6 4 C6 4.66 6 5.32 6 6 C7.98 5.34 9.96 4.68 12 4 C10.02 6.64 8.04 9.28 6 12 C5.34 11.67 4.68 11.34 4 11 C4 10.34 4 9.68 4 9 C4.66 9 5.32 9 6 9 C6 8.34 6 7.68 6 7 C5.34 7 4.68 7 4 7 C4 6.34 4 5.68 4 5 C3.34 5 2.68 5 2 5 C2 6.65 2 8.3 2 10 C1.67 10 1.34 10 1 10 C0.67 6.7 0.34 3.4 0 0 Z " fill="#0E294F" transform="translate(10,74)"/>
<path d="M0 0 C0 2.64 0 5.28 0 8 C0.66 8 1.32 8 2 8 C2 11.96 2 15.92 2 20 C1.67 20 1.34 20 1 20 C1 16.7 1 13.4 1 10 C0.34 10 -0.32 10 -1 10 C-1 11.32 -1 12.64 -1 14 C-1.66 14 -2.32 14 -3 14 C-3 11.36 -3 8.72 -3 6 C-2.34 6 -1.68 6 -1 6 C-1 5.01 -1 4.02 -1 3 C-1.66 3 -2.32 3 -3 3 C-3 2.34 -3 1.68 -3 1 C-1 0 -1 0 0 0 Z " fill="#246F98" transform="translate(35,46)"/>
<path d="M0 0 C0.33 0.66 0.66 1.32 1 2 C1.66 2 2.32 2 3 2 C3.33 2.66 3.66 3.32 4 4 C4.99 4 5.98 4 7 4 C7 5.65 7 7.3 7 9 C3.7 9 0.4 9 -3 9 C-3 8.34 -3 7.68 -3 7 C-1.68 7 -0.36 7 1 7 C0.67 4.69 0.34 2.38 0 0 Z " fill="#28658A" transform="translate(62,3)"/>
<path d="M0 0 C0.33 0 0.66 0 1 0 C1.33 1.65 1.66 3.3 2 5 C5.37367885 5.06615057 8.44945626 5.12512358 11.75 4.375 C14 4 14 4 17 6 C17.33 6.66 17.66 7.32 18 8 C16.95199219 7.98839844 15.90398438 7.97679688 14.82421875 7.96484375 C13.44531428 7.95546345 12.06640789 7.9463635 10.6875 7.9375 C9.99720703 7.92912109 9.30691406 7.92074219 8.59570312 7.91210938 C5.4516975 7.89692094 3.00579981 7.99806673 0 9 C-1.10844919 5.67465243 -0.84454356 3.37817425 0 0 Z " fill="#173658" transform="translate(28,101)"/>
<path d="M0 0 C2.50037734 2.17424117 3.43628586 3.73045798 4 7 C2.02 8.32 0.04 9.64 -2 11 C-2.33 10.01 -2.66 9.02 -3 8 C-3.66 8 -4.32 8 -5 8 C-5 6.68 -5 5.36 -5 4 C-4.01 4.33 -3.02 4.66 -2 5 C-2 5.66 -2 6.32 -2 7 C-1.34 7 -0.68 7 0 7 C0 4.69 0 2.38 0 0 Z " fill="#247CAC" transform="translate(56,79)"/>
<path d="M0 0 C6.93 0 13.86 0 21 0 C18 3 18 3 14.78515625 3.328125 C13.55667969 3.30234375 12.32820313 3.2765625 11.0625 3.25 C9.83660156 3.23453125 8.61070313 3.2190625 7.34765625 3.203125 C4.70592755 3.04283341 2.50886175 2.77969638 0 2 C0 1.34 0 0.68 0 0 Z " fill="#4F829C" transform="translate(80,125)"/>
<path d="M0 0 C2.33333333 0 4.66666667 0 7 0 C7 0.66 7 1.32 7 2 C6.34 2 5.68 2 5 2 C5 4.31 5 6.62 5 9 C5.99 9 6.98 9 8 9 C8 9.66 8 10.32 8 11 C5.03 11 2.06 11 -1 11 C-0.34 10.34 0.32 9.68 1 9 C1.40047444 6.67724823 1.7397104 4.34260643 2 2 C1.34 2 0.68 2 0 2 C0 1.34 0 0.68 0 0 Z " fill="#2C8BB4" transform="translate(13,92)"/>
<path d="M0 0 C0.55429688 0.16757813 1.10859375 0.33515625 1.6796875 0.5078125 C2.40414062 0.71148437 3.12859375 0.91515625 3.875 1.125 C4.59429687 1.33382812 5.31359375 1.54265625 6.0546875 1.7578125 C6.69664063 1.83773437 7.33859375 1.91765625 8 2 C8.66 1.34 9.32 0.68 10 0 C13.625 0.375 13.625 0.375 17 1 C14.92195123 3.07804877 13.75672886 4.03141959 11 5 C6.89277194 4.70662657 3.54983057 4.12989834 0 2 C0 1.34 0 0.68 0 0 Z " fill="#2A5C7A" transform="translate(68,120)"/>
<path d="M0 0 C3.465 1.485 3.465 1.485 7 3 C7 4.32 7 5.64 7 7 C6.01 7 5.02 7 4 7 C4 6.01 4 5.02 4 4 C0.04 4 -3.92 4 -8 4 C-8 3.34 -8 2.68 -8 2 C-5.36 2 -2.72 2 0 2 C0 1.34 0 0.68 0 0 Z " fill="#31698A" transform="translate(105,116)"/>
<path d="M0 0 C1.45742463 -0.08096803 2.91612807 -0.13917774 4.375 -0.1875 C5.18710937 -0.22230469 5.99921875 -0.25710937 6.8359375 -0.29296875 C7.55007812 -0.19628906 8.26421875 -0.09960938 9 0 C11 3 11 3 11 6 C9.68 6 8.36 6 7 6 C7 5.34 7 4.68 7 4 C6.01 4.33 5.02 4.66 4 5 C3.67 4.34 3.34 3.68 3 3 C3.33 2.34 3.66 1.68 4 1 C2.68 0.67 1.36 0.34 0 0 Z " fill="#226A99" transform="translate(29,68)"/>
<path d="M0 0 C2.97 0.495 2.97 0.495 6 1 C6 2.98 6 4.96 6 7 C5.01 7.495 5.01 7.495 4 8 C4 6.35 4 4.7 4 3 C3.34 3 2.68 3 2 3 C1.67 4.32 1.34 5.64 1 7 C-0.65 5.68 -2.3 4.36 -4 3 C-2.68 2.67 -1.36 2.34 0 2 C0 1.34 0 0.68 0 0 Z " fill="#1C5A86" transform="translate(41,43)"/>
<path d="M0 0 C0.66 0 1.32 0 2 0 C2 0.66 2 1.32 2 2 C2.66 2.33 3.32 2.66 4 3 C3.67 5.64 3.34 8.28 3 11 C2.67 11 2.34 11 2 11 C1.731875 9.865625 1.46375 8.73125 1.1875 7.5625 C0.795625 6.386875 0.40375 5.21125 0 4 C-0.99 3.67 -1.98 3.34 -3 3 C-3.33 3.66 -3.66 4.32 -4 5 C-4 4.34 -4 3.68 -4 3 C-7.63 3.33 -11.26 3.66 -15 4 C-15 3.34 -15 2.68 -15 2 C-9.77254141 0.7936634 -5.23471686 1.24387423 0 2 C0 1.34 0 0.68 0 0 Z " fill="#1B578C" transform="translate(73,20)"/>
<path d="M0 0 C0.66 0 1.32 0 2 0 C2.33 0.99 2.66 1.98 3 3 C3.66 2.34 4.32 1.68 5 1 C7.68839385 0.73008094 10.29141936 0.91262643 13 1 C11.1875 3 11.1875 3 9 5 C8.01 5 7.02 5 6 5 C5.67 5.66 5.34 6.32 5 7 C5 6.34 5 5.68 5 5 C3.35 5 1.7 5 0 5 C-0.33 4.34 -0.66 3.68 -1 3 C-0.67 2.01 -0.34 1.02 0 0 Z " fill="#275D7E" transform="translate(29,112)"/>
<path d="M0 0 C-1.33333333 2.66666667 -2.66666667 5.33333333 -4 8 C-4.99 8 -5.98 8 -7 8 C-7.33 8.66 -7.66 9.32 -8 10 C-8.93423645 6.98968256 -9.04449911 6.13349732 -8 3 C-2.77777778 0 -2.77777778 0 0 0 Z " fill="#3079A5" transform="translate(43,74)"/>
<path d="M0 0 C-1.32 0.33 -2.64 0.66 -4 1 C-4 1.66 -4 2.32 -4 3 C-7.9813783 4.3271261 -11.85045227 4.06915913 -16 4 C-13.66468254 0.49702381 -12.11314738 0.16478829 -8.109375 -0.7265625 C-5.25227816 -1.0969269 -2.7791346 -0.69478365 0 0 Z " fill="#1D507A" transform="translate(74,62)"/>
<path d="M0 0 C0.66 0 1.32 0 2 0 C2 3.63 2 7.26 2 11 C0.68 11 -0.64 11 -2 11 C-2 8.69 -2 6.38 -2 4 C-1.34 4 -0.68 4 0 4 C0 2.68 0 1.36 0 0 Z " fill="#194C78" transform="translate(34,56)"/>
<path d="M0 0 C0.33 0 0.66 0 1 0 C1.66 4.29 2.32 8.58 3 13 C1.68 12.67 0.36 12.34 -1 12 C-1 10.35 -1 8.7 -1 7 C-1.66 7 -2.32 7 -3 7 C-2.25 2.25 -2.25 2.25 0 0 Z " fill="#123157" transform="translate(109,51)"/>
<path d="M0 0 C0.99 0.33 1.98 0.66 3 1 C3.84454356 4.37817425 4.10844919 6.67465243 3 10 C2.34 10 1.68 10 1 10 C1 8.68 1 7.36 1 6 C0.01 6 -0.98 6 -2 6 C-1.125 1.125 -1.125 1.125 0 0 Z " fill="#173F61" transform="translate(106,33)"/>
<path d="M0 0 C2.23304926 0.93644001 3.42907644 1.92697056 4.9375 3.8125 C4.9375 4.4725 4.9375 5.1325 4.9375 5.8125 C2.6275 5.4825 0.3175 5.1525 -2.0625 4.8125 C-2.3925 5.4725 -2.7225 6.1325 -3.0625 6.8125 C-3.7225 6.1525 -4.3825 5.4925 -5.0625 4.8125 C-4.4025 4.8125 -3.7425 4.8125 -3.0625 4.8125 C-3.0625 4.1525 -3.0625 3.4925 -3.0625 2.8125 C-4.0525 2.4825 -5.0425 2.1525 -6.0625 1.8125 C-3.8753711 0.48460031 -2.58529544 -0.23502686 0 0 Z " fill="#265B83" transform="translate(50.0625,8.1875)"/>
<path d="M0 0 C2.97 0.495 2.97 0.495 6 1 C6.33 2.98 6.66 4.96 7 7 C5.68 7 4.36 7 3 7 C3 5.68 3 4.36 3 3 C2.34 3 1.68 3 1 3 C1.33 4.98 1.66 6.96 2 9 C1.01 9 0.02 9 -1 9 C-0.67 6.03 -0.34 3.06 0 0 Z " fill="#267AA5" transform="translate(101,89)"/>
<path d="M0 0 C2.4375 0.75 2.4375 0.75 5 2 C5.8125 4.125 5.8125 4.125 6 6 C4.35 6 2.7 6 1 6 C0.67 7.65 0.34 9.3 0 11 C-0.33 11 -0.66 11 -1 11 C-1.22174933 9.54364629 -1.42698698 8.08477044 -1.625 6.625 C-1.74101563 5.81289062 -1.85703125 5.00078125 -1.9765625 4.1640625 C-1.98429687 3.44992188 -1.99203125 2.73578125 -2 2 C-1.34 1.34 -0.68 0.68 0 0 Z " fill="#1E496C" transform="translate(101,84)"/>
<path d="M0 0 C0 1.65 0 3.3 0 5 C-0.99 5 -1.98 5 -3 5 C-3 6.98 -3 8.96 -3 11 C-3.66 11 -4.32 11 -5 11 C-5.66 9.35 -6.32 7.7 -7 6 C-6.34 6 -5.68 6 -5 6 C-5 4.68 -5 3.36 -5 2 C-2 0 -2 0 0 0 Z " fill="#1A5682" transform="translate(45,55)"/>
<path d="M0 0 C1.32 0 2.64 0 4 0 C4.33 2.64 4.66 5.28 5 8 C5.66 7.67 6.32 7.34 7 7 C6.34 8.98 5.68 10.96 5 13 C4.01 12.67 3.02 12.34 2 12 C2.03480469 11.07767578 2.03480469 11.07767578 2.0703125 10.13671875 C2.08835937 9.32847656 2.10640625 8.52023438 2.125 7.6875 C2.15980469 6.48673828 2.15980469 6.48673828 2.1953125 5.26171875 C2.15817322 2.71611424 2.15817322 2.71611424 0 0 Z " fill="#11325A" transform="translate(78,31)"/>
<path d="M0 0 C0.99 0 1.98 0 3 0 C3 2.97 3 5.94 3 9 C3.66 9.33 4.32 9.66 5 10 C4.01 10.99 3.02 11.98 2 13 C1.34 12.67 0.68 12.34 0 12 C0 8.04 0 4.08 0 0 Z " fill="#20567A" transform="translate(36,26)"/>
<path d="M0 0 C2.64 0 5.28 0 8 0 C8.33 1.65 8.66 3.3 9 5 C3.375 5.25 3.375 5.25 0 3 C0 2.01 0 1.02 0 0 Z " fill="#2F83A8" transform="translate(110,97)"/>
<path d="M0 0 C6 6 6 6 6.0625 9.0625 C6.041875 10.031875 6.02125 11.00125 6 12 C5.01 12 4.02 12 3 12 C1.82923301 8.01939223 0.74250597 4.08378283 0 0 Z " fill="#163C6A" transform="translate(58,74)"/>
<path d="M0 0 C0 2.31 0 4.62 0 7 C-0.33 6.34 -0.66 5.68 -1 5 C-1.66 5 -2.32 5 -3 5 C-2.67 6.65 -2.34 8.3 -2 10 C-3.65 9.67 -5.3 9.34 -7 9 C-6.63229616 5.6906654 -3.81323709 0 0 0 Z " fill="#0F2D55" transform="translate(53,24)"/>
<path d="M0 0 C3.63 0 7.26 0 11 0 C11.33 0.99 11.66 1.98 12 3 C9.36 2.67 6.72 2.34 4 2 C4 3.65 4 5.3 4 7 C3.34 7 2.68 7 2 7 C2 5.35 2 3.7 2 2 C1.34 2 0.68 2 0 2 C0 1.34 0 0.68 0 0 Z " fill="#2585B6" transform="translate(47,15)"/>
<path d="M0 0 C2.31 0.66 4.62 1.32 7 2 C7 2.99 7 3.98 7 5 C5.68 5 4.36 5 3 5 C3 5.99 3 6.98 3 8 C2.01 7.67 1.02 7.34 0 7 C0 6.34 0 5.68 0 5 C0.66 5 1.32 5 2 5 C2 4.34 2 3.68 2 3 C0.68 3.33 -0.64 3.66 -2 4 C-2.33 3.34 -2.66 2.68 -3 2 C-2.01 2 -1.02 2 0 2 C0 1.34 0 0.68 0 0 Z " fill="#296589" transform="translate(97,102)"/>
<path d="M0 0 C0 1.65 0 3.3 0 5 C-3.37705625 4.46274105 -6.696686 3.88935377 -10 3 C-10 2.34 -10 1.68 -10 1 C-6.56484998 0.37542727 -3.50935186 0 0 0 Z " fill="#2085B5" transform="translate(126,91)"/>
<path d="M0 0 C1.65 0 3.3 0 5 0 C7.125 4.625 7.125 4.625 6 8 C4.02 7.01 2.04 6.02 0 5 C0 3.35 0 1.7 0 0 Z " fill="#1C517D" transform="translate(62,103)"/>
<path d="M0 0 C1.98 0.66 3.96 1.32 6 2 C2.54785147 4.30143236 1.76520676 4.13833854 -2.1875 3.625 C-3.08855469 3.51414062 -3.98960938 3.40328125 -4.91796875 3.2890625 C-5.60503906 3.19367188 -6.29210937 3.09828125 -7 3 C-7.33 3.66 -7.66 4.32 -8 5 C-8.33 3.68 -8.66 2.36 -9 1 C-7.700625 1.020625 -6.40125 1.04125 -5.0625 1.0625 C-3.70834367 1.08399454 -2.35243917 1.07148199 -1 1 C-0.67 0.67 -0.34 0.34 0 0 Z " fill="#165387" transform="translate(119,88)"/>
<path d="M0 0 C1.32 0 2.64 0 4 0 C4 0.66 4 1.32 4 2 C4.66 2 5.32 2 6 2 C6 3.32 6 4.64 6 6 C5.01 5.67 4.02 5.34 3 5 C2.67 5.33 2.34 5.66 2 6 C0.68 4.68 -0.64 3.36 -2 2 C-1.34 1.34 -0.68 0.68 0 0 Z " fill="#236088" transform="translate(47,93)"/>
<path d="M0 0 C1.485 0.99 1.485 0.99 3 2 C3 3.32 3 4.64 3 6 C3.66 6.33 4.32 6.66 5 7 C4.01 7.99 3.02 8.98 2 10 C1.01 9.67 0.02 9.34 -1 9 C-1.09765625 2.84765625 -1.09765625 2.84765625 -1 1 C-0.67 0.67 -0.34 0.34 0 0 Z " fill="#216392" transform="translate(64,78)"/>
<path d="M0 0 C0.66 0 1.32 0 2 0 C2 0.66 2 1.32 2 2 C3.32 2.33 4.64 2.66 6 3 C3.69 4.98 1.38 6.96 -1 9 C-2.25541557 5.23375329 -1.37061958 3.62811066 0 0 Z " fill="#1D5183" transform="translate(34,72)"/>
<path d="M0 0 C3.375 -0.125 3.375 -0.125 7 0 C7.66 0.66 8.32 1.32 9 2 C7.02 3.32 5.04 4.64 3 6 C1.68 5.34 0.36 4.68 -1 4 C-0.01 3.34 0.98 2.68 2 2 C1.34 1.34 0.68 0.68 0 0 Z " fill="#3AA0C9" transform="translate(43,68)"/>
<path d="M0 0 C0.99 0.33 1.98 0.66 3 1 C2.67 4.3 2.34 7.6 2 11 C0.68 10.01 -0.64 9.02 -2 8 C-1.125 1.125 -1.125 1.125 0 0 Z " fill="#122B4B" transform="translate(12,107)"/>
<path d="M0 0 C0.66 0 1.32 0 2 0 C2.3125 2.6875 2.3125 2.6875 2 6 C-0.5 8.875 -0.5 8.875 -3 11 C-3.66 7.7 -4.32 4.4 -5 1 C-3.02 1.99 -3.02 1.99 -1 3 C-0.67 2.01 -0.34 1.02 0 0 Z " fill="#245374" transform="translate(26,104)"/>
<path d="M0 0 C3.3 0 6.6 0 10 0 C10 1.65 10 3.3 10 5 C9.01 5 8.02 5 7 5 C7 4.34 7 3.68 7 3 C6.34 3 5.68 3 5 3 C4.67 3.66 4.34 4.32 4 5 C3.34 4.34 2.68 3.68 2 3 C2.66 3 3.32 3 4 3 C4 2.34 4 1.68 4 1 C2.68 0.67 1.36 0.34 0 0 Z " fill="#2694BF" transform="translate(97,61)"/>
<path d="M0 0 C1.1446875 0.12375 1.1446875 0.12375 2.3125 0.25 C1.8175 0.683125 1.3225 1.11625 0.8125 1.5625 C-1.01968192 3.24740483 -1.01968192 3.24740483 -0.6875 6.25 C-0.0275 6.91 0.6325 7.57 1.3125 8.25 C-0.9975 7.92 -3.3075 7.59 -5.6875 7.25 C-5.6875 4.25 -5.6875 4.25 -4.5 2.0625 C-2.6875 0.25 -2.6875 0.25 0 0 Z " fill="#112F58" transform="translate(86.6875,110.75)"/>
<path d="M0 0 C1.98 0 3.96 0 6 0 C6 3 6 3 4.6875 4.6875 C3 6 3 6 0 6 C0 4.02 0 2.04 0 0 Z " fill="#2474A8" transform="translate(77,111)"/>
<path d="M0 0 C1.32 0.33 2.64 0.66 4 1 C5 5.75 5 5.75 5 8 C2.525 7.01 2.525 7.01 0 6 C0 4.02 0 2.04 0 0 Z " fill="#132C4D" transform="translate(24,109)"/>
<path d="M0 0 C0.99 0.66 1.98 1.32 3 2 C3.99 2 4.98 2 6 2 C6 2.99 6 3.98 6 5 C5.01 4.67 4.02 4.34 3 4 C3 4.66 3 5.32 3 6 C1.35 6 -0.3 6 -2 6 C-1.49396008 3.83125748 -1.00016187 2.00032373 0 0 Z " fill="#1A3B5F" transform="translate(99,96)"/>
<path d="M0 0 C0.33 0 0.66 0 1 0 C1 2.97 1 5.94 1 9 C0.67 8.34 0.34 7.68 0 7 C-1.32 7 -2.64 7 -4 7 C-4 7.99 -4 8.98 -4 10 C-5.32 9.67 -6.64 9.34 -8 9 C-7.01 7.35 -6.02 5.7 -5 4 C-4.67 4.66 -4.34 5.32 -4 6 C-2.68 6 -1.36 6 0 6 C0 4.02 0 2.04 0 0 Z " fill="#143C6A" transform="translate(126,90)"/>
<path d="M0 0 C0.66 0.99 1.32 1.98 2 3 C3.99172182 3.69100553 5.99161804 4.35902703 8 5 C8.33 5.66 8.66 6.32 9 7 C3.62694301 7.44041451 3.62694301 7.44041451 1 7 C-1 4.5 -1 4.5 -2 2 C-1.34 1.34 -0.68 0.68 0 0 Z " fill="#2A729C" transform="translate(67,86)"/>
<path d="M0 0 C1.65 1.65 3.3 3.3 5 5 C4.67 5.66 4.34 6.32 4 7 C1.0625 6.25 1.0625 6.25 -2 5 C-2.875 2.875 -2.875 2.875 -3 1 C-2.01 0.67 -1.02 0.34 0 0 Z " fill="#1F567E" transform="translate(71,85)"/>
<path d="M0 0 C1.39195915 4.17587745 -0.17676781 6.13474776 -2 10 C-2.99 9.67 -3.98 9.34 -5 9 C-4.67 7.02 -4.34 5.04 -4 3 C-3.01 2.67 -2.02 2.34 -1 2 C-0.67 1.34 -0.34 0.68 0 0 Z " fill="#234F6D" transform="translate(32,83)"/>
<path d="M0 0 C1.65 0 3.3 0 5 0 C5.33 0.66 5.66 1.32 6 2 C5.0625 4.625 5.0625 4.625 4 7 C3.01 7 2.02 7 1 7 C0.67 4.69 0.34 2.38 0 0 Z " fill="#1E73A3" transform="translate(84,60)"/>
<path d="M0 0 C0.66 0 1.32 0 2 0 C2.66 1.98 3.32 3.96 4 6 C-2.625 5.25 -2.625 5.25 -6 3 C-6 2.34 -6 1.68 -6 1 C-4.68 1 -3.36 1 -2 1 C-1.67 1.66 -1.34 2.32 -1 3 C-0.67 2.01 -0.34 1.02 0 0 Z " fill="#2A80A6" transform="translate(43,46)"/>
<path d="M0 0 C0.928125 0.495 1.85625 0.99 2.8125 1.5 C5.86527516 3.21289852 5.86527516 3.21289852 9 3 C8.34 4.65 7.68 6.3 7 8 C4.50638429 6.79618552 2.31856917 5.54571278 0 4 C0 2.68 0 1.36 0 0 Z " fill="#2892C3" transform="translate(61,98)"/>
<path d="M0 0 C0.33 0 0.66 0 1 0 C1 2.31 1 4.62 1 7 C0.34 7 -0.32 7 -1 7 C-1.33 6.34 -1.66 5.68 -2 5 C-4.02463255 4.34786708 -4.02463255 4.34786708 -6 4 C-6 3.01 -6 2.02 -6 1 C-4.7934375 1.0309375 -4.7934375 1.0309375 -3.5625 1.0625 C-1.06645115 1.29633621 -1.06645115 1.29633621 0 0 Z " fill="#184979" transform="translate(55,79)"/>
<path d="M0 0 C0 0.99 0 1.98 0 3 C-1.19625 3.12375 -2.3925 3.2475 -3.625 3.375 C-7.27596813 3.82325054 -10.54524899 4.70446837 -14 6 C-14 5.34 -14 4.68 -14 4 C-12.42032193 3.32471777 -10.83608097 2.66010306 -9.25 2 C-8.36828125 1.62875 -7.4865625 1.2575 -6.578125 0.875 C-4 0 -4 0 0 0 Z " fill="#2B617B" transform="translate(26,69)"/>
<path d="M0 0 C4.29 0 8.58 0 13 0 C12.67 1.65 12.34 3.3 12 5 C11.34 5 10.68 5 10 5 C9.67 4.34 9.34 3.68 9 3 C6.87423218 2.53348793 6.87423218 2.53348793 4.4375 2.375 C3.61121094 2.30023438 2.78492188 2.22546875 1.93359375 2.1484375 C1.29550781 2.09945312 0.65742188 2.05046875 0 2 C0 1.34 0 0.68 0 0 Z " fill="#2F8DB6" transform="translate(29,66)"/>
<path d="M0 0 C2.31 0 4.62 0 7 0 C7.33 1.65 7.66 3.3 8 5 C7.01 5.33 6.02 5.66 5 6 C4.34 5.34 3.68 4.68 3 4 C2.01 3.34 1.02 2.68 0 2 C0 1.34 0 0.68 0 0 Z " fill="#1A4266" transform="translate(107,116)"/>
<path d="M0 0 C3.3 0 6.6 0 10 0 C10 0.99 10 1.98 10 3 C6.18510326 4.46726798 3.70988378 3.43336419 0 2 C0 1.34 0 0.68 0 0 Z " fill="#1C4565" transform="translate(28,117)"/>
<path d="M0 0 C4.62 0 9.24 0 14 0 C14 0.99 14 1.98 14 3 C12.41676312 3.027193 10.83338938 3.04648306 9.25 3.0625 C7.92742187 3.07990234 7.92742187 3.07990234 6.578125 3.09765625 C4.2181162 3.00826198 2.25501476 2.66912821 0 2 C0 1.34 0 0.68 0 0 Z " fill="#19588C" transform="translate(105,95)"/>
<path d="M0 0 C0.556875 0.350625 1.11375 0.70125 1.6875 1.0625 C5.44318137 2.58507353 8.2832512 1.23891627 12 0 C12 0.66 12 1.32 12 2 C10.03852126 3.38938077 8.03833424 4.7260411 6 6 C3.96166576 4.7260411 1.96147874 3.38938077 0 2 C0 1.34 0 0.68 0 0 Z " fill="#1D6697" transform="translate(47,87)"/>
<path d="M0 0 C1.65 0.33 3.3 0.66 5 1 C4.01 1.33 3.02 1.66 2 2 C2.33 2.99 2.66 3.98 3 5 C0.66666667 5 -1.66666667 5 -4 5 C-4 4.01 -4 3.02 -4 2 C-2.68 2 -1.36 2 0 2 C0 1.34 0 0.68 0 0 Z " fill="#23587A" transform="translate(60,67)"/>
<path d="M0 0 C0.33 0 0.66 0 1 0 C1 4.95 1 9.9 1 15 C0.01 15 -0.98 15 -2 15 C-2 12.36 -2 9.72 -2 7 C-1.34 7 -0.68 7 0 7 C0 4.69 0 2.38 0 0 Z " fill="#1A4B6F" transform="translate(29,49)"/>
<path d="M0 0 C0.66 0 1.32 0 2 0 C2.66 1.32 3.32 2.64 4 4 C4.66 3.67 5.32 3.34 6 3 C6 4.32 6 5.64 6 7 C4.68 7 3.36 7 2 7 C1.67 7.66 1.34 8.32 1 9 C0.67 6.03 0.34 3.06 0 0 Z " fill="#265C82" transform="translate(57,3)"/>
<path d="M0 0 C0.66 0.33 1.32 0.66 2 1 C2.35412344 2.32796291 2.68521554 3.66216607 3 5 C3.99 6.485 3.99 6.485 5 8 C2 8 2 8 0.3125 6.625 C-1 5 -1 5 -1 3 C-1.66 3 -2.32 3 -3 3 C-3 2.34 -3 1.68 -3 1 C-2.01 0.67 -1.02 0.34 0 0 Z " fill="#24577C" transform="translate(72,111)"/>
<path d="M0 0 C0.33 0 0.66 0 1 0 C1 1.65 1 3.3 1 5 C-5.15234375 4.4140625 -5.15234375 4.4140625 -7 4 C-7.33 3.34 -7.66 2.68 -8 2 C-6.865625 1.855625 -5.73125 1.71125 -4.5625 1.5625 C-1.19222799 1.38828522 -1.19222799 1.38828522 0 0 Z " fill="#10264A" transform="translate(109,108)"/>
<path d="M0 0 C1.9375 0.75 1.9375 0.75 4 2 C4.75 4.125 4.75 4.125 5 6 C4.01 6.66 3.02 7.32 2 8 C2.33 6.68 2.66 5.36 3 4 C0.03 3.505 0.03 3.505 -3 3 C-2.01 2.01 -1.02 1.02 0 0 Z " fill="#165B94" transform="translate(61,89)"/>
<path d="M0 0 C1.485 0.99 1.485 0.99 3 2 C3 2.66 3 3.32 3 4 C3.66 4 4.32 4 5 4 C5 5.98 5 7.96 5 10 C4.01 10.495 4.01 10.495 3 11 C3 10.34 3 9.68 3 9 C2.34 9 1.68 9 1 9 C0.67 6.03 0.34 3.06 0 0 Z " fill="#143459" transform="translate(112,73)"/>
<path d="M0 0 C2.64 0 5.28 0 8 0 C8 1.98 8 3.96 8 6 C4.63408134 4.55746343 2.48952921 2.66735273 0 0 Z " fill="#102A52" transform="translate(87,71)"/>
<path d="M0 0 C-0.33 1.32 -0.66 2.64 -1 4 C-1.66 4 -2.32 4 -3 4 C-3.33 5.32 -3.66 6.64 -4 8 C-4.99 7.67 -5.98 7.34 -7 7 C-7 5.68 -7 4.36 -7 3 C-2.92857143 0 -2.92857143 0 0 0 Z " fill="#1B5990" transform="translate(54,69)"/>
<path d="M0 0 C0 3 0 3 -1 5 C-3.06640625 5.4140625 -3.06640625 5.4140625 -5.5625 5.625 C-6.38878906 5.69976562 -7.21507813 5.77453125 -8.06640625 5.8515625 C-9.02353516 5.92503906 -9.02353516 5.92503906 -10 6 C-10 5.67 -10 5.34 -10 5 C-8.35 4.67 -6.7 4.34 -5 4 C-5.33 3.01 -5.66 2.02 -6 1 C-4.02 0.67 -2.04 0.34 0 0 Z " fill="#1A577D" transform="translate(77,63)"/>
<path d="M0 0 C0.99 0 1.98 0 3 0 C2.67 1.98 2.34 3.96 2 6 C0.68 6.33 -0.64 6.66 -2 7 C-2 5.35 -2 3.7 -2 2 C-1.34 2 -0.68 2 0 2 C0 1.34 0 0.68 0 0 Z " fill="#17446E" transform="translate(39,39)"/>
<path d="M0 0 C2.10814567 4.21629134 2.17700355 6.39790775 2 11 C0.68 10.67 -0.64 10.34 -2 10 C-2 10.66 -2 11.32 -2 12 C-2.66 11.67 -3.32 11.34 -4 11 C-3.67 10.34 -3.34 9.68 -3 9 C-2.34 9 -1.68 9 -1 9 C-0.67 6.03 -0.34 3.06 0 0 Z " fill="#2C81A6" transform="translate(41,29)"/>
<path d="M0 0 C0.33 0 0.66 0 1 0 C1 3.3 1 6.6 1 10 C0.01 10 -0.98 10 -2 10 C-2 7.69 -2 5.38 -2 3 C-1.34 3 -0.68 3 0 3 C0 2.01 0 1.02 0 0 Z " fill="#133664" transform="translate(20,91)"/>
<path d="M0 0 C1.32 1.32 2.64 2.64 4 4 C4.33 3.34 4.66 2.68 5 2 C5.66 2.33 6.32 2.66 7 3 C7 3.66 7 4.32 7 5 C6.01 5 5.02 5 4 5 C4 5.66 4 6.32 4 7 C4.99 7.33 5.98 7.66 7 8 C4.625 7.6875 4.625 7.6875 2 7 C0 4 0 4 0 0 Z " fill="#2A78A2" transform="translate(46,73)"/>
<path d="M0 0 C1.98 0 3.96 0 6 0 C4.68 0.99 3.36 1.98 2 3 C2.99 3.66 3.98 4.32 5 5 C4.67 5.66 4.34 6.32 4 7 C2.35 6.67 0.7 6.34 -1 6 C-0.67 4.02 -0.34 2.04 0 0 Z " fill="#1F7CB9" transform="translate(41,69)"/>
<path d="M0 0 C0.33 0 0.66 0 1 0 C1 4.29 1 8.58 1 13 C-0.66297454 9.67405092 -1.63931995 7.60680047 -2 4 C-1.0625 1.6875 -1.0625 1.6875 0 0 Z " fill="#1E4A69" transform="translate(30,30)"/>
<path d="M0 0 C3 2 3 2 3.51171875 4.3828125 C3.56972656 5.28773437 3.62773438 6.19265625 3.6875 7.125 C3.75324219 8.03507812 3.81898437 8.94515625 3.88671875 9.8828125 C3.92410156 10.58148438 3.96148437 11.28015625 4 12 C3.01 11.67 2.02 11.34 1 11 C0.67 7.37 0.34 3.74 0 0 Z " fill="#123059" transform="translate(82,25)"/>
<path d="M0 0 C3.7952131 1.49097658 5.61042731 3.75700849 8 7 C5.6875 6.8125 5.6875 6.8125 3 6 C0 1.86206897 0 1.86206897 0 0 Z " fill="#0D2248" transform="translate(88,113)"/>
<path d="M0 0 C2.375 0.625 2.375 0.625 5 2 C6.3125 5.125 6.3125 5.125 7 8 C6.01 8 5.02 8 4 8 C2.15473038 5.37403939 1.01624151 3.04872454 0 0 Z " fill="#104C86" transform="translate(55,94)"/>
<path d="M0 0 C0.99 0 1.98 0 3 0 C3 2.31 3 4.62 3 7 C2.34 7 1.68 7 1 7 C0.67 7.66 0.34 8.32 0 9 C0 6.03 0 3.06 0 0 Z " fill="#2C93BA" transform="translate(49,53)"/>
<path d="M0 0 C2.475 0.495 2.475 0.495 5 1 C5 2.65 5 4.3 5 6 C3.35 5.67 1.7 5.34 0 5 C0 3.35 0 1.7 0 0 Z " fill="#246794" transform="translate(78,26)"/>
<path d="M0 0 C0.66 0.66 1.32 1.32 2 2 C1.01 2.495 1.01 2.495 0 3 C-1.13350534 5.01669827 -1.13350534 5.01669827 -2 7 C-2 6.01 -2 5.02 -2 4 C-3.98 4.66 -5.96 5.32 -8 6 C-8 5.34 -8 4.68 -8 4 C-5.36 2.68 -2.72 1.36 0 0 Z " fill="#2D5C74" transform="translate(54,1)"/>
<path d="M0 0 C0.99 0.66 1.98 1.32 3 2 C3.1875 5.125 3.1875 5.125 3 8 C2.01 7.67 1.02 7.34 0 7 C-1.1875 4.4375 -1.1875 4.4375 -2 2 C-1.34 2 -0.68 2 0 2 C0 1.34 0 0.68 0 0 Z " fill="#0F2248" transform="translate(63,110)"/>
<path d="M0 0 C4 1.33333333 8 2.66666667 12 4 C12 4.33 12 4.66 12 5 C6.71502591 5.44041451 6.71502591 5.44041451 4 5 C1.5 2.5 1.5 2.5 0 0 Z " fill="#0B1E45" transform="translate(94,111)"/>
<path d="M0 0 C1.32 0 2.64 0 4 0 C4 2.31 4 4.62 4 7 C2 5.75 2 5.75 0 4 C0 2.68 0 1.36 0 0 Z " fill="#122A4E" transform="translate(21,101)"/>
<path d="M0 0 C1.35432675 1.31200404 2.68733482 2.64631404 4 4 C4 4.33 4 4.66 4 5 C-1.75 5.125 -1.75 5.125 -4 4 C-4 3.34 -4 2.68 -4 2 C-2.68 2 -1.36 2 0 2 C0 1.34 0 0.68 0 0 Z " fill="#1E4A70" transform="translate(104,105)"/>
<path d="M0 0 C0 0.99 0 1.98 0 3 C-1.98 3.99 -1.98 3.99 -4 5 C-5.32 3.68 -6.64 2.36 -8 1 C-5.10765685 0.17361624 -3.11257569 0 0 0 Z " fill="#2089BF" transform="translate(70,97)"/>
<path d="M0 0 C1.65 0.33 3.3 0.66 5 1 C5 3.31 5 5.62 5 8 C4.566875 7.360625 4.13375 6.72125 3.6875 6.0625 C2.08760823 3.73253997 2.08760823 3.73253997 -1 3 C-0.67 2.01 -0.34 1.02 0 0 Z " fill="#265F84" transform="translate(123,87)"/>
<path d="M0 0 C1.1875 1.625 1.1875 1.625 1.1875 2.625 C-5.4375 3.875 -5.4375 3.875 -8.8125 1.625 C-6.1104256 -1.0770744 -3.29932035 -2.50293268 0 0 Z " fill="#285E81" transform="translate(28.8125,81.375)"/>
<path d="M0 0 C0.99 0.99 1.98 1.98 3 3 C2.6875 6.6875 2.6875 6.6875 2 10 C1.01 9.67 0.02 9.34 -1 9 C-0.67 6.03 -0.34 3.06 0 0 Z " fill="#0F2145" transform="translate(120,74)"/>
<path d="M0 0 C0.99 0 1.98 0 3 0 C3 2.31 3 4.62 3 7 C2.01 7 1.02 7 0 7 C0 4.69 0 2.38 0 0 Z " fill="#173661" transform="translate(12,94)"/>
<path d="M0 0 C0.33 0.66 0.66 1.32 1 2 C1.66 2.33 2.32 2.66 3 3 C1.71034824 4.37562854 0.37310707 5.70766393 -1 7 C-1.66 7 -2.32 7 -3 7 C-2.25 2.25 -2.25 2.25 0 0 Z " fill="#214B6D" transform="translate(39,18)"/>
<path d="M0 0 C0.66 0.99 1.32 1.98 2 3 C-0.31 4.98 -2.62 6.96 -5 9 C-3.7508258 5.54074837 -2.32472205 2.85306797 0 0 Z " fill="#142749" transform="translate(41,12)"/>
<path d="M0 0 C2.97 0 5.94 0 9 0 C8.01 1.485 8.01 1.485 7 3 C4.36 2.67 1.72 2.34 -1 2 C-0.67 1.34 -0.34 0.68 0 0 Z " fill="#1F4E72" transform="translate(91,123)"/>
<path d="M0 0 C3.82946843 1.45255699 5.12050295 3.42895561 7 7 C6.01 7 5.02 7 4 7 C0 2.65714286 0 2.65714286 0 0 Z " fill="#379FC5" transform="translate(53,95)"/>
<path d="M0 0 C0.66 0.33 1.32 0.66 2 1 C2 2.98 2 4.96 2 7 C1.01 7 0.02 7 -1 7 C-1.33 7.66 -1.66 8.32 -2 9 C-1.51421457 5.87709365 -1.0013988 3.00419641 0 0 Z " fill="#11375E" transform="translate(4,83)"/>
<path d="M0 0 C3.82524236 1.450954 5.19090966 3.38181932 7 7 C7 7.66 7 8.32 7 9 C4 8 4 8 2.375 5.0625 C1.92125 4.051875 1.4675 3.04125 1 2 C0.67 1.34 0.34 0.68 0 0 Z " fill="#357290" transform="translate(64,77)"/>
<path d="M0 0 C0.66 0 1.32 0 2 0 C2 0.66 2 1.32 2 2 C2.66 2 3.32 2 4 2 C4 3.32 4 4.64 4 6 C2.68 6 1.36 6 0 6 C0 4.02 0 2.04 0 0 Z " fill="#20689A" transform="translate(42,60)"/>
<path d="M0 0 C0.66 0 1.32 0 2 0 C3.125 5.625 3.125 5.625 2 9 C1.34 9 0.68 9 0 9 C0 6.03 0 3.06 0 0 Z " fill="#1E4769" transform="translate(32,38)"/>
<path d="M0 0 C0.66 1.32 1.32 2.64 2 4 C-0.64 4.66 -3.28 5.32 -6 6 C-5.34 4.68 -4.68 3.36 -4 2 C-2.68 2.33 -1.36 2.66 0 3 C0 2.01 0 1.02 0 0 Z " fill="#2B5771" transform="translate(106,121)"/>
<path d="M0 0 C1.1725131 0.95117134 2.33787015 1.91117009 3.5 2.875 C4.47453125 3.67550781 4.47453125 3.67550781 5.46875 4.4921875 C5.9740625 4.98976563 6.479375 5.48734375 7 6 C7 6.66 7 7.32 7 8 C3.2047869 6.50902342 1.38957269 4.24299151 -1 1 C-0.67 0.67 -0.34 0.34 0 0 Z " fill="#153963" transform="translate(54,106)"/>
<path d="M0 0 C0.33 0.99 0.66 1.98 1 3 C1.66 3 2.32 3 3 3 C1.66666667 5.66666667 0.33333333 8.33333333 -1 11 C-2.41687119 6.74938644 -1.19320039 4.28148375 0 0 Z " fill="#09193A" transform="translate(8,101)"/>
<path d="M0 0 C1.875 0.25 1.875 0.25 4 1 C5.25 3.0625 5.25 3.0625 6 5 C4.35 5 2.7 5 1 5 C0.67 3.35 0.34 1.7 0 0 Z " fill="#163C68" transform="translate(70,95)"/>
<path d="M0 0 C0.33 0 0.66 0 1 0 C0.67 2.97 0.34 5.94 0 9 C-0.99 8.67 -1.98 8.34 -3 8 C-1.125 2.25 -1.125 2.25 0 0 Z " fill="#103561" transform="translate(107,76)"/>
<path d="M0 0 C0.33 0.66 0.66 1.32 1 2 C1.66 2 2.32 2 3 2 C2.125 6.75 2.125 6.75 1 9 C0.34 9 -0.32 9 -1 9 C-0.67 6.03 -0.34 3.06 0 0 Z " fill="#20517A" transform="translate(101,73)"/>
<path d="M0 0 C0.66 0 1.32 0 2 0 C2.66 1.65 3.32 3.3 4 5 C2.02 5 0.04 5 -2 5 C-1.34 3.35 -0.68 1.7 0 0 Z " fill="#2696BF" transform="translate(90,61)"/>
<path d="M0 0 C1.89213369 2.38573379 3.02391783 4.07175348 4 7 C2.68 7.33 1.36 7.66 0 8 C0 5.36 0 2.72 0 0 Z " fill="#0C4183" transform="translate(54,58)"/>
<path d="M0 0 C1.98 0.495 1.98 0.495 4 1 C4 2.32 4 3.64 4 5 C3.01 5.495 3.01 5.495 2 6 C0 3 0 3 0 0 Z " fill="#22557C" transform="translate(76,32)"/>
<path d="M0 0 C0 0.33 0 0.66 0 1 C-3.3 1 -6.6 1 -10 1 C-10 0.34 -10 -0.32 -10 -1 C-6.18510326 -2.46726798 -3.70988378 -1.43336419 0 0 Z " fill="#2876A1" transform="translate(69,11)"/>
<path d="M0 0 C1.32 0.66 2.64 1.32 4 2 C0.91190305 3.76462683 -0.23312136 4 -4 4 C-4 3.34 -4 2.68 -4 2 C-2.68 2 -1.36 2 0 2 C0 1.34 0 0.68 0 0 Z " fill="#0B2042" transform="translate(76,6)"/>
<path d="M0 0 C0.99 0.33 1.98 0.66 3 1 C3 1.99 3 2.98 3 4 C0.69 4 -1.62 4 -4 4 C-3.67 3.34 -3.34 2.68 -3 2 C-2.01 2 -1.02 2 0 2 C0 1.34 0 0.68 0 0 Z " fill="#1F5379" transform="translate(102,100)"/>
<path d="M0 0 C0.66 0 1.32 0 2 0 C2 2.31 2 4.62 2 7 C0.68 6.67 -0.64 6.34 -2 6 C-2 5.34 -2 4.68 -2 4 C-1.34 3.67 -0.68 3.34 0 3 C0 2.01 0 1.02 0 0 Z " fill="#123963" transform="translate(104,41)"/>
<path d="M0 0 C0.66 0.66 1.32 1.32 2 2 C1.625 4.625 1.625 4.625 1 7 C-0.65 5.68 -2.3 4.36 -4 3 C-2.68 2.67 -1.36 2.34 0 2 C0 1.34 0 0.68 0 0 Z " fill="#1D6691" transform="translate(41,43)"/>
<path d="M0 0 C0.66 0.33 1.32 0.66 2 1 C1.46930939 4.82097239 0.50298434 7.06171403 -2 10 C-2.22036864 6.14354879 -1.60355101 3.50776784 0 0 Z " fill="#0E2750" transform="translate(54,29)"/>
<path d="M0 0 C1.98 0.495 1.98 0.495 4 1 C3.67 2.32 3.34 3.64 3 5 C1.68 4.67 0.36 4.34 -1 4 C-0.67 2.68 -0.34 1.36 0 0 Z " fill="#112F5B" transform="translate(70,23)"/>
<path d="M0 0 C1.98 0 3.96 0 6 0 C6.33 0.66 6.66 1.32 7 2 C4.69 2.33 2.38 2.66 0 3 C0 2.01 0 1.02 0 0 Z " fill="#175D99" transform="translate(66,17)"/>
<path d="M0 0 C0.53625 0.474375 1.0725 0.94875 1.625 1.4375 C4.42842836 3.28186076 6.69620258 3.62456847 10 4 C10 4.33 10 4.66 10 5 C7.03 5 4.06 5 1 5 C0.67 3.35 0.34 1.7 0 0 Z " fill="#0B1C3F" transform="translate(21,116)"/>
<path d="M0 0 C1.32 0.33 2.64 0.66 4 1 C4 2.32 4 3.64 4 5 C2.02 4.34 0.04 3.68 -2 3 C-1.34 2.67 -0.68 2.34 0 2 C0 1.34 0 0.68 0 0 Z " fill="#337290" transform="translate(116,111)"/>
<path d="M0 0 C0.99 0.33 1.98 0.66 3 1 C3 1.66 3 2.32 3 3 C3.66 3.66 4.32 4.32 5 5 C4.01 5.33 3.02 5.66 2 6 C0.68 4.68 -0.64 3.36 -2 2 C-1.34 2 -0.68 2 0 2 C0 1.34 0 0.68 0 0 Z " fill="#34799D" transform="translate(90,103)"/>
<path d="M0 0 C1.98 0.99 1.98 0.99 4 2 C4 3.32 4 4.64 4 6 C2.68 5.67 1.36 5.34 0 5 C0 3.35 0 1.7 0 0 Z " fill="#286082" transform="translate(116,102)"/>
<path d="M0 0 C0.66 0 1.32 0 2 0 C2.125 2.875 2.125 2.875 2 6 C1.34 6.66 0.68 7.32 0 8 C-0.38063221 5.6739143 -0.71269945 3.33944736 -1 1 C-0.67 0.67 -0.34 0.34 0 0 Z " fill="#122A4C" transform="translate(124,97)"/>
<path d="M0 0 C1.32 0.99 2.64 1.98 4 3 C3.67 3.99 3.34 4.98 3 6 C2.01 6 1.02 6 0 6 C0 4.02 0 2.04 0 0 Z " fill="#0B1D41" transform="translate(8,85)"/>
<path d="M0 0 C-2.46278801 2.46278801 -4.70676982 2.99771255 -8 4 C-8 3.01 -8 2.02 -8 1 C-3.375 -1.125 -3.375 -1.125 0 0 Z " fill="#0D254D" transform="translate(24,72)"/>
<path d="M0 0 C0.99 0.33 1.98 0.66 3 1 C3 2.32 3 3.64 3 5 C1.68 5 0.36 5 -1 5 C-0.67 3.35 -0.34 1.7 0 0 Z " fill="#225D7E" transform="translate(106,33)"/>
</svg>
