<?xml version="1.0" encoding="UTF-8"?>
<svg version="1.1" xmlns="http://www.w3.org/2000/svg" width="64" height="64">
<path d="M0 0 C4.91624028 2.36707866 7.18602527 4.86040493 9 10 C9.78353363 16.04440226 7.95949775 19.91336325 5 25 C4.01 25 3.02 25 2 25 C1.608125 23.865625 1.21625 22.73125 0.8125 21.5625 C-0.58610882 17.79660949 -0.58610882 17.79660949 -3.6875 17.0625 C-4.450625 17.041875 -5.21375 17.02125 -6 17 C-8.36574234 20.5486135 -8.10865265 21.5764525 -7.625 25.6875 C-7.51414062 26.68136719 -7.40328125 27.67523437 -7.2890625 28.69921875 C-7.19367187 29.45847656 -7.09828125 30.21773437 -7 31 C-4.78809522 30.43035877 -2.58058613 29.84363602 -0.375 29.25 C1.46964844 28.76273438 1.46964844 28.76273438 3.3515625 28.265625 C7.72636911 26.74802613 11.65827266 25.07588003 14.2421875 21.078125 C14.45101562 20.47484375 14.65984375 19.8715625 14.875 19.25 C15.24625 18.1775 15.6175 17.105 16 16 C16.99 16 17.98 16 19 16 C20.0884564 19.26536919 20.1036861 21.81762134 20.1875 25.25 C20.61710433 31.78144209 22.30875067 34.66859082 27 39 C29.10854109 43.21708218 28.51017859 48.42012093 28 53 C26.1698417 57.63694816 22.60736885 61.10256558 18.140625 63.3359375 C11.44040748 65.41447213 4.85317882 64.77944703 -1.4375 61.8125 C-5.26182949 59.6570808 -8.14998002 57.32502331 -11 54 C-11.7425 54.94875 -12.485 55.8975 -13.25 56.875 C-15.24193613 59.42025172 -16.95817479 60.8430906 -20 62 C-24.8236141 62.33653122 -28.15853814 61.68033086 -31.9375 58.625 C-35.65736095 53.89063152 -36.45476216 51.40613789 -36.30859375 45.5078125 C-35.84320504 41.72579286 -34.61027688 39.74413723 -32 37 C-29.15992497 35.33643712 -26.35311211 34 -23 34 C-23.04640625 33.04480469 -23.0928125 32.08960938 -23.140625 31.10546875 C-23.39588015 21.96186449 -23.51682153 13.01670692 -17.0234375 5.8046875 C-11.42517254 0.7764277 -7.55680909 -0.90325496 0 0 Z M-4 35 C-2.66534338 38.77040494 -0.99723337 41.57124903 1.5 44.6875 C2.1084375 45.45449219 2.716875 46.22148438 3.34375 47.01171875 C4.9967471 49.05723258 4.9967471 49.05723258 7 51 C10.29714793 50.67028521 11.6226839 50.3773161 14 48 C14.07395036 44.74618427 13.6838841 42.75734479 11.47265625 40.30859375 C6.32817481 35.79493667 2.93772287 34.86909957 -4 35 Z M-20 43 C-21.14181469 47.02675774 -21.14181469 47.02675774 -19.9375 50.8125 C-17.35930766 52.3926824 -14.9787979 52.66902246 -12 53 C-12.94934513 51.32819726 -13.90973313 49.66266064 -14.875 48 C-15.40867187 47.071875 -15.94234375 46.14375 -16.4921875 45.1875 C-16.98976563 44.465625 -17.48734375 43.74375 -18 43 C-18.66 43 -19.32 43 -20 43 Z " fill="#21577E" transform="translate(36,0)"/>
<path d="M0 0 C0.66 0 1.32 0 2 0 C2 0.99 2 1.98 2 3 C2.66 3.33 3.32 3.66 4 4 C4 5.98 4 7.96 4 10 C4.66 10 5.32 10 6 10 C5.42655063 12.86724686 5.1385485 13.8614515 3 16 C7.455 15.505 7.455 15.505 12 15 C11.01 15.495 11.01 15.495 10 16 C10.6496875 16.90363281 11.299375 17.80726562 11.96875 18.73828125 C12.81286859 19.92942638 13.65659845 21.12084706 14.5 22.3125 C14.92925781 22.90740234 15.35851562 23.50230469 15.80078125 24.11523438 C19 28.66015625 19 28.66015625 19 32 C18.01 31.67 17.02 31.34 16 31 C15.67 31.66 15.34 32.32 15 33 C15.99 33 16.98 33 18 33 C18.33 33.99 18.66 34.98 19 36 C20.49985609 37.66710346 20.49985609 37.66710346 22 39 C21.01 39.99 20.02 40.98 19 42 C16 40 16 40 15.4375 37.5 C14.25935635 34.79004814 14.25935635 34.79004814 11.6875 34.30078125 C9.87015258 33.97809882 8.04508308 33.69598646 6.21484375 33.45703125 C5.48394531 33.30621094 4.75304687 33.15539063 4 33 C3.67 32.34 3.34 31.68 3 31 C0.97536745 30.34786708 0.97536745 30.34786708 -1 30 C-1.33 28.68 -1.66 27.36 -2 26 C-2.66 26 -3.32 26 -4 26 C-4.66 28.97 -5.32 31.94 -6 35 C-6.99 34.67 -7.98 34.34 -9 34 C-8.67 34.99 -8.34 35.98 -8 37 C-10.3125 37.25 -10.3125 37.25 -13 37 C-14.8125 35.25 -14.8125 35.25 -16 33 C-16 31.68 -16 30.36 -16 29 C-15.34 29 -14.68 29 -14 29 C-14 28.34 -14 27.68 -14 27 C-13.34 27 -12.68 27 -12 27 C-12 26.34 -12 25.68 -12 25 C-11.34 25 -10.68 25 -10 25 C-9.67 24.01 -9.34 23.02 -9 22 C-7.4375 20.3125 -7.4375 20.3125 -6 19 C-6.66 18.67 -7.32 18.34 -8 18 C-7.01 18 -6.02 18 -5 18 C-5 17.34 -5 16.68 -5 16 C-3.02 16 -1.04 16 1 16 C0.54177532 12.53058454 0.10868317 9.32604951 -1 6 C-0.72428861 3.99124558 -0.39764263 1.98821313 0 0 Z " fill="#1D507C" transform="translate(20,17)"/>
<path d="M0 0 C0.99 0.33 1.98 0.66 3 1 C4.1875 4.5625 4.1875 4.5625 5 8 C4.01 7.67 3.02 7.34 2 7 C1.67 7.66 1.34 8.32 1 9 C1 8.34 1 7.68 1 7 C0.34 7 -0.32 7 -1 7 C-1.33 8.65 -1.66 10.3 -2 12 C-2.66 12 -3.32 12 -4 12 C-4.33 12.99 -4.66 13.98 -5 15 C-5.66 15 -6.32 15 -7 15 C-6.95875 15.763125 -6.9175 16.52625 -6.875 17.3125 C-7 20 -7 20 -9 23 C-9.66 23 -10.32 23 -11 23 C-10.90460937 23.74765625 -10.80921875 24.4953125 -10.7109375 25.265625 C-10.60007812 26.25046875 -10.48921875 27.2353125 -10.375 28.25 C-10.25898438 29.22453125 -10.14296875 30.1990625 -10.0234375 31.203125 C-9.99173622 34.98614453 -11.08351231 36.93076436 -13.5 39.75 C-15 41 -15 41 -17 41 C-17 41.66 -17 42.32 -17 43 C-17.66 43 -18.32 43 -19 43 C-19 43.66 -19 44.32 -19 45 C-19.66 45 -20.32 45 -21 45 C-19.515 48.465 -19.515 48.465 -18 52 C-16.68 52 -15.36 52 -14 52 C-14 51.34 -14 50.68 -14 50 C-13.34 50 -12.68 50 -12 50 C-11.67 48.35 -11.34 46.7 -11 45 C-10.46375 45.78375 -9.9275 46.5675 -9.375 47.375 C-6.69757158 50.33426299 -4.81566975 51.04608256 -1 52 C-1.33967826 55.17033042 -1.99869191 55.99882607 -4.4375 58.1875 C-8.60660416 61.13637855 -10.77003845 61.18565447 -15.7421875 60.578125 C-20.3673813 59.39381932 -22.48273521 55.77589719 -25 52 C-25.72340684 47.11279796 -25.48608728 43.06939203 -23.4375 38.5625 C-20.39768712 35.36679928 -18.16228095 34.38742698 -14 33 C-13.34 33 -12.68 33 -12 33 C-12.04640625 32.04480469 -12.0928125 31.08960937 -12.140625 30.10546875 C-12.39869164 20.86115303 -12.40894567 12.14524847 -6.05859375 4.734375 C-4.09737518 2.89957015 -2.35403918 1.29544661 0 0 Z " fill="#1C4263" transform="translate(25,1)"/>
<path d="M0 0 C1.32 0.33 2.64 0.66 4 1 C4 1.66 4 2.32 4 3 C6.31 3 8.62 3 11 3 C11 3.66 11 4.32 11 5 C11.99 5 12.98 5 14 5 C15.01866229 6.65532623 16.01810813 8.32260138 17 10 C17.99 10.33 18.98 10.66 20 11 C20.33 9.68 20.66 8.36 21 7 C20.01 6.67 19.02 6.34 18 6 C18 5.01 18 4.02 18 3 C17.01 3 16.02 3 15 3 C15.33 2.01 15.66 1.02 16 0 C16.99 0.66 17.98 1.32 19 2 C19.33 1.34 19.66 0.68 20 0 C20.391875 0.515625 20.78375 1.03125 21.1875 1.5625 C22.952472 3.30408494 22.952472 3.30408494 25.5625 2.75 C27.97602515 2.080487 27.97602515 2.080487 30 1 C30.33 1.66 30.66 2.32 31 3 C31.86625 2.7215625 31.86625 2.7215625 32.75 2.4375 C35.20692525 1.95976454 36.64397534 2.24270636 39 3 C39 2.34 39 1.68 39 1 C40.32 1 41.64 1 43 1 C43.8125 3.0625 43.8125 3.0625 44 6 C41.95287866 10.47370907 38.56421981 14.1241401 34.140625 16.3359375 C27.63402795 18.35440739 20.99076048 17.8340561 14.8125 15.0625 C8.87761277 11.71092129 2.20563028 6.61689085 0 0 Z " fill="#1C4566" transform="translate(20,47)"/>
<path d="M0 0 C1.2065625 0.0309375 1.2065625 0.0309375 2.4375 0.0625 C3.0625 2.875 3.0625 2.875 3.4375 6.0625 C2.4475 7.5475 2.4475 7.5475 1.4375 9.0625 C1.41272641 11.81637627 1.41272641 11.81637627 1.8125 14.75 C1.92335938 15.74386719 2.03421875 16.73773437 2.1484375 17.76171875 C2.24382813 18.52097656 2.33921875 19.28023437 2.4375 20.0625 C6.3975 19.5675 6.3975 19.5675 10.4375 19.0625 C9.4375 21.0625 9.4375 21.0625 8.4375 22.0625 C10.4175 22.7225 12.3975 23.3825 14.4375 24.0625 C11.22298731 25.66975635 8.00137464 25.11998185 4.4375 25.0625 C4.1075 24.0725 3.7775 23.0825 3.4375 22.0625 C1.1275 22.0625 -1.1825 22.0625 -3.5625 22.0625 C-2.5625 19.0625 -2.5625 19.0625 -0.5625 16.0625 C-1.5525 16.3925 -2.5425 16.7225 -3.5625 17.0625 C-3.541875 15.99 -3.52125 14.9175 -3.5 13.8125 C-3.5482984 10.91459576 -3.69405885 8.77637859 -4.5625 6.0625 C-5.2225 6.0625 -5.8825 6.0625 -6.5625 6.0625 C-6.376875 6.64 -6.19125 7.2175 -6 7.8125 C-5.5625 10.0625 -5.5625 10.0625 -6.125 12.1875 C-6.269375 12.80625 -6.41375 13.425 -6.5625 14.0625 C-5.9025 14.7225 -5.2425 15.3825 -4.5625 16.0625 C-4.8925 16.3925 -5.2225 16.7225 -5.5625 17.0625 C-5.2325 17.7225 -4.9025 18.3825 -4.5625 19.0625 C-4.8925 20.0525 -5.2225 21.0425 -5.5625 22.0625 C-7.8725 22.0625 -10.1825 22.0625 -12.5625 22.0625 C-12.5625 19.0925 -12.5625 16.1225 -12.5625 13.0625 C-11.9025 13.0625 -11.2425 13.0625 -10.5625 13.0625 C-10.706875 12.19625 -10.85125 11.33 -11 10.4375 C-10.49916169 6.57389016 -9.97878929 6.15533668 -7.125 3.75 C-5.94623282 2.84270647 -4.76038617 1.94439701 -3.5625 1.0625 C-2.5625 0.0625 -2.5625 0.0625 0 0 Z " fill="#1C4E75" transform="translate(26.5625,10.9375)"/>
<path d="M0 0 C2.375 -0.1875 2.375 -0.1875 5 0 C5.66 0.99 6.32 1.98 7 3 C6.34 3 5.68 3 5 3 C5.33 4.65 5.66 6.3 6 8 C5.34 8 4.68 8 4 8 C3.34 10.97 2.68 13.94 2 17 C1.01 16.67 0.02 16.34 -1 16 C-0.67 16.99 -0.34 17.98 0 19 C-2.3125 19.25 -2.3125 19.25 -5 19 C-6.8125 17.25 -6.8125 17.25 -8 15 C-8 13.68 -8 12.36 -8 11 C-7.34 11 -6.68 11 -6 11 C-6 10.34 -6 9.68 -6 9 C-5.34 9 -4.68 9 -4 9 C-4 8.34 -4 7.68 -4 7 C-3.34 7 -2.68 7 -2 7 C-1.67 6.01 -1.34 5.02 -1 4 C0.5625 2.3125 0.5625 2.3125 2 1 C1.34 0.67 0.68 0.34 0 0 Z " fill="#205277" transform="translate(12,35)"/>
<path d="M0 0 C0.66 0 1.32 0 2 0 C2 0.99 2 1.98 2 3 C2.66 3.33 3.32 3.66 4 4 C4 5.98 4 7.96 4 10 C4.66 10 5.32 10 6 10 C5.42655063 12.86724686 5.1385485 13.8614515 3 16 C7.455 15.505 7.455 15.505 12 15 C11.01 15.495 11.01 15.495 10 16 C10 16.66 10 17.32 10 18 C8.35 18.66 6.7 19.32 5 20 C5.66 20.66 6.32 21.32 7 22 C4 23 4 23 0 23 C-0.99 23.33 -1.98 23.66 -3 24 C-2.67 22.68 -2.34 21.36 -2 20 C-2.99 19.34 -3.98 18.68 -5 18 C-5 17.34 -5 16.68 -5 16 C-3.02 16 -1.04 16 1 16 C0.54177532 12.53058454 0.10868317 9.32604951 -1 6 C-0.72428861 3.99124558 -0.39764263 1.98821313 0 0 Z " fill="#2987B8" transform="translate(20,17)"/>
<path d="M0 0 C0.99 0.99 1.98 1.98 3 3 C2.67 3.99 2.34 4.98 2 6 C2.66 6 3.32 6 4 6 C4.33 5.34 4.66 4.68 5 4 C7 6 7 6 7 10 C7.99 10 8.98 10 10 10 C10.33 10.99 10.66 11.98 11 13 C12.49985609 14.66710346 12.49985609 14.66710346 14 16 C13.01 16.99 12.02 17.98 11 19 C8 17 8 17 7.4375 14.5 C6.25147541 11.79275144 6.25147541 11.79275144 3.65234375 11.23046875 C1.10567435 10.73259667 -1.42506514 10.31830376 -4 10 C-3.34 9.67 -2.68 9.34 -2 9 C-2.33 6.69 -2.66 4.38 -3 2 C-2.34 2 -1.68 2 -1 2 C-0.67 1.34 -0.34 0.68 0 0 Z " fill="#2382B4" transform="translate(28,40)"/>
<path d="M0 0 C1.25541557 3.76624671 0.37061958 5.37188934 -1 9 C-0.34 8.67 0.32 8.34 1 8 C1.65213292 5.97536745 1.65213292 5.97536745 2 4 C2 4.99 2 5.98 2 7 C3.32 7 4.64 7 6 7 C6 7.66 6 8.32 6 9 C7.65 9 9.3 9 11 9 C11 10.98 11 12.96 11 15 C10.67 14.34 10.34 13.68 10 13 C8.68 13 7.36 13 6 13 C6 13.66 6 14.32 6 15 C3.69 14.67 1.38 14.34 -1 14 C-1.33 14.66 -1.66 15.32 -2 16 C-3.46876252 11.59371244 -4.41393552 8.49888575 -3 4 C-2.67 3.34 -2.34 2.68 -2 2 C-1.34 2 -0.68 2 0 2 C0 1.34 0 0.68 0 0 Z " fill="#235F87" transform="translate(53,35)"/>
<path d="M0 0 C0.33 0 0.66 0 1 0 C1.50610724 6.07328688 0.04157942 9.77228537 -3 15 C-3.99 15 -4.98 15 -6 15 C-6.45375 13.88625 -6.9075 12.7725 -7.375 11.625 C-8.72465986 8.03800992 -8.72465986 8.03800992 -11 6 C-10.34 6 -9.68 6 -9 6 C-9 4.68 -9 3.36 -9 2 C-7.68 2 -6.36 2 -5 2 C-5 2.99 -5 3.98 -5 5 C-4.34 5 -3.68 5 -3 5 C-3.33 4.01 -3.66 3.02 -4 2 C-2.68 2 -1.36 2 0 2 C0 1.34 0 0.68 0 0 Z " fill="#183C61" transform="translate(44,10)"/>
<path d="M0 0 C0.66 0.66 1.32 1.32 2 2 C3.33841672 1.68770276 4.67139075 1.35169068 6 1 C8.25 1.4375 8.25 1.4375 10 2 C10 1.34 10 0.68 10 0 C11.32 0 12.64 0 14 0 C14.75 2.25 14.75 2.25 15 5 C13.625 7.375 13.625 7.375 11 9 C7.90377885 9.12968466 4.9816871 8.85882265 2 8 C1.67 7.34 1.34 6.68 1 6 C1.66 6 2.32 6 3 6 C3 5.34 3 4.68 3 4 C1.68 3.34 0.36 2.68 -1 2 C-0.67 1.34 -0.34 0.68 0 0 Z " fill="#18395A" transform="translate(49,48)"/>
<path d="M0 0 C6.76470588 5.29411765 6.76470588 5.29411765 8 9 C8 9.99 8 10.98 8 12 C6.35 12 4.7 12 3 12 C3 11.34 3 10.68 3 10 C0.61435923 10.57584432 -1.66682784 11.22227595 -4 12 C-3.45660208 7.43545749 -2.20536179 4.0271824 0 0 Z " fill="#1D4D73" transform="translate(56,32)"/>
<path d="M0 0 C1.32 0.66 2.64 1.32 4 2 C3.67 2.99 3.34 3.98 3 5 C5.97 5.33 8.94 5.66 12 6 C12 6.66 12 7.32 12 8 C10.35 8.33 8.7 8.66 7 9 C7 9.33 7 9.66 7 10 C0.97463002 10.602537 0.97463002 10.602537 -1.80078125 8.88671875 C-3.25599455 7.65378147 -4.63479157 6.33191067 -6 5 C-5.01 4.67 -4.02 4.34 -3 4 C-2.67 3.34 -2.34 2.68 -2 2 C-1.34 2.33 -0.68 2.66 0 3 C0 2.01 0 1.02 0 0 Z " fill="#245477" transform="translate(48,50)"/>
<path d="M0 0 C0.53625 0.78375 1.0725 1.5675 1.625 2.375 C4.30242842 5.33426299 6.18433025 6.04608256 10 7 C9.66410006 10.13506611 8.97334828 11.025249 6.625 13.25 C4 15 4 15 1 15 C0.19032562 12.08517222 -0.21845993 10.53886783 0.9375 7.6875 C1.288125 7.130625 1.63875 6.57375 2 6 C1.34 5.67 0.68 5.34 0 5 C0 3.35 0 1.7 0 0 Z " fill="#214A67" transform="translate(14,46)"/>
<path d="M0 0 C1.32 0.33 2.64 0.66 4 1 C4 1.66 4 2.32 4 3 C6.31 3 8.62 3 11 3 C11.71614583 4.72526042 12.43229167 6.45052083 13.1484375 8.17578125 C14.06806692 10.26533932 14.06806692 10.26533932 16 13 C15.01 13.33 14.02 13.66 13 14 C7.8858443 10.65119093 3.68226312 5.83297034 0 1 C0 0.67 0 0.34 0 0 Z " fill="#204E70" transform="translate(20,47)"/>
<path d="M0 0 C2.11675545 3.82191956 2.31905781 6.61295513 2 11 C1.01 12.485 1.01 12.485 0 14 C-0.66 14 -1.32 14 -2 14 C-1.67 17.63 -1.34 21.26 -1 25 C-1.99 25 -2.98 25 -4 25 C-4 25.66 -4 26.32 -4 27 C-5.32 27.33 -6.64 27.66 -8 28 C-8.33 27.01 -8.66 26.02 -9 25 C-7.02 24.67 -5.04 24.34 -3 24 C-3.03480469 23.02160156 -3.06960937 22.04320313 -3.10546875 21.03515625 C-3.26297444 13.40738083 -3.00272286 7.1314668 0 0 Z " fill="#1F3D50" transform="translate(16,10)"/>
<path d="M0 0 C1.32 0 2.64 0 4 0 C3.67 1.65 3.34 3.3 3 5 C3.66 5 4.32 5 5 5 C5 4.34 5 3.68 5 3 C6.65 3 8.3 3 10 3 C10 3.99 10 4.98 10 6 C8.02 6 6.04 6 4 6 C4 6.66 4 7.32 4 8 C2.35 8 0.7 8 -1 8 C-1 7.34 -1 6.68 -1 6 C-2.65 6 -4.3 6 -6 6 C-6 5.01 -6 4.02 -6 3 C-4.35 3 -2.7 3 -1 3 C-0.67 2.01 -0.34 1.02 0 0 Z " fill="#2684B5" transform="translate(30,5)"/>
<path d="M0 0 C0.99 0 1.98 0 3 0 C4.04892238 1.63631892 5.04906703 3.30485863 6 5 C6.66 5.33 7.32 5.66 8 6 C8 6.66 8 7.32 8 8 C8.99 7.67 9.98 7.34 11 7 C11.66 7.66 12.32 8.32 13 9 C12.01 9 11.02 9 10 9 C10 9.66 10 10.32 10 11 C12.64 11 15.28 11 18 11 C18 11.33 18 11.66 18 12 C12.158256 12.35050464 8.1468192 12.16727335 3 9 C3 8.01 3 7.02 3 6 C2.01971384 4.65210653 1.02028865 3.31787285 0 2 C0 1.34 0 0.68 0 0 Z " fill="#2D5675" transform="translate(31,52)"/>
<path d="M0 0 C2 0 2 0 3.625 1.5 C4.07875 1.995 4.5325 2.49 5 3 C5 2.01 5 1.02 5 0 C6.32 0 7.64 0 9 0 C8.67 1.32 8.34 2.64 8 4 C7.34 4 6.68 4 6 4 C6 5.32 6 6.64 6 8 C5.01 8.33 4.02 8.66 3 9 C0.7363436 7.59554165 -1.0208685 5.8032087 -3 4 C-2.67 3.34 -2.34 2.68 -2 2 C-1.34 2 -0.68 2 0 2 C0 1.34 0 0.68 0 0 Z " fill="#1C4368" transform="translate(45,33)"/>
<path d="M0 0 C0 0.66 0 1.32 0 2 C1.32 2 2.64 2 4 2 C4 2.66 4 3.32 4 4 C4.66 4.33 5.32 4.66 6 5 C5.34 5.66 4.68 6.32 4 7 C4 6.34 4 5.68 4 5 C2.68 5 1.36 5 0 5 C0 5.99 0 6.98 0 8 C-0.99 7.67 -1.98 7.34 -3 7 C-3 6.34 -3 5.68 -3 5 C-4.32 5 -5.64 5 -7 5 C-7.33 4.01 -7.66 3.02 -8 2 C-5.09399739 0.74335022 -3.20395416 0 0 0 Z " fill="#227BA9" transform="translate(50,28)"/>
<path d="M0 0 C2.97954717 0.32959593 3.90127037 0.88802615 5.921875 3.1796875 C6.52515625 4.06914063 7.1284375 4.95859375 7.75 5.875 C8.36359375 6.75929688 8.9771875 7.64359375 9.609375 8.5546875 C11 11 11 11 11 14 C8.53199953 12.84826645 6.95216435 11.95216435 5 10 C4.01 10.33 3.02 10.66 2 11 C2.3403125 9.39125 2.3403125 9.39125 2.6875 7.75 C3.35775825 4.07021424 3.35775825 4.07021424 1.5625 1.5625 C1.046875 1.046875 0.53125 0.53125 0 0 Z " fill="#25648E" transform="translate(28,35)"/>
<path d="M0 0 C1.23556641 0.01740234 1.23556641 0.01740234 2.49609375 0.03515625 C3.32238281 0.04417969 4.14867187 0.05320313 5 0.0625 C5.63808594 0.07410156 6.27617188 0.08570313 6.93359375 0.09765625 C6.27359375 0.75765625 5.61359375 1.41765625 4.93359375 2.09765625 C5.59359375 3.41765625 6.25359375 4.73765625 6.93359375 6.09765625 C8.25359375 5.76765625 9.57359375 5.43765625 10.93359375 5.09765625 C10.93359375 6.08765625 10.93359375 7.07765625 10.93359375 8.09765625 C9.28359375 8.09765625 7.63359375 8.09765625 5.93359375 8.09765625 C5.93359375 8.75765625 5.93359375 9.41765625 5.93359375 10.09765625 C5.27359375 10.09765625 4.61359375 10.09765625 3.93359375 10.09765625 C4.26359375 8.44765625 4.59359375 6.79765625 4.93359375 5.09765625 C3.28359375 5.42765625 1.63359375 5.75765625 -0.06640625 6.09765625 C-0.19015625 5.45828125 -0.31390625 4.81890625 -0.44140625 4.16015625 C-0.75078125 3.13921875 -0.75078125 3.13921875 -1.06640625 2.09765625 C-1.72640625 1.76765625 -2.38640625 1.43765625 -3.06640625 1.09765625 C-2.06640625 0.09765625 -2.06640625 0.09765625 0 0 Z " fill="#30658A" transform="translate(29.06640625,-0.09765625)"/>
<path d="M0 0 C1.98 0.99 1.98 0.99 4 2 C4.33 1.34 4.66 0.68 5 0 C5.391875 0.495 5.78375 0.99 6.1875 1.5 C8.55091715 3.45593143 10.01435003 3.24207973 13 3 C13.33 4.32 13.66 5.64 14 7 C11.66666667 7 9.33333333 7 7 7 C6.67 7.66 6.34 8.32 6 9 C6 8.34 6 7.68 6 7 C5.01 6.67 4.02 6.34 3 6 C3 5.01 3 4.02 3 3 C2.01 3 1.02 3 0 3 C0 2.01 0 1.02 0 0 Z " fill="#204C70" transform="translate(35,47)"/>
<path d="M0 0 C5.75 1.875 5.75 1.875 8 3 C7.67 4.65 7.34 6.3 7 8 C4.69 8 2.38 8 0 8 C0 5.36 0 2.72 0 0 Z " fill="#1A4E79" transform="translate(14,25)"/>
<path d="M0 0 C0.66 0 1.32 0 2 0 C2 0.99 2 1.98 2 3 C2.66 3.33 3.32 3.66 4 4 C4 5.98 4 7.96 4 10 C4.66 10 5.32 10 6 10 C5.75 11.875 5.75 11.875 5 14 C2.9375 15.25 2.9375 15.25 1 16 C0.855625 14.906875 0.71125 13.81375 0.5625 12.6875 C0.11711896 9.06877013 0.11711896 9.06877013 -1 6 C-0.72428861 3.99124558 -0.39764263 1.98821313 0 0 Z " fill="#226E96" transform="translate(20,17)"/>
<path d="M0 0 C1.65 0.33 3.3 0.66 5 1 C5.33 2.65 5.66 4.3 6 6 C5.34 5.67 4.68 5.34 4 5 C4 5.99 4 6.98 4 8 C2.35 7.67 0.7 7.34 -1 7 C-1.33 5.35 -1.66 3.7 -2 2 C-1.34 2 -0.68 2 0 2 C0 1.34 0 0.68 0 0 Z " fill="#26729C" transform="translate(6,44)"/>
<path d="M0 0 C7.1826087 -0.48695652 7.1826087 -0.48695652 10.9375 1.75 C12.9610478 3.95750669 13.6858889 5.06829636 14 8 C12.6078125 7.505 12.6078125 7.505 11.1875 7 C8.07970709 5.85032996 8.07970709 5.85032996 5 6 C4.87625 5.071875 4.87625 5.071875 4.75 4.125 C4.18741541 1.81562433 4.18741541 1.81562433 1.9375 0.75 C1.298125 0.5025 0.65875 0.255 0 0 Z " fill="#183859" transform="translate(30,1)"/>
<path d="M0 0 C0.66 0 1.32 0 2 0 C1.67 2.31 1.34 4.62 1 7 C1.66 7.33 2.32 7.66 3 8 C2.34 8 1.68 8 1 8 C1 8.99 1 9.98 1 11 C0.01 11 -0.98 11 -2 11 C-2.33 11.66 -2.66 12.32 -3 13 C-3.44539877 4.2404908 -3.44539877 4.2404908 0 0 Z " fill="#1E4B6B" transform="translate(3,38)"/>
<path d="M0 0 C3.96 0 7.92 0 12 0 C12 0.99 12 1.98 12 3 C10.68 3 9.36 3 8 3 C8 3.66 8 4.32 8 5 C6.68 5 5.36 5 4 5 C4 4.34 4 3.68 4 3 C3.01 3 2.02 3 1 3 C0.67 2.01 0.34 1.02 0 0 Z " fill="#2281B0" transform="translate(51,45)"/>
<path d="M0 0 C0.99 0 1.98 0 3 0 C4.14077657 3.42232972 4.09815117 6.08673217 4.0625 9.6875 C4.05347656 10.86699219 4.04445313 12.04648437 4.03515625 13.26171875 C4.02355469 14.16535156 4.01195312 15.06898437 4 16 C3.34 16 2.68 16 2 16 C2 15.34 2 14.68 2 14 C0.68 14 -0.64 14 -2 14 C-1.67 13.01 -1.34 12.02 -1 11 C-0.34 11.33 0.32 11.66 1 12 C1 11.01 1 10.02 1 9 C1.66 9 2.32 9 3 9 C1.78955868 4.39257135 1.78955868 4.39257135 0 0 Z " fill="#1B3D57" transform="translate(52,16)"/>
<path d="M0 0 C1.2065625 0.0309375 1.2065625 0.0309375 2.4375 0.0625 C2.7675 1.0525 3.0975 2.0425 3.4375 3.0625 C4.0975 3.0625 4.7575 3.0625 5.4375 3.0625 C5.4375 3.7225 5.4375 4.3825 5.4375 5.0625 C3.5 5.625 3.5 5.625 1.4375 6.0625 C1.1075 5.7325 0.7775 5.4025 0.4375 5.0625 C-1.89067964 4.69489269 -4.2243385 4.36008419 -6.5625 4.0625 C-5.9025 3.7325 -5.2425 3.4025 -4.5625 3.0625 C-4.2325 2.4025 -3.9025 1.7425 -3.5625 1.0625 C-2.5625 0.0625 -2.5625 0.0625 0 0 Z " fill="#1F5783" transform="translate(39.5625,29.9375)"/>
<path d="M0 0 C0.6875 2.8125 0.6875 2.8125 1 6 C-0.4375 7.875 -0.4375 7.875 -2 9 C-3.32 8.34 -4.64 7.68 -6 7 C-5.34 7 -4.68 7 -4 7 C-4 6.34 -4 5.68 -4 5 C-4.66 4.67 -5.32 4.34 -6 4 C-2.25 0 -2.25 0 0 0 Z " fill="#173B5F" transform="translate(29,11)"/>
<path d="M0 0 C3.2542015 2.83430453 4.5206753 4.68607774 5 9 C3.35 9 1.7 9 0 9 C0.33 7.02 0.66 5.04 1 3 C-0.32 3.33 -1.64 3.66 -3 4 C-3 3.34 -3 2.68 -3 2 C-2.01 1.34 -1.02 0.68 0 0 Z " fill="#1A3D5C" transform="translate(59,35)"/>
<path d="M0 0 C0.99 0 1.98 0 3 0 C3.33 0.99 3.66 1.98 4 3 C5.49985609 4.66710346 5.49985609 4.66710346 7 6 C6.01 6.99 5.02 7.98 4 9 C3.01 8.34 2.02 7.68 1 7 C0.3125 3.375 0.3125 3.375 0 0 Z " fill="#216C9F" transform="translate(35,50)"/>
<path d="M0 0 C1.32 0 2.64 0 4 0 C4.33 0.99 4.66 1.98 5 3 C5.78375 2.938125 6.5675 2.87625 7.375 2.8125 C8.674375 2.9053125 8.674375 2.9053125 10 3 C10.99 4.485 10.99 4.485 12 6 C9 7 9 7 5 7 C4.01 7.33 3.02 7.66 2 8 C2.33 6.68 2.66 5.36 3 4 C2.01 3.34 1.02 2.68 0 2 C0 1.34 0 0.68 0 0 Z " fill="#266F9E" transform="translate(15,33)"/>
<path d="M0 0 C2.375 -0.1875 2.375 -0.1875 5 0 C5.66 0.99 6.32 1.98 7 3 C5.35 3 3.7 3 2 3 C2 2.34 2 1.68 2 1 C1.34 0.67 0.68 0.34 0 0 Z M1 3 C1.33 4.32 1.66 5.64 2 7 C1.01 7 0.02 7 -1 7 C-1.33 7.99 -1.66 8.98 -2 10 C-2.66 9.67 -3.32 9.34 -4 9 C-4 8.34 -4 7.68 -4 7 C-3.34 7 -2.68 7 -2 7 C-1.67 6.01 -1.34 5.02 -1 4 C-0.34 3.67 0.32 3.34 1 3 Z " fill="#21557B" transform="translate(12,35)"/>
<path d="M0 0 C0.33 0.99 0.66 1.98 1 3 C3.64 2.67 6.28 2.34 9 2 C8 4 8 4 7 5 C8.98 5.66 10.96 6.32 13 7 C9.78548731 8.60725635 6.56387464 8.05748185 3 8 C2.67 7.01 2.34 6.02 2 5 C1.34 4.67 0.68 4.34 0 4 C0 2.68 0 1.36 0 0 Z " fill="#1F4459" transform="translate(28,28)"/>
<path d="M0 0 C1.32 0.66 2.64 1.32 4 2 C4 3.32 4 4.64 4 6 C1.45866826 7.27066587 -0.12791367 7 -3 7 C-4.6875 5.5 -4.6875 5.5 -6 4 C-5.01 4 -4.02 4 -3 4 C-2.67 3.34 -2.34 2.68 -2 2 C-1.34 2.33 -0.68 2.66 0 3 C0 2.01 0 1.02 0 0 Z " fill="#2A668A" transform="translate(48,50)"/>
<path d="M0 0 C1.5 1.3125 1.5 1.3125 3 3 C3 3.99 3 4.98 3 6 C3.66 6.33 4.32 6.66 5 7 C4.67 8.32 4.34 9.64 4 11 C3.01 11 2.02 11 1 11 C-1.42857143 3.57142857 -1.42857143 3.57142857 0 0 Z " fill="#234E6B" transform="translate(37,14)"/>
<path d="M0 0 C2.33046701 3.6413547 2.30891093 6.7524747 2 11 C1.01 12.485 1.01 12.485 0 14 C-0.66 14 -1.32 14 -2 14 C-2.3690205 4.58997722 -2.3690205 4.58997722 0 0 Z " fill="#193857" transform="translate(16,10)"/>
<path d="M0 0 C0.66 0.33 1.32 0.66 2 1 C2 3.64 2 6.28 2 9 C0.35 9 -1.3 9 -3 9 C-2 6 -2 6 0 3 C-0.99 3.33 -1.98 3.66 -3 4 C-2.67 3.01 -2.34 2.02 -2 1 C-1.34 1.33 -0.68 1.66 0 2 C0 1.34 0 0.68 0 0 Z " fill="#1A5889" transform="translate(26,24)"/>
<path d="M0 0 C0.99 0.33 1.98 0.66 3 1 C4.1875 4.0625 4.1875 4.0625 5 7 C3.02 7 1.04 7 -1 7 C-0.67 4.69 -0.34 2.38 0 0 Z " fill="#1B3753" transform="translate(11,55)"/>
<path d="M0 0 C0.99 0 1.98 0 3 0 C3.33 1.65 3.66 3.3 4 5 C3.34 5 2.68 5 2 5 C1.67 5.66 1.34 6.32 1 7 C1 6.34 1 5.68 1 5 C0.34 5 -0.32 5 -1 5 C-1 5.66 -1 6.32 -1 7 C-1.66 7 -2.32 7 -3 7 C-3 6.01 -3 5.02 -3 4 C-2.01 4 -1.02 4 0 4 C0 2.68 0 1.36 0 0 Z " fill="#1E4364" transform="translate(14,38)"/>
<path d="M0 0 C0.66 0 1.32 0 2 0 C3.2890625 1.75 3.2890625 1.75 4.625 4 C5.07101563 4.7425 5.51703125 5.485 5.9765625 6.25 C6.31429687 6.8275 6.65203125 7.405 7 8 C6.01 8.33 5.02 8.66 4 9 C2.5 7.625 2.5 7.625 1 6 C1 5.34 1 4.68 1 4 C0.68521554 2.66216607 0.35412344 1.32796291 0 0 Z " fill="#163355" transform="translate(29,52)"/>
<path d="M0 0 C0.33 0 0.66 0 1 0 C1.17835515 4.54805635 0.99785435 7.8794254 -1 12 C-2.125 10.375 -2.125 10.375 -3 8 C-2.25465624 5.13329322 -1.32208367 2.64416734 0 0 Z " fill="#214259" transform="translate(44,10)"/>
<path d="M0 0 C1.98 0 3.96 0 6 0 C6 1.65 6 3.3 6 5 C3.03 4.505 3.03 4.505 0 4 C0 2.68 0 1.36 0 0 Z " fill="#215478" transform="translate(54,50)"/>
<path d="M0 0 C0.99 0.33 1.98 0.66 3 1 C3.33 1.99 3.66 2.98 4 4 C3.67 4.66 3.34 5.32 3 6 C1.02 5.34 -0.96 4.68 -3 4 C-3 3.34 -3 2.68 -3 2 C-2.01 2 -1.02 2 0 2 C0 1.34 0 0.68 0 0 Z " fill="#205881" transform="translate(23,43)"/>
<path d="M0 0 C0.66 0 1.32 0 2 0 C2.99 2.31 3.98 4.62 5 7 C3.02 7.99 3.02 7.99 1 9 C0.67 6.03 0.34 3.06 0 0 Z " fill="#19334F" transform="translate(4,51)"/>
<path d="M0 0 C0.99 0.33 1.98 0.66 3 1 C3.33 2.65 3.66 4.3 4 6 C3.34 6 2.68 6 2 6 C2 5.34 2 4.68 2 4 C0.35 3.67 -1.3 3.34 -3 3 C-2.01 2.01 -1.02 1.02 0 0 Z " fill="#183758" transform="translate(25,1)"/>
<path d="M0 0 C2 1.8125 2 1.8125 4 4 C4 4.99 4 5.98 4 7 C2.0625 6.25 2.0625 6.25 0 5 C-0.8125 2.9375 -0.8125 2.9375 -1 1 C-0.67 0.67 -0.34 0.34 0 0 Z " fill="#245B7F" transform="translate(35,42)"/>
<path d="M0 0 C-0.33 1.32 -0.66 2.64 -1 4 C-3.97 4 -6.94 4 -10 4 C-8.68 3.34 -7.36 2.68 -6 2 C-5.29875 1.62875 -4.5975 1.2575 -3.875 0.875 C-2 0 -2 0 0 0 Z " fill="#1E4662" transform="translate(47,26)"/>
<path d="M0 0 C1.98 0 3.96 0 6 0 C5.75 1.875 5.75 1.875 5 4 C2.9375 5.25 2.9375 5.25 1 6 C0.67 4.02 0.34 2.04 0 0 Z " fill="#2475A2" transform="translate(20,27)"/>
<path d="M0 0 C1.98 0.495 1.98 0.495 4 1 C4 1.99 4 2.98 4 4 C3.01 4.33 2.02 4.66 1 5 C1 5.66 1 6.32 1 7 C0.34 7 -0.32 7 -1 7 C-0.67 4.69 -0.34 2.38 0 0 Z " fill="#1F547D" transform="translate(40,8)"/>
<path d="M0 0 C0.99 0 1.98 0 3 0 C4.6875 2.5 4.6875 2.5 6 5 C5.34 5.66 4.68 6.32 4 7 C0 2.25 0 2.25 0 0 Z " fill="#1D4C75" transform="translate(31,52)"/>
<path d="M0 0 C1.32 0 2.64 0 4 0 C4.33 1.65 4.66 3.3 5 5 C4.01 5.495 4.01 5.495 3 6 C3 5.34 3 4.68 3 4 C2.34 4 1.68 4 1 4 C0.67 2.68 0.34 1.36 0 0 Z " fill="#1C3E5E" transform="translate(59,48)"/>
<path d="M0 0 C0.99 0.33 1.98 0.66 3 1 C3 1.99 3 2.98 3 4 C0.69 4 -1.62 4 -4 4 C-3.34 3.67 -2.68 3.34 -2 3 C-1.67 2.34 -1.34 1.68 -1 1 C-0.67 0.67 -0.34 0.34 0 0 Z " fill="#216996" transform="translate(37,30)"/>
<path d="M0 0 C1.98 0.99 1.98 0.99 4 2 C3.67 2.99 3.34 3.98 3 5 C2.34 5 1.68 5 1 5 C0.67 5.99 0.34 6.98 0 8 C0 5.36 0 2.72 0 0 Z " fill="#1F6992" transform="translate(14,25)"/>
<path d="M0 0 C1.32 0 2.64 0 4 0 C4 0.66 4 1.32 4 2 C4.99 2 5.98 2 7 2 C6.67 2.66 6.34 3.32 6 4 C5.34 3.67 4.68 3.34 4 3 C3.67 3.66 3.34 4.32 3 5 C3 4.34 3 3.68 3 3 C2.01 3 1.02 3 0 3 C0 2.01 0 1.02 0 0 Z " fill="#1D5887" transform="translate(23,5)"/>
<path d="M0 0 C1.32 0.33 2.64 0.66 4 1 C4 1.99 4 2.98 4 4 C1.03 3.505 1.03 3.505 -2 3 C-1.34 2.67 -0.68 2.34 0 2 C0 1.34 0 0.68 0 0 Z " fill="#24719E" transform="translate(26,47)"/>
<path d="M0 0 C2.475 0.495 2.475 0.495 5 1 C5.33 2.32 5.66 3.64 6 5 C4.02 4.34 2.04 3.68 0 3 C0 2.01 0 1.02 0 0 Z " fill="#1F4260" transform="translate(38,4)"/>
</svg>
